<svg id="Layer_1" data-name="Layer 1" xmlns="http://www.w3.org/2000/svg" viewBox="0 0 4173.44 1226.16"><defs><style>.cls-1{fill:#84806e;}</style></defs><path class="cls-1" d="M435.3,862.69c2.43,0,4.86,0,7.29,0l15.18-.05c17.22,0,34.59.56,51.72-1.4,8-.9,15.93-2,24-1.76,7,.17,14.08.83,21-.63a30.75,30.75,0,0,0,9.28-3.71c3.81-2.22,8-1.47,12.24-1.27,8.83.42,17.66.76,26.49,1.14,7.9.34,15.8.71,23.71,1,2.06,7.44,8.88,11.49,16,13.18.41.1.82.19,1.24.27-1.87,4.52-6.31,7.54-8.77,11.72s-4,9.66-3,14.5c2.61,12.26,21.56-.25,26.3,10.4-.46.3-.9.62-1.33.94l-.71.56a3,3,0,0,0-2.43,2.06c-.46,1.71,1,3.38,2.3,4.27a7.29,7.29,0,0,0,1.91,1c.62,2.76-1.11,5.84-1.44,8.64a17.2,17.2,0,0,0,15.64,19.18c.62,0,1.21-.71.74-1.25-1.26-1.41-2.39-2.81-2.53-4.78a13.88,13.88,0,0,1,.58-4.33c.72-2.92,1.66-5.83,2.25-8.78,1-5-2.78-8.93-7-11.07l.19-.25a6.41,6.41,0,0,0,1.24-5.26c-.62-2.08-3.29-2.58-5.19-2.49h0a16.29,16.29,0,0,0-2.23-4.57,7.46,7.46,0,0,0-3.63-3.09,23.91,23.91,0,0,0-6-.82c-1,.06-2,.21-2.9.33-.64,0-1.28,0-1.92-.05a14,14,0,0,1-4.47-1.12,12.32,12.32,0,0,1-3.3-3.3l0-.27a8.55,8.55,0,0,1,.45-3.29,14.71,14.71,0,0,1,3.35-4.84c.26-.29.51-.58.77-.86v0c-.12,1.42,1.2,1.89,2.33,2.2,5.58,1.57,11.43.42,16.93-1,6.45-1.6,12.6-3.7,18-7.74a38.3,38.3,0,0,0,5.39-5,4.55,4.55,0,0,1,2.46,2.15,8.63,8.63,0,0,1,.81,3.74,34.63,34.63,0,0,1-.46,7,3.92,3.92,0,0,0-1,.21,2.91,2.91,0,0,0-1.84,3.15,4.12,4.12,0,0,0-2.39,1c-1.15,1-1.11,2.45-1,3.87.33,5.13-5.22,6.26-9.13,4.87a.91.91,0,0,0-1.07,1.38,13.67,13.67,0,0,0,16.4,5c5.1-2.09,9.74-8.91,5.47-13.87a2.82,2.82,0,0,0,.51-.19c2.4-1.14,1.47-4.06-.94-4.32a3.31,3.31,0,0,0-.77-.33l-.44-.1c1.15-3.48,2.19-7.83,1.36-11.48a9.8,9.8,0,0,0-4.69-6.28,35.52,35.52,0,0,0,6.38-22.31,1.68,1.68,0,0,0-1.85-1.46c-4.12.88-8.25,1.27-12.17-.28a28.7,28.7,0,0,0-.13-5c-.58-5-3.31-13.24-9.24-13.88.34-1.12.66-2.24,1-3.36,2.35-8.37,4.61-16.75,6.92-25.13s4.72-17,7-25.56c1.1-4.08,1.68-8.32,5-11.26a31,31,0,0,0,6.37-7.7c3.5-6.1,5.06-13.08,7-19.76,2.28-7.73,5.71-15,9-22.29,7.11-15.72,11.86-32.43,17.18-48.81q2.34-7.22,4.69-14.45c.76-2.3,1.52-4.61,2.24-6.93a7,7,0,0,0,.16-4.85c-1.52-3.51-6.78-4.27-10-5.18-1.81-.5-3.62-.93-5.45-1.3-2.68-1-6.12-2.31-8.87-1.52-1.95-3.15-7.11-3.39-10.35-4q-2.79-.48-5.56-.75c-3.23-.81-7.54-2.07-10.24.07a6.8,6.8,0,0,0-2.11,4.16,6.72,6.72,0,0,0-.94-4.6c-2.27-3.08-7.57-2.64-10.92-2.79q-2.82-.12-5.61,0c-.9-.11-1.89-.23-2.89-.31-2.69-.92-6.22-.4-8.71-.3-1.88.08-3.74.24-5.59.45-2.84-.09-6.54-.32-8.91,1.29-2.83-2.4-7.81-1.05-11.07-.59-1.86.26-3.7.6-5.52,1-3.32.23-7.81.37-9.71,3.23a6.7,6.7,0,0,0-.73,4.61,6.71,6.71,0,0,0-2.32-4.09c-3.1-2.23-8-.18-11.25.71-1.81.5-3.59,1.08-5.34,1.7a37.61,37.61,0,0,0-4.76,1.14c-2.91,0-6.18,1.78-8.56,2.79-1.73.73-3.41,1.53-5.07,2.38-2.7.92-6.24,2-7.89,4.33-3.49-1.25-7.68,1.78-10.57,3.35-1.65.9-3.25,1.86-4.82,2.87-3,1.37-7.18,3.08-8,6.43a6.76,6.76,0,0,0,.94,4.57,6.7,6.7,0,0,0-3.6-3c-3.7-1-7.56,2.65-10.29,4.62-1.52,1.11-3,2.27-4.4,3.47-.77.48-1.62,1-2.46,1.56-2.67,1-5.11,3.56-7,5.19-1.43,1.23-2.78,2.51-4.1,3.83-2.28,1.71-5.3,3.83-6.16,6.56-3.71-.12-6.76,4-9,6.44-1.3,1.36-2.52,2.77-3.7,4.21-2.45,2.24-5.88,5.15-5.59,8.58a6.78,6.78,0,0,0,2.3,4,6.73,6.73,0,0,0-4.36-1.75c-3.82.19-6.37,4.85-8.35,7.57-1.11,1.52-2.14,3.07-3.13,4.65-1.6,1.91-3.7,4.24-4.34,6.71-3.38,1-5.34,5.47-6.95,8.19q-1.43,2.43-2.66,4.93c-1.62,2.35-3.83,5.32-3.77,8.18-3.55,1.07-5.12,6-6.51,9q-1.19,2.56-2.17,5.17c-1.61,2.91-3.94,6.75-2.57,9.91a6.69,6.69,0,0,0,3.47,3.11,6.83,6.83,0,0,0-4.69-.28c-3.57,1.4-4.5,6.63-5.52,9.84q-.86,2.68-1.48,5.4c-.33.85-.71,1.77-1.05,2.72-1.58,2.36-2,5.9-2.53,8.33-.42,1.84-.75,3.67-1,5.52-.82,2.72-2,6.23-1.06,8.94-3.05,2.11-3,7.27-3.43,10.54-.23,1.86-.38,3.72-.47,5.59-.64,3.26-1.67,7.63.6,10.22a6.76,6.76,0,0,0,4.27,1.89,6.7,6.7,0,0,0-4.55,1.18c-3,2.42-2.24,7.69-2.22,11.05,0,1.88.1,3.75.26,5.6-.22,3.32-.68,7.79,1.91,10.06A6.9,6.9,0,0,0,435.3,862.69ZM658.43,929a19.41,19.41,0,0,1,.41-9.66,9.68,9.68,0,0,0,.23-4.08l.13.34a15.67,15.67,0,0,1,1.18,4.48c.12,1.43.12,2.86.13,4.3a31.9,31.9,0,0,0,.81,8.32,14.06,14.06,0,0,0,2,4.31A15.8,15.8,0,0,1,658.43,929Zm7.44,9.9a12.27,12.27,0,0,1-1.8-2.36,18.22,18.22,0,0,1-2.33-7.19c-.32-2.76-.14-5.55-.28-8.32-.09-1.73-.12-4.34-1.39-5.75h0a4.86,4.86,0,0,0,1,0c2.49,5,.91,10.92,2.1,16.24a19.15,19.15,0,0,0,3.61,7.93C666.48,939.27,666.17,939.09,665.87,938.91Zm4.07,1.76-.81-.24a12.71,12.71,0,0,1-3.32-4.18,22.91,22.91,0,0,1-2.06-7.54c-.48-4.58.45-9.36-1.56-13.66a5.32,5.32,0,0,0,1.06-.42,2.49,2.49,0,0,0,.33-.16c4.32,4.42,3.4,10.55,3,16.17-.16,2.23-.31,4.64.58,6.74A7.69,7.69,0,0,0,669.94,940.67Zm.19-21.62c1.62,2.66.5,5.63-.1,8.44s-1.43,5.46-1.44,8.23a8.41,8.41,0,0,0,1,4.07,8.09,8.09,0,0,1-2.36-5.65c0-2.67.4-5.34.57-8,.26-4.15-.12-8.95-3.27-12A14.24,14.24,0,0,1,670.13,919.05Zm-6.27-11.38a3.6,3.6,0,0,1-1.94,1.43.26.26,0,0,0,0,.52,3.32,3.32,0,0,0,2.26-.29,7.06,7.06,0,0,1-3.67,3.49,3.12,3.12,0,0,1-1.55.34,3.35,3.35,0,0,1-1.69-1.27,2.18,2.18,0,0,1-.23-2.47,5.8,5.8,0,0,1,.62-.49c1.69-1.09,4-2.81,5.84-2a2.23,2.23,0,0,1,.5.31A.78.78,0,0,1,663.86,907.67ZM639.58,883a14.11,14.11,0,0,0-3.21,4.87,7.9,7.9,0,0,0-.22,5,4.12,4.12,0,0,0,.59,1.12l0,.18c.09.79.19,1.57.21,2.37h0a14.5,14.5,0,0,0,.46-1.75,6.57,6.57,0,0,0,.67.51,4.22,4.22,0,0,0,1.26,2.56l.17-.1a16.19,16.19,0,0,0-.12-1.7l.35.17a11.81,11.81,0,0,0,1.5.61,8.82,8.82,0,0,0,2.57,1c3.08.69,6.11-.85,9.21-.06A9.49,9.49,0,0,1,660,905l-.29.12c-1.3-4.06-6.12-5.95-10.14-6.15-2.72-.13-5.42.26-8.13.31s-6.27-.07-7.42-3.13c-.93-2.45-.54-5.41,0-7.91a22.06,22.06,0,0,1,3.11-7.69c2.43-3.72,6.08-6.6,7.39-10.91l.18,0a27.13,27.13,0,0,1-.51,8.19h0C642.63,879.61,641.11,881.28,639.58,883Zm5.65-.43-.46.2-.3-.13a12.84,12.84,0,0,1,.72-1.6c.21-.57.4-1.14.56-1.72a19.54,19.54,0,0,0,.69-3.63,15.81,15.81,0,0,0-.39-5.73,36.76,36.76,0,0,0,6,.3,14.93,14.93,0,0,1,.14,3.61A8.28,8.28,0,0,1,650.8,878a22.42,22.42,0,0,1-3.63,3.31A11.11,11.11,0,0,1,645.23,882.52Zm2.61.52.5-.23a15.08,15.08,0,0,0,4.83-3.37,10,10,0,0,0,2.15-5.19,12.41,12.41,0,0,0,0-4.3,31.39,31.39,0,0,0,4.21-.85c-.11,1.48.48,3.18.27,4.61a9.5,9.5,0,0,1-2.59,5.23A14.53,14.53,0,0,1,647.84,883Zm13.66-2-.53.28c-.49.12-1,.25-1.46.36a13.22,13.22,0,0,0,4.07-7c.38-1.79.38-5-.94-6.66a28.72,28.72,0,0,0,3.69-1.82,28.79,28.79,0,0,1,1.14,4.81,11.7,11.7,0,0,1-1,5.69C665.56,878.62,663.31,880.08,661.5,881.07Zm8.65-2.82-1.17.5.15-.23c2.43-3.68,2.78-10.43-.23-14l.7-.54a13.06,13.06,0,0,0,2.32,2.67,17.77,17.77,0,0,0,3.51,2.9c.23.12.5-.18.4-.4a37.74,37.74,0,0,0-2.22-3.78,17.08,17.08,0,0,0-2-3.13c.21-.19.41-.39.61-.59a16.5,16.5,0,0,0,5.51,4c1.8.83,4.39,1.79,6.43,1.3A34.76,34.76,0,0,1,670.15,878.25Zm4.6,21.41-.23-.2a8,8,0,0,0,7-2.31,6.08,6.08,0,0,0,1.66-4.17c0-1.1-.5-2.29,0-3.32a2.81,2.81,0,0,1,2.09-1.51,2.16,2.16,0,0,0,.64.59,6.11,6.11,0,0,0-1.57,2.89c-.43,1.86-.07,3.65-1.3,5.3a8.68,8.68,0,0,1-5,3,5.62,5.62,0,0,1-3-.12l-.09-.1Zm3.81,2.08-.39,0a11.4,11.4,0,0,1-1.41-.68,9.51,9.51,0,0,0,4.4-1.21,7.71,7.71,0,0,0,3.65-4.1l.06-.2a15.49,15.49,0,0,0,.28-3,6.26,6.26,0,0,1,1.36-3.48,6.72,6.72,0,0,0,1.25.33,5.17,5.17,0,0,0-1.72,2.55c-.42,1.23-.58,2.49-.9,3.71a8.26,8.26,0,0,1-1.06,2.52A7.71,7.71,0,0,1,678.56,901.74Zm3.24.84a12,12,0,0,1-1.91-.27,7.67,7.67,0,0,0,2.08-.95,9.51,9.51,0,0,0,3.85-5.17c.8-2.59.65-5,3-6.64.42.06.82.12,1.19.19l.28,0c-1.87,2.86-.8,6.86-3,9.74a7.55,7.55,0,0,1-5.57,3.06Zm9.89-12.21c2.94,4.86-.86,10.06-5.63,11.65l-.36.11h0a8.9,8.9,0,0,0,3.76-5c.74-2.42.31-5.11,1.84-7.23l.24,0A.85.85,0,0,0,691.69,890.37Zm.95-2.39a3.86,3.86,0,0,1-1.85.06c-1.06-.16-2.26-.27-3.28-.52-1.28-.33-1.34-1.39-.22-1.89a2.46,2.46,0,0,1,.59-.16,14.21,14.21,0,0,0,1.81.38l.63.15.1,0a14.51,14.51,0,0,1,2.5,1C693.23,887.36,693.34,887.73,692.64,888ZM689.9,869.9a8.88,8.88,0,0,1,1.77,4.34c.37,3.28-.7,6.85-1.56,10v.12a6.72,6.72,0,0,0-1.36-.28c1.58-2.22,1.49-6,1.06-8.41-.36-2-1.84-4.85-4.06-5.39.65-.78,1.28-1.58,1.87-2.4A9.18,9.18,0,0,1,689.9,869.9Zm-1.18-11.2a34.11,34.11,0,0,1-1.49,3.25l-.31.27c-1.53,1.27-2.83,2.28-4.89,1.83-3.19-.68-5.52-2.47-7.78-4.65.55-.68,1.07-1.39,1.56-2.12,3.29,2.15,7.18,3.79,11.08,2.28a9.44,9.44,0,0,0,1.88-1Zm1.48-4.76a8.07,8.07,0,0,1-5.67,3.53c-2.67.16-5.13-1.14-7.29-2.62.45-.85.85-1.73,1.22-2.61a10.13,10.13,0,0,0,2.77.59,27.9,27.9,0,0,0,6.71,0,13.22,13.22,0,0,0,2.56-.41Q690.37,853.21,690.2,853.94Zm1-7.18v0c-.06.84-.13,1.68-.22,2.51a2.42,2.42,0,0,1-.57.9c-1.06,1-3.14.89-4.57.91a24.59,24.59,0,0,1-4.85-.36,10.53,10.53,0,0,1-1.76-.62,29.06,29.06,0,0,0,1-4.31C683.51,847.46,687.52,847.17,691.18,846.76Zm-15.55-13.34a23.74,23.74,0,0,1,1.29,8.81c-.44,11.54-8.61,20.9-19.65,23.77a34.41,34.41,0,0,1-15.86,0,21.93,21.93,0,0,1-8.37-3.45,21,21,0,0,1-5.71-6.52l1.15,0,.78,0c2.6,3.75,7,5.93,11.44,6.87a33.39,33.39,0,0,0,14.95-.25c5.1-1.36,9.62-4.51,13.39-8.12a14.63,14.63,0,0,0,4.09-6.23,48.39,48.39,0,0,0,1.62-7.25c.73-5.11-.58-10.09-4.51-13.61l-.12-.09c.06-.16.11-.33.16-.5A11.8,11.8,0,0,1,675.63,833.42Zm-19.79,13.07-.11-.18a8.7,8.7,0,0,1,2.72-2.37,14.55,14.55,0,0,1,1.32,8.13,33.4,33.4,0,0,1-1,4.43c-.22.79-.62,1.59-.92,2.39a21.34,21.34,0,0,1-4.17,1.41l.06-.09C656.83,856.44,658,851,655.84,846.49Zm-2.69,6.94.07-.07a.43.43,0,0,0,.11-.38,1.89,1.89,0,0,0,.23-.73,4.24,4.24,0,0,0,1.25-2.51,12.33,12.33,0,0,1,.23,1.6,9.67,9.67,0,0,1-.19,1.76c-.1.5-.23,1-.38,1.5l-1.21-1.06Zm-50.91-71.06-.15-.15-.2-.19-.19-.19-.14-.13-.46-.47,0,0a13.92,13.92,0,0,1-2.77-3.9V777c-.15-1.12-.35-2.24-.6-3.35h0c.52.22,1,.43,1.58.63l.59.21c4.15,1.46,6.32,5.14,8.91,8.48,5.36,6.93,10.78,13.8,16.17,20.7l-.35-.34c-6.44-6-12.85-12.14-19.31-18.16l-.37-.34-.68-.62-.88-.79-.75-.68h0ZM663,842.86c1.89-1.73,2.9-4.22,3.68-6.73.79-1.65,1.49-3.33,2.14-5,1.25,2,2.4,4,2.51,6.55a28.48,28.48,0,0,1-1.12,7.5,14.62,14.62,0,0,1-4,7.46,38.2,38.2,0,0,1-4.72,4.07,1.7,1.7,0,0,0-.53-.24l-.36-.09a21.87,21.87,0,0,0,.85-4.55c.2-2.79-.17-6.11-2-8.38a4,4,0,0,0,3.48-.55Zm-2.34,14.42-.37.25c.05-.16.09-.31.14-.45h0l.16.15Zm-7.1-.21c-.09.24-.18.48-.28.72-2.08-1.25-4.5-1.6-6.74-2.43,1.45-.24,2.9-.54,4.34-.92a4.06,4.06,0,0,0,1.43-.4l.37.25.77.54a3.76,3.76,0,0,0,.75.56C654,856,653.8,856.53,653.57,857.07Zm-1,2.15-.16.25c-.28.33-.58.65-.91,1a.9.9,0,0,0-.2.28,32.85,32.85,0,0,1-8.23,0,26.18,26.18,0,0,1-11.76-4.49,87.28,87.28,0,0,0,13.14-.54C646.67,857.54,650.2,857.7,652.62,859.22Zm61.47-231.34c1.53-.41,3.43.23,4.82.63,2,.56,3.88,1.17,5.81,1.82,3.52,1.19,7.06,2.28,10.57,3.5a2.9,2.9,0,0,1,.75,1.29c.5,1.79-.67,4-1.22,5.65l-2.13,6.48q-2,6.18-4,12.37c-5.15,15.71-9.7,31.81-16.48,46.92-3.22,7.17-6.75,14.24-9.14,21.75-2.06,6.51-3.44,13.34-6.47,19.5a26.79,26.79,0,0,1-5.87,8,22.87,22.87,0,0,0-3.6,3.56,15.25,15.25,0,0,0-2,4.47c-2.44,8.2-4.62,16.48-6.92,24.73l-7.77,27.92a123,123,0,0,1-5.59,16.94,23.78,23.78,0,0,0-.93-3.05,117.31,117.31,0,0,0,2.67-11.95c.42-2.38.83-4.76,1.25-7.15q3.82-11.56,7.64-23.14c2.69-8.13,5.49-16.22,8-24.39a15.18,15.18,0,0,0,.86-4.81,22.29,22.29,0,0,0-1-5,22.73,22.73,0,0,1-.56-3.48,27.58,27.58,0,0,0,2.12-3.86c2.89-6.41,3.75-13.51,5.06-20.36,1.51-7.91,4.21-15.46,6.79-23.06,5.54-16.34,8.62-33.44,12.31-50.26q1.62-7.41,3.25-14.83c.52-2.38,1.06-4.74,1.54-7.12A9.35,9.35,0,0,0,714.09,627.88ZM670.93,793.25c0-.16.05-.32.08-.48,1.49-8.71,3-17.41,4.48-26.13.7-4.17.86-8.44,3.83-11.69.51-.56,1-1.12,1.45-1.69.17,1,.38,2,.63,3,1.08,4.28-.8,8.12-2.15,12.12C676.43,776.63,673.7,785,670.93,793.25Zm17.34-170.1c1.46-1.54,4.15-.9,6-.56,2,.36,4,.78,6,1.24,3.62.84,7.26,1.58,10.87,2.45a2.94,2.94,0,0,1,.87,1.21c.67,1.73-.28,4-.66,5.74q-.75,3.33-1.48,6.65L707,652.59c-3.57,16.15-6.53,32.61-11.79,48.31-2.5,7.46-5.32,14.84-7,22.55-1.42,6.68-2.12,13.6-4.53,20a26.92,26.92,0,0,1-5.05,8.58,22.7,22.7,0,0,0-3.23,3.9,14.86,14.86,0,0,0-1.51,4.64c-1.63,8.4-3,16.86-4.47,25.28q-2.49,14.28-5,28.55c-.59,3.39-1.18,6.8-1.94,10.18,0-2.07,0-4.15-.08-6.22,0-.26,0-.52,0-.79q.38-8,.68-16.07,1.77-7.9,3.54-15.81c1.88-8.34,3.87-16.67,5.59-25.05a15.35,15.35,0,0,0,.39-4.87,23.14,23.14,0,0,0-1.49-4.84,22.11,22.11,0,0,1-1-3.74,29.1,29.1,0,0,0,1.17-3.17c2-6.73,2-13.88,2.39-20.84.47-8,2.19-15.87,3.76-23.75,3.38-16.91,4.23-34.27,5.72-51.42h0l2.25-12.62c.4-2.23.79-4.47,1.19-6.71C687,627,687,624.5,688.27,623.15ZM663.75,786.39c.3-7.1.6-14.2.86-21.31.15-4.23-.24-8.48,2.29-12.09q.87-1.25,1.62-2.52c.27,1,.57,1.93.92,2.9,1.5,4.14,0,8.15-1,12.26C666.88,772.55,665.32,779.47,663.75,786.39Zm4-166.38c1,.08,2,.16,3,.26,3.7.37,7.4.63,11.09,1a2.89,2.89,0,0,1,1,1.09c.89,1.63.25,4,.09,5.78-.21,2.26-.41,4.52-.62,6.79q-.57,6.48-1.15,13c-1.46,16.47-2.26,33.18-5.46,49.43-1.51,7.72-3.36,15.4-4,23.26-.55,6.81-.35,13.76-1.91,20.45a26.86,26.86,0,0,1-3.9,9.16,22.74,22.74,0,0,0-2.71,4.28,15.27,15.27,0,0,0-.89,4.79c-.54,8.54-.8,17.1-1.17,25.65,0,.55-.05,1.11-.07,1.66-.3-6.77-.59-13.54-.92-20.3.19-2.25.38-4.49.54-6.73a15,15,0,0,0-.24-4.87l-.06-.2a11.36,11.36,0,0,1,.92-2.1,31.8,31.8,0,0,0,3.36-7.86,2.07,2.07,0,0,0,2.54-.07c2-1.52.27-4.4-1.74-4.07.82-6,.29-12.2.13-18.25-.21-8,.82-16,1.72-24,1.92-17.14,1.28-34.5,1.29-51.72q0-7.59,0-15.19c0-2.42,0-4.86,0-7.29A8,8,0,0,0,667.73,620Zm-24.91.78c1.33-.85,3.32-.83,4.78-.88,2-.07,4-.08,6.08-.06,3.71,0,7.43,0,11.14.08a2.92,2.92,0,0,1,1.11,1c1,1.55.59,4,.58,5.75,0,2.28,0,4.55,0,6.82q0,6.51,0,13c0,16.53.58,33.24-1.21,49.71-.85,7.82-2,15.63-2,23.51,0,6.83.83,13.74-.16,20.54a26.61,26.61,0,0,1-3.1,9.46,24,24,0,0,0-2.33,4.5,15.23,15.23,0,0,0-.48,4.85c.2,8.55.68,17.11,1,25.66q.62,14.47,1.22,29c0,1.17.1,2.35.14,3.53l-1.15-2.8q-1.51-3.6-3.06-7.2.06-11,.13-22.06c0-8.55.22-17.12.11-25.68a15.2,15.2,0,0,0-.66-4.83,23.12,23.12,0,0,0-2.49-4.41,23.12,23.12,0,0,1-1.61-3.13,27.63,27.63,0,0,0,.83-4.33c.77-7-.6-14-1.47-20.92-1-8-.75-16-.64-24,.23-17.25-2.11-34.47-3.78-51.6q-.75-7.56-1.48-15.12c-.24-2.42-.46-4.84-.73-7.25A9.6,9.6,0,0,0,642.82,620.79Zm9.9,170.63c0-.16,0-.32-.07-.48-1.26-8.75-2.48-17.5-3.78-26.24-.63-4.18-1.79-8.3,0-12.31q.47-1,.87-2c.46.88,1,1.75,1.51,2.62,2.34,3.73,1.74,8,1.68,12.19C652.84,773.91,652.8,782.67,652.72,791.42ZM617,630c-.24-1.74-1-4.11-.2-5.78.92-1.92,3.67-2.14,5.52-2.38,2-.27,4-.48,6-.66,3.71-.31,7.4-.73,11.1-1a3,3,0,0,1,1.2.87c1.17,1.45,1,3.93,1.14,5.67.21,2.27.43,4.53.64,6.79q.63,6.48,1.24,13c1.58,16.46,3.84,33,3.67,49.59-.08,7.86-.49,15.75.33,23.59.71,6.8,2.18,13.6,1.86,20.46a26.88,26.88,0,0,1-2.15,9.72,23,23,0,0,0-1.88,4.7,15.08,15.08,0,0,0,0,4.88c1,8.49,2.35,17,3.55,25.43l1.6,11.33c-.83-1.91-1.64-3.82-2.46-5.73-.58-1.35-1.15-2.71-1.73-4.06,0-.28-.06-.56-.08-.84-.79-8.52-1.47-17.06-2.41-25.56a15.2,15.2,0,0,0-1.13-4.75,22.38,22.38,0,0,0-2.91-4.14,22.86,22.86,0,0,1-2.08-3.27,26.74,26.74,0,0,0,.14-3.37c-.14-7-2.4-13.81-4.15-20.56-2-7.8-2.81-15.78-3.74-23.76-2-17.13-6.54-33.9-10.41-50.68h0q-.87-6.35-1.75-12.69Q617.47,633.42,617,630Zm26,148.24q-2.38-5.61-4.8-11.19l-.15-.52c-1.16-4.07-2.84-8-1.55-12.21.3-1,.55-1.94.77-2.9.55.84,1.14,1.66,1.77,2.48,2.7,3.48,2.51,7.75,2.87,12S642.61,774.15,643,778.28ZM596.3,631.39a8.23,8.23,0,0,0-2-3.28c1.63-.43,3.27-.81,4.91-1.17,3.63-.8,7.24-1.68,10.87-2.44a3,3,0,0,1,1.31.71c1.34,1.29,1.48,3.77,1.86,5.48q.75,3.33,1.51,6.64,1.46,6.34,2.9,12.69c3.69,16.12,8.07,32.26,10,48.71.93,7.81,1.55,15.68,3.37,23.35,1.58,6.65,3.91,13.2,4.48,20a27.38,27.38,0,0,1-.46,8.23,28.3,28.3,0,0,0-.25-6.15c-1.07-7-4.2-13.38-6.82-19.84-3-7.47-4.86-15.27-6.82-23.06-4.24-16.72-10.93-32.75-17-48.88l-5.33-14.22C598,635.94,597.18,633.66,596.3,631.39Zm-23.44,8.69a9.5,9.5,0,0,0-1.78-2.61c.95-1.27,2.82-2,4.16-2.51q2.82-1.15,5.68-2.19c3.49-1.26,7-2.61,10.46-3.84a3,3,0,0,1,1.38.53c1.5,1.1,2,3.55,2.57,5.19q1.17,3.2,2.37,6.39,2.26,6.09,4.54,12.2c5.77,15.49,12.23,30.92,16.34,47,1.95,7.62,3.59,15.35,6.41,22.72,2.43,6.38,5.6,12.57,7.07,19.28a26.62,26.62,0,0,1,.42,9.94,23.12,23.12,0,0,0-.59,5,15.2,15.2,0,0,0,1.25,4.72c3.19,7.93,6.64,15.77,10,23.65q5.65,13.35,11.32,26.69c1.22,2.9,2.47,5.82,3.59,8.78.1.25.19.5.28.75l.27.74c.27.74.53,1.49.78,2.24q.14.38.24.75c.33,1,.62,2,.9,3,.07.25.13.5.2.76a48.41,48.41,0,0,1,1.26,7l-.3.12h0c0-.14-.09-.28-.14-.42s-.1-.28-.16-.42-.08-.21-.13-.31l-.07-.16-.16-.34a23.74,23.74,0,0,0-1.56-3.73,95.57,95.57,0,0,0-6.81-14.89l-3.47-6.37q-4.21-11.43-8.44-22.87c-3-8-5.81-16.1-8.92-24.07a15.11,15.11,0,0,0-2.32-4.29,22.89,22.89,0,0,0-3.88-3.26,23.36,23.36,0,0,1-2.61-2.36c-.07-.85-.2-1.71-.35-2.56a2.84,2.84,0,0,0,2.94-.42c3.24-2.44-.56-7.46-3.79-5a3.34,3.34,0,0,0-.51.47c-1.95-5.56-5-10.7-7.76-15.89-3.75-7.13-6.33-14.72-9-22.28-5.85-16.23-14.09-31.52-21.68-47l-6.7-13.63C575,644.43,574,642.24,572.86,640.08Zm67.47,153.65-.24-.43-.94-1.73c-.22-.93-.42-1.86-.63-2.79ZM634.43,783q-3.54-6.45-7.1-12.89c-2.06-3.7-4.59-7.14-4.29-11.54.05-.74.08-1.48.08-2.21q1.13,1,2.34,1.92c3.51,2.67,4.43,6.84,5.86,10.82l.09.24Q632.9,776.14,634.43,783Zm-81-121.76-3.26-6c-.84-1.53-2.38-3.49-2.22-5.34.19-2.11,2.69-3.29,4.33-4.16s3.6-1.87,5.43-2.74c3.35-1.6,6.67-3.29,10-4.85a3,3,0,0,1,1.44.39c1.6,1,2.29,3.34,3.06,4.91q1.49,3.08,3,6.13,2.87,5.85,5.72,11.69c7.26,14.86,15.2,29.58,20.86,45.14,2.7,7.39,5.09,14.92,8.61,22,3.05,6.11,6.81,12,8.93,18.49a26.89,26.89,0,0,1,1.4,9.86,22.56,22.56,0,0,0-.11,5.06,15.3,15.3,0,0,0,1.71,4.57c4,7.59,8.16,15,12.26,22.56l13.88,25.45c1.64,3,3.3,6,4.81,9.15-1.28-1.64-2.6-3.24-3.95-4.82l-.44-.62q-4.71-6.51-9.48-13-3.54-7.29-7.07-14.58c-3.74-7.7-7.37-15.45-11.25-23.08a15,15,0,0,0-2.72-4,22.91,22.91,0,0,0-4.18-2.86,23.46,23.46,0,0,1-3.1-2.33A26.69,26.69,0,0,0,610,755c-.45-1.12-.95-2.21-1.5-3.29-1.38-3.6-2.78-7.19-4.44-10.67-7.51-15.77-17.83-30-27.88-44.27-1.75-2.47-3.54-4.91-5.35-7.35-3.76-5.66-7.6-11.27-11.35-16.92Q556.45,666.84,553.41,661.2Zm77,131.64c-4.2-5.75-8.38-11.5-12.61-17.21-1-1.3-2-2.55-2.89-3.84-.22-.31-.43-.62-.64-.94l-.08-.14a4.94,4.94,0,0,1-.3-.49l0,0c-.09-.14-.17-.28-.25-.43l0,0,0,0-.25-.47-.24-.51-.12-.26a11.14,11.14,0,0,1-.63-1.9,14,14,0,0,0-.48-4.72l.72.51.47.32c.4.27.81.53,1.23.79,3.76,2.32,5.09,6.38,6.9,10.19C624.26,780.06,627.36,786.45,630.45,792.84ZM529.91,660.2l2.48-1.64c3.12-2,6.18-4.12,9.32-6.1a3,3,0,0,1,1.47.2c1.71.73,2.71,3,3.67,4.48l.1.15c1.57,3.26,3.37,6.44,5.13,9.58q3.43,6.12,7.1,12.11c8.85,14.51,18.76,28.3,28.05,42.53a139.47,139.47,0,0,0,8.43,14.93c1.51,2.24,3.12,4.43,4.7,6.64l.9,1.58a108.25,108.25,0,0,1,5.9,11.17,57.1,57.1,0,0,1,2,5.63c.14.51.26,1,.38,1.52l0,.24a22.28,22.28,0,0,0,.55,5,15,15,0,0,0,2.28,4.31c4.91,7,10,13.87,15.07,20.79l1,1.35q-6.68-7.66-13.37-15.31c-1.24-1.88-2.5-3.75-3.76-5.61a15.21,15.21,0,0,0-3.23-3.65l-.17-.12a10.48,10.48,0,0,1-.58-2.22,34.09,34.09,0,0,0-1.53-6.32c.78-.2,1.07-1.26.86-2.09a4,4,0,0,0-2.42-2.76.56.56,0,0,0-.62.09c-3.16-5.61-7.67-10.35-11.79-15.25-5.18-6.17-9.32-13-13.6-19.84-9.17-14.6-20.49-27.79-31.2-41.26l-9.45-11.89c-1.51-1.9-3-3.82-4.55-5.69A8.09,8.09,0,0,0,529.91,660.2Zm-18.82,15.71q.24.42.51.81a5.83,5.83,0,0,0-.69-.39A3.79,3.79,0,0,1,511.09,675.91Zm75.75,75.86c-5.19-6.5-11.1-12.38-16.93-18.31-6.49-6.61-13-13.14-19.52-19.76s-13.08-13.16-19.58-19.78c-3.13-3.18-6.22-6.4-9.41-9.52s-6.28-6.52-9.9-9.18a14.59,14.59,0,0,1,2.6-2.56c1.54-1.31,3.12-2.59,4.72-3.83,2.93-2.28,5.81-4.63,8.76-6.89a3.15,3.15,0,0,1,1.49.09c1.77.58,2.95,2.77,4,4.14q2.1,2.69,4.22,5.35,4,5.1,8.08,10.21c10.26,13,21.17,25.64,30,39.64,4.21,6.65,8.15,13.49,13.1,19.63,4.28,5.32,9.21,10.23,12.67,16.16a26.78,26.78,0,0,1,3.47,9.34,22.47,22.47,0,0,0,1,5,15.3,15.3,0,0,0,2.64,4.1c5.49,6.57,11.19,13,16.79,19.43l19,21.9c5.61,6.47,11.4,13.06,14.78,21l.1.19-.06.09-.83-.59a18.89,18.89,0,0,0-3.44-4.38,95.44,95.44,0,0,0-11-12.06l-5.27-5L623.22,797c-5.29-6.72-10.49-13.53-15.91-20.15a15.22,15.22,0,0,0-3.52-3.37,23.37,23.37,0,0,0-4.7-1.9,21.3,21.3,0,0,1-2.15-.91A56.63,56.63,0,0,0,586.84,751.77Zm-94.13-56.52c-.48-2.07,1.54-4,2.83-5.3s2.85-2.88,4.32-4.27c2.7-2.56,5.33-5.18,8.05-7.71a2.89,2.89,0,0,1,1.49-.06c1.81.4,3.21,2.46,4.42,3.72,1.58,1.64,3.15,3.28,4.73,4.91q4.53,4.68,9,9.37c.17.16.33.34.49.5l2.24,2.49c10.08,11.26,20.33,22.38,30.83,33.25l.21.26c4.84,6.21,9.43,12.63,14.95,18.26,4.19,4.26,8.82,8.16,12.62,12.79a77.08,77.08,0,0,1,5.51,9.53c.16.48.31,1,.44,1.47a22.7,22.7,0,0,0,1.46,4.84,14.76,14.76,0,0,0,3,3.82c6.1,6,12.4,11.8,18.61,17.69l21,19.93c3.47,3.28,7,6.6,10.15,10.21-2.74-2.41-5.64-4.65-8.6-6.81q-6.5-4.74-13-9.43L616.34,803c-5.93-6.17-11.78-12.44-17.81-18.5a15.09,15.09,0,0,0-3.84-3,22.82,22.82,0,0,0-4.86-1.44,22.28,22.28,0,0,1-3.66-1.26,28.19,28.19,0,0,0-2-2.72c-4.5-5.42-10.49-9.31-16.06-13.5-6.44-4.84-12-10.59-17.72-16.25-12.24-12.16-26.23-22.45-39.71-33.16h0l-9.27-8.83-4.94-4.7C495.2,698.45,493.13,697.06,492.71,695.25ZM615.27,805.83c-5.76-4.17-11.51-8.35-17.3-12.48-3.43-2.46-7.2-4.49-8.81-8.59-.37-.94-.77-1.85-1.21-2.74,1,.31,1.93.59,2.93.83,4.28,1,6.8,4.5,9.7,7.57C605.45,795.58,610.37,800.7,615.27,805.83Zm-138.4-92.71c1.2-1.63,2.45-3.23,3.73-4.8,2.35-2.88,4.62-5.82,7-8.68a3.06,3.06,0,0,1,1.47-.26c1.85.17,3.5,2,4.86,3.13l5.33,4.26,10.17,8.11c12.92,10.32,26.41,20.22,38.19,31.85,5.6,5.53,11,11.31,17.19,16.17,5.37,4.22,11.28,7.89,16,12.89a26.84,26.84,0,0,1,5.49,8.31,22.81,22.81,0,0,0,2.07,4.62,15.22,15.22,0,0,0,3.5,3.39c6.83,5.16,13.82,10.11,20.74,15.14l23.44,17c6.44,4.68,13,9.44,18,15.7a21.13,21.13,0,0,0-3.76-2.9,95,95,0,0,0-13.47-9.28q-5.54-3.29-11.1-6.53l-14.49-11.64c-6.67-5.35-13.28-10.81-20-16a15.34,15.34,0,0,0-4.19-2.49,23.56,23.56,0,0,0-5-.79c-.73-.09-1.46-.21-2.18-.37a28.72,28.72,0,0,0-3.72-4.57c-5-5-11.33-8.27-17.27-11.9-6.88-4.2-13-9.39-19.2-14.49-13.34-10.93-28.26-19.83-42.7-29.21l-12.74-8.27c-2-1.32-4.07-2.66-6.12-3.95a9.15,9.15,0,0,0-3.15-1.39A15.28,15.28,0,0,1,476.87,713.12Zm132.85,98.8c-6.08-3.57-12.15-7.15-18.25-10.68-3.65-2.12-7.6-3.77-9.59-7.7-.15-.3-.31-.58-.46-.87.65.1,1.31.2,2,.27,4.38.48,7.32,3.58,10.6,6.26C599.21,803.46,604.47,807.69,609.72,811.92ZM463.25,733c1-1.74,2.14-3.46,3.26-5.14,2.06-3.09,4-6.24,6.12-9.31a3,3,0,0,1,1.44-.39c1.86,0,3.68,1.68,5.14,2.64l5.71,3.73,10.9,7.11c13.85,9,28.22,17.6,41.06,28,6.1,5,12,10.2,18.66,14.45,5.75,3.69,12,6.78,17.15,11.3a26.78,26.78,0,0,1,6.25,7.75,23.06,23.06,0,0,0,2.51,4.4,15.18,15.18,0,0,0,3.81,3.05c7.29,4.48,14.72,8.73,22.09,13.08l25,14.73c7.38,4.36,15,8.77,20.7,15.25l.16.14,0,.11-.32-.09a9.35,9.35,0,0,0-1.84-1.19,22.29,22.29,0,0,0-3.47-2.08,96.72,96.72,0,0,0-14.32-7.92l-6.58-3L606.23,816.2c-7.15-4.69-14.25-9.49-21.49-14.05a15,15,0,0,0-4.41-2.08,23.06,23.06,0,0,0-5.05-.31,21.75,21.75,0,0,1-3.51-.35,27.9,27.9,0,0,0-3.18-3,43.26,43.26,0,0,0-5.83-4A89.63,89.63,0,0,0,552.15,784a108.57,108.57,0,0,0-16.86-8.74c-3.73-1.62-7.42-3.31-11-5.12-6.31-3.9-12.84-7.46-19.44-10.9-6.29-3.81-12.53-7.71-18.92-11.35a149.48,149.48,0,0,0-16.32-8.14c-1.48-.61-3-1.2-4.46-1.75a11.08,11.08,0,0,0-3.42-1h-.26A11.09,11.09,0,0,1,463.25,733Zm117.46,74.31c-2.33-1.63-4.53-3.41-6.73-5.19h0l1.43.11,1.52.05c4.41,0,7.63,2.86,11.14,5.21,7.28,4.86,14.61,9.66,21.91,14.48l-.44-.2-6-2.78-11.7-5.4-.33-.16-5.59-2.55h0C584.15,809.66,582.42,808.48,580.71,807.27Zm-130.56-46.1c-1.11-1.81.2-4.24,1-5.92.87-1.83,1.79-3.64,2.74-5.43,1.75-3.28,3.41-6.6,5.18-9.87a3,3,0,0,1,1.39-.53c1.85-.19,3.83,1.31,5.38,2.13,2,1.06,4,2.11,6,3.15l1,.53q2,1.29,4,2.6c5.55,3.72,10.93,7.67,16.4,11.5A228.55,228.55,0,0,0,524.35,778c5.47,2.64,11.11,4.93,16.59,7.56s10.3,6,15.37,9.15c2.47,1.54,5,3,7.56,4.42s5,3.17,7.52,4.76l1.47,1a15.67,15.67,0,0,0,2.25,3.06,15.21,15.21,0,0,0,4.1,2.66c3.21,1.56,6.44,3.08,9.68,4.59,3.83,2.36,7.72,4.63,11.71,6.71,4.93,2.58,10.16,5.28,15.6,6.59a.48.48,0,0,0,.61-.38l12,5.56c3.11,1.44,6.26,2.9,9.33,4.5-2-.56-4-1.06-6-1.53l-.75-.24c-5.11-1.63-10.23-3.22-15.35-4.81l-14.35-7.52c-7.58-4-15.11-8.05-22.76-11.88a15.4,15.4,0,0,0-4.6-1.63,23.16,23.16,0,0,0-5.06.19,23.81,23.81,0,0,1-3.87,0,29,29,0,0,0-2.75-2c-6-3.7-12.9-5.49-19.52-7.69-7.65-2.54-14.77-6.22-22-9.78-15.46-7.64-32-12.95-48.19-18.83h0L461.28,767c-2-1-4.11-1.93-6.17-2.88C453.52,763.41,451.12,762.76,450.15,761.17Zm151.34,65.91c-6.78-2.13-13.57-4.26-20.36-6.34-4-1.24-8.26-2-11.09-5.34-.65-.78-1.32-1.52-2-2.22,1,0,2,0,3-.14,4.4-.37,7.88,2.1,11.61,4.1Q592.06,822.15,601.49,827.08ZM442.82,777.41c1.31-3.48,2.52-7,3.87-10.45a2.89,2.89,0,0,1,1.31-.71c1.8-.43,4,.81,5.6,1.42L460,770l12.23,4.47c15.53,5.67,31.46,10.77,46.33,18.06,7.06,3.46,14,7.23,21.44,9.87,6.43,2.29,13.2,3.9,19.25,7.14a26.76,26.76,0,0,1,7.84,6.13,23,23,0,0,0,3.44,3.73,15.12,15.12,0,0,0,4.4,2.1c8.11,2.73,16.31,5.19,24.47,7.77l1.59.5q-9.93-2.21-19.85-4.37-3.18-1.15-6.36-2.27a15,15,0,0,0-4.77-1h-.21a10.73,10.73,0,0,1-1.78-1.43,30.89,30.89,0,0,0-8-6l-.52-.26a1.57,1.57,0,0,0,.38-.22,2.1,2.1,0,0,0,.79-1.33,2,2,0,0,0-1.72-2.27,2.09,2.09,0,0,0-1.49.39,2.13,2.13,0,0,0-.78,1.33,1.84,1.84,0,0,0,.09.9c-5.4-2.13-11.22-3.19-16.85-4.54-7.83-1.87-15.24-4.93-22.72-7.86-16.07-6.29-33-10.16-49.63-14.63l-14.67-3.94c-2.34-.63-4.69-1.28-7-1.87a7.91,7.91,0,0,0-4-.22C442.13,779.26,442.47,778.33,442.82,777.41Zm-6.33,22.21q.69-3,1.52-5.89c1-3.58,1.92-7.18,3-10.74a2.9,2.9,0,0,1,1.24-.82c1.77-.59,4,.47,5.71.93l6.58,1.79,12.56,3.4c16,4.32,32.27,8,47.71,14,7.34,2.85,14.57,6,22.2,8,6.61,1.73,13.49,2.75,19.8,5.46a26.89,26.89,0,0,1,8.34,5.44,22.88,22.88,0,0,0,3.74,3.42,15.16,15.16,0,0,0,4.56,1.72c8.32,2,16.7,3.77,25.05,5.64l28.29,6.32c8.36,1.87,16.93,3.73,24.39,8.13l.19.08v.11l-1,0a19.09,19.09,0,0,0-5.36-1.49,95.55,95.55,0,0,0-16.06-3.11l-7.2-.89-23.51-6.44c-8.26-2.26-16.49-4.63-24.78-6.74a15.23,15.23,0,0,0-4.84-.62,23.24,23.24,0,0,0-4.9,1.27,22.54,22.54,0,0,1-3.45.74,28.43,28.43,0,0,0-4-1.92c-6.56-2.55-13.69-3-20.59-4-8-1.09-15.66-3.41-23.39-5.59-16.6-4.68-33.84-6.88-50.82-9.7l-15-2.48c-2.39-.4-4.79-.81-7.19-1.17a9.59,9.59,0,0,0-3.16-.07C435.63,803,436.17,801,436.49,799.62ZM603.5,839l-.49,0c-8.77-1.05-17.54-2.13-26.32-3.13-4.2-.48-8.48-.42-11.88-3.22-.58-.48-1.16-.93-1.75-1.37,1-.22,1.94-.47,2.92-.78,4.21-1.3,8.14.38,12.21,1.53C586.62,834.39,595.06,836.69,603.5,839ZM431.86,824.55q.39-3,.93-6c.65-3.66,1.2-7.34,1.89-11a3,3,0,0,1,1.16-.93c1.69-.75,4,.07,5.77.37l6.72,1.13,12.83,2.16c16.31,2.73,32.9,4.83,48.86,9.28,7.58,2.11,15.09,4.54,22.88,5.78,6.74,1.08,13.69,1.42,20.24,3.5a26.62,26.62,0,0,1,8.83,4.6,22.7,22.7,0,0,0,4.06,3,15.28,15.28,0,0,0,4.71,1.26c8.47,1.2,17,2.12,25.48,3.16L625,844.41c4.74.58,9.54,1.16,14.22,2.18-3.63-.31-7.29-.38-11-.36-5.36,0-10.73.09-16.09.16q-8-1.38-16-2.73c-8.43-1.44-16.86-3-25.31-4.29a15.09,15.09,0,0,0-4.88-.13,22.81,22.81,0,0,0-4.76,1.73,21.68,21.68,0,0,1-3.34,1.08c-2.8-.82-5.59-1.66-8.44-2.3-5.28-1.21-10.69-2-16.06-2.66-10.87-1.44-21.8-2.26-32.76-2.68s-22-.62-33-.51c-3.64,0-7.29.11-10.93.19l-11.56-1.45-6.77-.84c-1.73-.21-4.22-.09-5.63-1.3C431.11,829.12,431.62,826.4,431.86,824.55ZM589,845.16c-1.77.06-3.57.15-5.38.22a69.68,69.68,0,0,1-17.77-1.22q-1.89-.42-3.75-.93h0q.84-.3,1.68-.66c4.07-1.7,8.14-.42,12.3.32Q582.51,844.06,589,845.16Zm-158.36,9.12c0-2,.06-4,.15-6.08.17-3.71.25-7.42.46-11.13a3,3,0,0,1,1-1.08c1.56-1,3.93-.47,5.67-.38,5.06.68,10.19,1,15.27,1.34q9.22.67,18.46,1.15c14.46.77,28.92,1.17,43.34,2.28A132.77,132.77,0,0,0,530.91,842l.88,0c1.65.21,3.29.43,4.94.67,5.37.78,10.69,1.87,16.06,2.68,3,.46,6.07,1.07,9.1,1.61a14.45,14.45,0,0,0,3.31,1.77,15.19,15.19,0,0,0,4.83.65c8.56.1,17.12-.09,25.68-.15l29-.23c8.57-.06,17.34-.18,25.6,2.42h.09c-.17.11-.35.2-.53.3a52.59,52.59,0,0,1-9.23,1.44l-1.56.09-.78,0-.78,0-1.56,0H633l-.81,0-1,0c-1,0-2.08,0-3.13-.09l-3.11-.12-29-1.16c-8.55-.34-17.11-.8-25.66-1a15.52,15.52,0,0,0-4.85.49,23.09,23.09,0,0,0-4.49,2.34,26.78,26.78,0,0,1-9.46,3.12c-6.79,1-13.71.22-20.54.19-7.88,0-15.69,1.17-23.51,2-16.46,1.82-33.17,1.22-49.71,1.3l-13,.07-6.82,0c-1.75,0-4.2.45-5.76-.57C430.46,858.9,430.61,856.14,430.61,854.28Z"/><path class="cls-1" d="M3593.29,296.08a27.69,27.69,0,0,0-4.93-6.59c-1.87-1.8-3.77-3.41-5.05-5.71a42.35,42.35,0,0,1-2.43-5.62c-1.44-3.8-3-7.67-6-10.52-3.55-3.36-8.83-5.79-13.37-7.48s-9.13-2.29-13.7-.84a19.84,19.84,0,0,0-10.36,7.88c-3.63-2.3-6.62-5.32-10.33-7.62a29.84,29.84,0,0,0-14.29-4.45,29.36,29.36,0,0,0-23.33,10.26,31.39,31.39,0,0,0-2,2.62q-.48.45-.93.93c-3.85,4.09-6.09,9.42-7.62,14.74-1.46,5.06-2.3,10.53-.53,15.63a16.69,16.69,0,0,0,1.7,3.42l-.13,0a2,2,0,0,1-.57.69,8.63,8.63,0,0,1-1.06.68l-.69.35a41.73,41.73,0,0,1-4.75,1.52l-1.31.43c-.34.25-.69.51-1,.77-1,.58-2.08,1.2-3.07,1.85-5,3.3-9.14,7.66-10.36,13.73l-.05.31a20,20,0,0,0-.81,6.05,57.39,57.39,0,0,0,7.23,28l0,0a48.3,48.3,0,0,0,2.9,4.91l.2.06h0c.37.52.74,1,1.13,1.56,2.24,2.46,4.91,4.49,7.26,6.84s4.55,4.72,7.5,6.37c6,3.35,12.56,3.34,18.89,1.17a12.66,12.66,0,0,1,4.71-.93c1.45,2.78,4,5.46,6,7.74a66.65,66.65,0,0,0,7.69,7.8c5.3,4.44,11.57,7.4,18.58,7.41a50.68,50.68,0,0,0,20.08-3.94c6.73-2.93,12.53-7.63,17.7-12.77,3.83-3.8,8.21-9.46,6-14.57a16.6,16.6,0,0,0,4,.35,13.16,13.16,0,0,0,5.34-1.34,9.87,9.87,0,0,0,5.56-4.62c.29-.37.58-.74.85-1.14,2.92-4.26,4.6-9.21,7.75-13.34,3.29-4.32,6.49-8.15,7.55-13.65,1.85-9.58-1.38-22-9.86-27.56a20.25,20.25,0,0,0-7.68-3.2,6.64,6.64,0,0,0,.19-1.55C3595.84,300.34,3594.41,298.06,3593.29,296.08Zm-80.16,15.59c-.48-.14-1-.28-1.46-.4-4.22-1.5-8.73-2.41-12.75-3.45s-8.14-2.06-11.38-4.7a9.42,9.42,0,0,1-1.38-1.37,8.62,8.62,0,0,1-1.18-1.93,9.17,9.17,0,0,1-.58-1.67l-.1-.43c-.06-.29-.11-.59-.15-.88s-.07-.6-.09-.9a25.89,25.89,0,0,1,.54-6.43c.24-1.28.51-2.59.82-3.91.12-.53.26-1.06.4-1.59a40.17,40.17,0,0,1,3.92-10,21,21,0,0,1,6.48-7.15c.34-.23.69-.45,1.05-.65a23.54,23.54,0,0,1,6.24-2.49c.6-.14,1.2-.28,1.8-.39h0c-1.07.8-2.11,1.66-3.1,2.56l-1,.91c-.64.62-1.25,1.25-1.84,1.88s-1.15,1.27-1.69,1.91a38.23,38.23,0,0,0-2.38,3.15c-.25.36-.49.73-.72,1.1a42,42,0,0,0-5.69,14.64.57.57,0,0,0,.31.61l.11.05a.63.63,0,0,0,.89-.39,40.75,40.75,0,0,1,5.19-12.42c.66-1,1.35-2.06,2.1-3,.49-.66,1-1.31,1.54-1.94a38.12,38.12,0,0,1,11.82-9.53,41.74,41.74,0,0,1,4.75.22l1.08.11h0a15.58,15.58,0,0,0-3.08,1.29,19,19,0,0,0-1.71,1c-.24.17-.49.35-.73.54l-.72.56h0a24.39,24.39,0,0,0-3.12,3.06c-.21.24-.41.49-.61.73-.6.74-1.14,1.5-1.64,2.26a.37.37,0,0,0,0,.45.4.4,0,0,0,.53.12l.13-.12c.38-.53.78-1,1.2-1.55s.85-1,1.31-1.44a22.59,22.59,0,0,1,3-2.55l.82-.55c.56-.34,1.12-.66,1.69-.95l.87-.42c1.16-.54,2.34-1,3.53-1.6a.55.55,0,0,0,.31-.63c.87.15,1.73.35,2.58.58.61.18,1.22.37,1.82.58.8.28,1.6.58,2.39.91l1.37.59,1.8.84,1.72.82c1.17.55,2.37,1.09,3.59,1.55.61.23,1.22.44,1.84.62l.16.07.16.07h0a18.06,18.06,0,0,0-1.22,3.68c-.09.42-.16.84-.22,1.27a14.24,14.24,0,0,0-.14,1.73,17,17,0,0,0,0,1.75c0,.87.16,1.74.29,2.6s.31,1.71.49,2.57l.36,1.7c.12.57.23,1.14.34,1.72.06.28.11.57.16.85.14.86.26,1.73.33,2.6,0,.3,0,.6.05.9,0,.6,0,1.2,0,1.81a25.69,25.69,0,0,1-2.27,8.91c-.18.4-.37.8-.57,1.18s-.46.87-.71,1.3a8.08,8.08,0,0,0-.9,1.32,12.88,12.88,0,0,0-1.27,3.86c0,.27-.09.54-.12.81-.06.43-.1.87-.14,1.3-.07.87-.11,1.75-.16,2.62,0,.44-.05.87-.09,1.31a34.58,34.58,0,0,1-1.78,5.56c-.61-.87-1.21-1.76-1.93-2.61a7.62,7.62,0,0,0-1.81-1.55c-.33-.2-.66-.37-1-.53s-.68-.32-1-.46-.71-.53-1.08-.78-.86-.56-1.3-.82-1.11-.62-1.69-.9A34.81,34.81,0,0,0,3513.13,311.67ZM3493,376.09H3493c-6.29-.66-11.88-4.14-16.5-8.65l-1-1c-.32-.33-.63-.67-.94-1l-.25-.36c-.16-.25-.32-.49-.47-.74-.39-.62-.75-1.25-1.09-1.9a34.18,34.18,0,0,1-2-5c-.1-.29-.19-.57-.28-.86-.81-2.6-1.49-5.24-2.44-7.79-1.77-4.78-4.56-9.92-6.06-15.17-.24-.88-.46-1.76-.62-2.64a20.54,20.54,0,0,1-.34-5.3,16,16,0,0,1,.41-2.65,14.24,14.24,0,0,1,.54-1.76,13.06,13.06,0,0,1,.66-1.53,15.29,15.29,0,0,1,.81-1.42c.3-.46.62-.9,1-1.33a17.82,17.82,0,0,1,1.67-1.81c.39-.39.81-.75,1.24-1.11a26,26,0,0,1,2.29-1.69c.44-.28.88-.56,1.34-.82s.79-.46,1.2-.68a59.84,59.84,0,0,1,8.87-3.76l2.31-.78a22,22,0,0,0,6.15,4.26q1.17.54,2.43,1c.49.17,1,.32,1.48.47a55.94,55.94,0,0,0,8.42,1.63l2.34.29,4.37,1.65c.93.34,1.84.72,2.74,1.11l1.34.61,1.33.62c-.22.11-.43.22-.65.35a6,6,0,0,0-.62.41,7.62,7.62,0,0,0-1.16,1.06l-.1.28.09.25.1.08.12,0,.28-.09a9.45,9.45,0,0,1,.88-.62,7.75,7.75,0,0,1,1.75-.79,6.59,6.59,0,0,1,.88-.2l2.26,1.16.56.29-.31.13a12.57,12.57,0,0,0-1.21.62l-.31.18a.34.34,0,0,0-.07.54l.16.08.21,0,.73-.25.75-.21a13.51,13.51,0,0,1,1.54-.3l.8.41c.17.1.35.19.53.28a1.81,1.81,0,0,0,2.32-.44c.26.05.53.11.8.14l.37.33.73.67c.34.51.66,1,1,1.49q.33.49.69,1l.36.45a11.13,11.13,0,0,0,.8.88,2.58,2.58,0,0,0-.65.76.88.88,0,0,0-1,.46c-.44.74-.83,1.5-1.2,2.27-.12.26-.24.52-.35.78h-.15l-.38,0a21,21,0,0,0-2.23.3,11.67,11.67,0,0,0-8,4.89c-.89,1.39-1.59,2.86-2.4,4.28-.33.56-.67,1.12-1.05,1.66-.19.27-.39.53-.6.79a16.51,16.51,0,0,1-2.09,2.09c-.18.17-.37.33-.56.48-.56.48-1.12,1-1.64,1.47a2.22,2.22,0,0,0-1.22-.21,2.34,2.34,0,0,0-.79.22,2.77,2.77,0,0,0-1.4,1.51,1.46,1.46,0,0,0-.07.69,1.54,1.54,0,0,0,.2.54,2.37,2.37,0,0,0,.43,1,2.31,2.31,0,0,0,.86.7,2.38,2.38,0,0,0,3.44-1.95,2.81,2.81,0,0,0,0-.65,16.07,16.07,0,0,0,5.38-5.26c.13-.19.26-.38.38-.57.5-.76.94-1.52,1.32-2.23a28.72,28.72,0,0,1,2.78-4.82,7.94,7.94,0,0,1,.69-.73,6.7,6.7,0,0,1,1.24-1,14.66,14.66,0,0,1,2.66-1.24l.69-.25,1.4-.47.7-.24,0,0a16.19,16.19,0,0,0-1.31,3.48c-.19.52-.39,1-.59,1.57-.72,1.87-1.57,3.71-2.34,5.56-.47,1.12-.9,2.24-1.27,3.38a21.08,21.08,0,0,0-.88,5.61c0,.38,0,.75,0,1.13,0,.76-.05,1.53-.09,2.31a23.22,23.22,0,0,1-.37,3.26c-.45,1-.94,2-1.45,2.93s-1.07,1.89-1.65,2.8q-.3.46-.6.9c-.23.34-.46.67-.7,1a31.15,31.15,0,0,1-6,6.19,21.57,21.57,0,0,1-5,2.9A22,22,0,0,1,3493,376.09Zm76.05-13.36,5.24,5c.4.37.84.76,1.29,1.15l.27.24a18.71,18.71,0,0,1,.11,2.1,29.13,29.13,0,0,1-5.89,11.31l-.73.92c-1,1.22-2.05,2.42-3.11,3.61-.95.56-1.92,1.1-2.9,1.62s-2,1-2.95,1.53l-1.49.75-1.1.54-.15.08-1.11.54-.12.06c-1.2.58-2.41,1.14-3.64,1.66h0c-1.24.52-2.51,1-3.78,1.39h0c-1.35.3-2.73.54-4.12.72a52.09,52.09,0,0,1-5.31.46c-.34,0-.69-.08-1-.14l-.25,0c-.35-.06-.69-.13-1-.21h0c-.34-.08-.69-.18-1-.28l-.26-.08-1-.36c-.87-.34-1.72-.72-2.55-1.13-.28-.14-.56-.28-.83-.43a64.1,64.1,0,0,1-9.23-6.32c-.74-.58-1.46-1.19-2.18-1.82s-1.43-1.28-2.14-1.92c-1.42-1.29-2.84-2.58-4.34-3.75-.87-1.2-1.74-2.4-2.63-3.59l-.37-.51c.49-.33,1-.68,1.44-1l.69-.56a26.84,26.84,0,0,0,5.87-6.75c.16-.26.31-.52.46-.79.31-.53.59-1.07.86-1.63.17-.35.32-.69.47-1a20.73,20.73,0,0,0,.75-2.08c.11-.34.21-.69.3-1a30.48,30.48,0,0,0,.76-4.21c.13-1.06.22-2.13.29-3.21s.13-2.17.19-3.27q.06-1.11.15-2.22l0-.19,0-.39q.21-.51.39-1.05a45.24,45.24,0,0,0,1.47-6.08l.36-1.92c.38-1.09.78-2.17,1.16-3.26.2-.54.39-1.08.57-1.63s.37-1.09.55-1.64c.11-.17.23-.34.35-.5a14.46,14.46,0,0,0,2.29-3.6h0l0-.06.71.44a23.48,23.48,0,0,0,2.23,1.15c.93.7,1.89,1.37,2.87,2s2,1.26,3,1.83c.68.38,1.37.75,2.07,1.1s1.39.95,2.11,1.38c1.24.72,2.52,1.36,3.78,2,.71.39,1.41.78,2.09,1.22l.69.48a14.38,14.38,0,0,1,2.55,2.28c.18.22.36.43.53.65.53.65,1,1.33,1.51,2,.32.46.63.92.93,1.39s.6.95.9,1.42c.59,1,1.17,1.92,1.77,2.87s1.2,1.88,1.85,2.8c.34.47.68.92,1,1.37s.72.9,1.1,1.33A100.83,100.83,0,0,0,3569.07,362.73Zm28.29-53.84.66.25a15.92,15.92,0,0,1,4,2.3,18.67,18.67,0,0,1,4.66,5.56,25.2,25.2,0,0,1,1.21,2.51c.23.58.44,1.17.64,1.76s.36,1.2.51,1.81.28,1.23.38,1.85q.09.46.15.93c.09.62.15,1.25.2,1.87,0,.31,0,.62.05.94a25.54,25.54,0,0,1,0,2.77,26.73,26.73,0,0,1-.29,2.71,16.26,16.26,0,0,1-.44,1.89c-.09.3-.19.6-.3.89a21.82,21.82,0,0,1-2.6,4.86c-.53.76-1.08,1.51-1.65,2.26-.75,1-1.53,2-2.28,3a36.07,36.07,0,0,0-2.8,4.65c-.28.53-.55,1.07-.82,1.61l-.45.93c-.48,1-1,2-1.45,3-.24.49-.5,1-.75,1.47s-.56,1-.87,1.5-.62.95-1,1.39l-.51.64-.12.14-.54.59h0c-.2.21-.41.41-.62.61l0,0-.64.55h0a9.25,9.25,0,0,1-4,.48,19.24,19.24,0,0,1-7.4-1.66,30.52,30.52,0,0,1-6.43-4.89c-5.24-4.7-10.44-9.46-15.71-14.15l-.7-1.09-.33-.47c-.19-.29-.39-.57-.59-.85l-.3-.41c-.3-.42-.61-.82-.93-1.22s-.74-.88-1.14-1.3a16.68,16.68,0,0,0-1.92-1.76c-.45-.36-.91-.69-1.38-1s-.95-.62-1.44-.91-1-.57-1.48-.84c-1.75-1-3.54-1.86-5.25-2.93a13.17,13.17,0,0,0-1.81-1.33c-.21-.14-.43-.27-.65-.39-.66-.38-1.35-.72-2-1.05s-1.41-.64-2.11-1l-.71-.32a28.17,28.17,0,0,1-3.39-1.82l-.08-.07-.18-.12-.42-.39-.32-.29a9.42,9.42,0,0,0,1.23-.72,10.54,10.54,0,0,0,.92-.54c.3-.2.59-.42.88-.64,1.72-1.36,3.22-3.14,4.77-4.6.19-.12.4-.23.61-.34a7.05,7.05,0,0,1,4.24-.63,15,15,0,0,1,1.92.41c.48.14,1,.29,1.45.45a10,10,0,0,0,2.21,1.3,14,14,0,0,0,8.59.52,14.65,14.65,0,0,0,2.42-.82,17,17,0,0,0,1.75-.91l.83-.52c1.38-.89,2.71-1.87,4.16-2.63a12.16,12.16,0,0,1,4.81-1.27,21.88,21.88,0,0,1,3,0l3.09.17.78,0c.51,0,1,0,1.54,0a18.84,18.84,0,0,0,6.85-1,11,11,0,0,0,3.75-2.48,17.08,17.08,0,0,0,2-1.65,3.85,3.85,0,0,1,.61-.24,2.83,2.83,0,0,1,.63-.13A7.3,7.3,0,0,1,3597.36,308.89Zm-5.69-4.29a4.9,4.9,0,0,0-1,.46,13,13,0,0,0-2.32,1.95l-.31.29c-.2.19-.41.38-.63.56s-.44.35-.67.52a6.28,6.28,0,0,1-.76.44,6.71,6.71,0,0,1-.86.35,20.39,20.39,0,0,1-7.59.43c-3.8-.26-7.27-.29-10.65.86l-.84.32a16.91,16.91,0,0,0-2.51,1.27c-.59.36-1.16.74-1.73,1.12l-.43.28-.59.37a13.33,13.33,0,0,1-4.48,2,9.87,9.87,0,0,1-2.47.14,13.87,13.87,0,0,1-2.38-.38c-.57-.37-1.15-.72-1.75-1l-.6-.3a9.4,9.4,0,0,0-7.74-.54,8.89,8.89,0,0,0-1.67.89l-.51.36c-.23.08-.47.18-.69.28a12,12,0,0,0-1.93,1.12,18.23,18.23,0,0,0-1.46,1.17c-.28.24-.56.49-.83.75-.7.65-1.4,1.28-2.11,1.89-.42.38-.85.75-1.27,1.11a25,25,0,0,0,1.43-3.62,23.25,23.25,0,0,0,.8-3.83,59,59,0,0,1,.51-5.94l.19-.08.32-.23a22.61,22.61,0,0,0,4.62-6.17c.13-.26.25-.51.36-.77a19.63,19.63,0,0,0,1.46-5,20.47,20.47,0,0,0,.24-2.57c0-.57,0-1.14,0-1.7a35.08,35.08,0,0,0-.46-4.19c-.14-.83-.29-1.66-.45-2.5s-.33-1.68-.49-2.53c-.63-3.33-.78-6.52.43-9.62a12.84,12.84,0,0,1,.6-1.32,14.43,14.43,0,0,1,.82-1.36,15.08,15.08,0,0,1,1.83-2.23,14.72,14.72,0,0,1,1.44-1.29,15.21,15.21,0,0,1,2.14-1.41,12,12,0,0,1,1.14-.56,7.38,7.38,0,0,1,.73-.29c.24-.09.49-.18.73-.25a13.39,13.39,0,0,1,2.23-.46l.74-.07a16.16,16.16,0,0,1,4.1.29c.55.11,1.09.24,1.63.39l.81.24.91.32c.77.28,1.58.59,2.4.92.55.22,1.11.46,1.66.7s1.12.5,1.67.77a29.19,29.19,0,0,1,4.33,2.52,16.26,16.26,0,0,1,2.29,1.94,10.65,10.65,0,0,1,.88,1c.14.17.27.35.4.54a12,12,0,0,1,.72,1.13,28.67,28.67,0,0,1,1.72,3.68l.24.63c.33.85.64,1.69,1,2.51l.4,1c.42,1,.86,2,1.36,3a22.6,22.6,0,0,0,2.29,3.68,19.3,19.3,0,0,0,1.34,1.53l.63.64,1.23,1.25c1.44,1.45,2.82,2.88,4.08,4.43a27.7,27.7,0,0,1,3,4.35c.1.18.19.36.27.53a4.55,4.55,0,0,1,.38,1.49A4.15,4.15,0,0,1,3591.67,304.6Z"/><path class="cls-1" d="M3604,325.36c0,.77.34,1.51.42,2.29a7.49,7.49,0,0,1-.21,2.75.27.27,0,0,0,.51.18c.74-1.57,1.37-4,.42-5.61A.61.61,0,0,0,3604,325.36Z"/><path class="cls-1" d="M3598.6,318.69c0,2.66.63,5.24.51,7.92a30.41,30.41,0,0,1-10.38,21.86l.15.22a27,27,0,0,0,10.51-13.16c1.93-5,3.25-12.17.74-17.14C3599.79,317.72,3598.59,317.86,3598.6,318.69Z"/><path class="cls-1" d="M3566,274.11a22.36,22.36,0,0,0-11.6-4.71c-.17,0-.18.24,0,.27a28,28,0,0,1,11.13,5.17C3566,275.18,3566.46,274.46,3566,274.11Z"/><path class="cls-1" d="M3565.05,279a33,33,0,0,0-5.32-4.24c-1.39-1-2.92-2.48-4.76-2.14a.47.47,0,0,0,.18.93c1.68-.26,3.94,2.09,5.16,3.05s2.6,2.27,4,3.21A.55.55,0,0,0,3565.05,279Z"/><path class="cls-1" d="M3559.48,301.67l0,.13a18.4,18.4,0,0,0-7.9,1.72c-2.29,1.09-5.67,3.24-6.51,5.78a.75.75,0,0,0,1.14.87,33.23,33.23,0,0,0,3.05-2.89,18.69,18.69,0,0,1,3.34-2.23,18,18,0,0,1,6.78-2,2.13,2.13,0,0,0,.47.77,1.72,1.72,0,0,0,1.3.53,1.76,1.76,0,0,0,1.42-.68,2,2,0,0,0,.21-.38l.11-.2a1.81,1.81,0,0,0-.23-1.76,1.22,1.22,0,0,0-.7-.79,1.24,1.24,0,0,0-1,.05A1.94,1.94,0,0,0,3559.48,301.67Z"/><path class="cls-1" d="M3567.79,373.81c-2.1,1.68-4.71,1.9-7.31,2.18-4.5.49-9.86,1.25-14.07-.8-.73-.36-1.31.84-.63,1.25,4.13,2.54,9.15,2.32,13.83,2,2.71-.17,5.75-.18,8.22-1.46a37.28,37.28,0,0,0,5.39-3.78c1.07-.82.05-2.19-1-2.11C3570.39,371.26,3569.14,372.73,3567.79,373.81Z"/><path class="cls-1" d="M3547.91,297.49a26.15,26.15,0,0,1,4.94-5.51l.07-.08a2.1,2.1,0,0,0,1.3-.41,1.93,1.93,0,0,0-.44-3.32,1.89,1.89,0,0,0-1.9.25l-.17.16a1.7,1.7,0,0,0-.57.73,1.82,1.82,0,0,0-.12.92,1.8,1.8,0,0,0,.35.83l.12.14c-3.25,1.65-5.13,5.33-6.68,8.46-2.26,4.54-4.54,9.11-9.55,11a.37.37,0,0,0,.19.71c4-.68,6.65-3.69,8.65-7C3545.44,302.12,3546.51,299.71,3547.91,297.49Z"/><path class="cls-1" d="M3558,368.44a.71.71,0,0,0,.27,1.4c3.12-.51,6.72-.64,9.68-1.76a.85.85,0,0,0-.31-1.6C3564.44,366.54,3561.05,367.75,3558,368.44Z"/><path class="cls-1" d="M3553.69,329.74a2.12,2.12,0,0,0,1,0,2.4,2.4,0,0,0,.87-.41,1.76,1.76,0,0,0,.72-.78,2.09,2.09,0,0,0,.22-2,2.27,2.27,0,0,0-3.1-.94c-1.24-2.1-4.18-3.18-6.43-3.47a12.07,12.07,0,0,0-4.82.37c-1.2.35-5.58,2.77-6.4,1.32a.14.14,0,0,0-.27,0c-.26,2.24,4,1,4.91.79a16.17,16.17,0,0,1,6.74-.55c2.13.37,3.44,1.57,5,2.72a2,2,0,0,0,.54,2.55A1.78,1.78,0,0,0,3553.69,329.74Z"/><path class="cls-1" d="M3544.08,345.57a2.1,2.1,0,0,0,.73,1.69,2,2,0,0,0,1.53.43,1.64,1.64,0,0,0,1.35-.93,3.07,3.07,0,0,0,.57-.63,1.83,1.83,0,0,0-.8-2.76,2.63,2.63,0,0,0-2.83.76c-3.39-1.41-9.5-2.75-9.18-7.07l-.06,0C3532.52,341,3540.55,344.61,3544.08,345.57Z"/><path class="cls-1" d="M3539.08,385.29c2.48,2.19,6.18,4.08,9.58,3.53.76-.12.62-1.18-.07-1.28a23.81,23.81,0,0,1-4.66-.74,13,13,0,0,1-4.13-2.31C3539.32,384.1,3538.63,384.88,3539.08,385.29Z"/><path class="cls-1" d="M3528.73,315.78c0-4-2.42-7.11-4.65-10.26a24.06,24.06,0,0,1-3.42-6c-.83-2.44-.56-4.76-.49-7.2a2.17,2.17,0,0,0,1-.62l0-.05a2.32,2.32,0,0,0,.52-1,1.47,1.47,0,0,0,.26-.85,1.44,1.44,0,0,0-.89-1.34h0a2.12,2.12,0,0,0-2.47-.35,1.51,1.51,0,0,0-.76.86l-.24.28a1.67,1.67,0,0,0-.09,1.94,3.61,3.61,0,0,0,.33.44c-1.43,3.9.14,8.92,2.25,12.22,2.62,4.09,6.3,7.26,7.76,12.06C3528,316.3,3528.73,316.21,3528.73,315.78Z"/><path class="cls-1" d="M3536,359.81a2.32,2.32,0,0,0-.9-3.59,2.28,2.28,0,0,0-1-.15c.87-2.86.39-6.17-.24-9-.94-4.2-3.67-8.39-2.28-12.79.08-.25-.24-.47-.4-.24-2.37,3.19-1.33,6.74-.42,10.3a44.92,44.92,0,0,1,1.28,6.16,36.9,36.9,0,0,1-.08,5.95,2.35,2.35,0,0,0-1.12,1.54,2.43,2.43,0,0,0,.15,1.46,1.88,1.88,0,0,0,1.21,1.6,2.17,2.17,0,0,0,1.62.06A3,3,0,0,0,3536,359.81Z"/><path class="cls-1" d="M3496.33,329.05a2.32,2.32,0,0,0,1.32-1.41,45.15,45.15,0,0,0,4.71.84,46,46,0,0,0,6.7.88,14.71,14.71,0,0,0,5.47-1.14,17.51,17.51,0,0,1,7.33-1,.24.24,0,0,0,.11-.46,8.82,8.82,0,0,0-5.78-1.17c-2,.24-3.89,1.21-5.93,1.33-4.44.25-8.73-2-13.15-2a3.37,3.37,0,0,0-1.39-1.09,2,2,0,0,0-2.35.55,2.61,2.61,0,0,0-.86,1,2.67,2.67,0,0,0,.76,3.06A3,3,0,0,0,3496.33,329.05Z"/><path class="cls-1" d="M3495.64,371.17a.82.82,0,0,0,.54-.85.84.84,0,0,0-.92-.57,5,5,0,0,0-.8.26.65.65,0,0,0-.51.75.67.67,0,0,0,.75.51A4.17,4.17,0,0,0,3495.64,371.17Z"/><path class="cls-1" d="M3475.68,320.06c-1.35,0,.14-2.43.51-2.89a2.45,2.45,0,0,1,2.45-.84,1.37,1.37,0,0,0,1.12-2.24c-2.07-2.56-5.36,0-6.21,2.26a5.14,5.14,0,0,0-.28,3.73,2.23,2.23,0,0,0,2.47,1.18C3476.38,321.11,3476.39,320.07,3475.68,320.06Z"/><path class="cls-1" d="M3488.28,368c-1.88-1.95-4.21-3.41-6.1-5.38a33.9,33.9,0,0,1-9.4-22.34c0-.56-.87-.64-.88-.07a35.35,35.35,0,0,0,4.12,16.73c2.44,4.56,6.46,10.29,11.46,12.25A.75.75,0,0,0,3488.28,368Z"/><path class="cls-1" d="M3469.9,326.46a1,1,0,0,0,.77-1.15l0-.31a1.35,1.35,0,0,0-1.19-1.07,1.4,1.4,0,0,0-1.2.58,1.31,1.31,0,0,0,0,1.46,1.29,1.29,0,0,0,1.33.57Z"/><path class="cls-1" d="M3569.79,340.55a2.81,2.81,0,0,0,1.46-1.2c.69-1.16.66-3.18-.5-4.06-1-.73-2.05-.15-2.77.7a2.62,2.62,0,0,0-.73.45l-.13.14a6.19,6.19,0,0,0-2.85-.57c-2.74,0-5.08.12-7.61-1.15-3.83-1.93-7.81-7.63-12.51-7-.78.11-.64,1.12,0,1.28,4.69,1.1,7.68,5.15,11.9,7.24a11.59,11.59,0,0,0,5,1.32c1.89,0,3.79-.63,5.55-.17a2.57,2.57,0,0,0,.91,2.71,2.63,2.63,0,0,0,.57.31,1.67,1.67,0,0,0,1.73,0Z"/><path class="cls-1" d="M3487.24,349.53a2.62,2.62,0,0,0-1.73,1.64,2.75,2.75,0,0,0,1.74,3.4,2.7,2.7,0,0,0,2.6-.38,2,2,0,0,0,1.23-.43,1.86,1.86,0,0,0,0-3,3.19,3.19,0,0,0-.19-.48c.48-1,.77-2,1.23-3a20.88,20.88,0,0,1,2.35-3.68,30.13,30.13,0,0,1,7-6.38c5.69-3.79,12.35-5.77,18.67-8.23.21-.08.12-.44-.11-.39-7,1.51-13.92,3.6-20,7.46a31.5,31.5,0,0,0-7.3,6.32c-1.42,1.68-3.3,4.07-4,6.42A2,2,0,0,0,3487.24,349.53Z"/><path class="cls-1" d="M3523.68,309c-3.78-3.21-8.39-5.58-12.34-8.61-2-1.5-4-3.12-4.73-5.56a11.89,11.89,0,0,1-.21-4l.22-.18a3.09,3.09,0,0,0,1.14-2.08,3.11,3.11,0,0,0-5-2.76,3.13,3.13,0,0,0-1.14,2.09,3.23,3.23,0,0,0,.67,2.28,3.17,3.17,0,0,0,2.09,1.14,3.1,3.1,0,0,0,1.27-.13,11.22,11.22,0,0,0-.33,4c.34,2.06,1.82,3.68,3.32,5a78.13,78.13,0,0,0,6.92,5.34,41.2,41.2,0,0,0,7.49,4.72C3523.79,310.6,3524.27,309.53,3523.68,309Z"/><path class="cls-1" d="M3562.64,291.54a3.07,3.07,0,0,0,5.45-1.59,3.22,3.22,0,0,0-.66-2.26,3.08,3.08,0,0,0-4.33-.47,3.18,3.18,0,0,0-1.13,2.07,3.49,3.49,0,0,0,.26,1.57,30.61,30.61,0,0,0-4.16,3c-2.57,2-5.07,4-7.51,6.15a.5.5,0,0,0,.64.78c2.21-1.66,4.35-3.42,6.51-5.16,1.49-1.2,3-3.15,4.7-4.41Z"/><path class="cls-1" d="M3537.87,346.17a.3.3,0,0,0-.6.09,14,14,0,0,0,3.05,8.09c1.08,1.4,2.21,2.74,3.24,4.17.26.36.5.7.74,1a2.87,2.87,0,0,0-.49.87,2.57,2.57,0,0,0,.21,2.19,3.29,3.29,0,0,0,.9,1.81,2.92,2.92,0,0,0,4.77-1.31,3.91,3.91,0,0,0,.21-1.69l0-.36a1.21,1.21,0,0,0,0-.79l-.08-.16a2.23,2.23,0,0,0-2.27-1.66,3,3,0,0,0-1.43,0C3543,354.48,3539.32,351.23,3537.87,346.17Z"/><path class="cls-1" d="M507.7,267c.44-.09.88-.15,1.32-.23H510c8.46.13,16.92.22,25.39.32,3,0,3.2-5.33.23-5.54-2.17-.16-4.76-.27-7.6-.28l-9.31-.35c-5.81-.21-12.95.75-18.47-1.43-12.13-4.81-9.09-21.39-11.88-32.73-.37-1.49-2.19-1.72-2.63-.11A41.17,41.17,0,0,0,485,243.3c.05,3.47-.21,7-1.32,9.53-2.31,5.21-7.38,5.57-11.55,6.24-7.31,1.19-14.32-.2-21.6,0-2.73-.6-3.91,4.53-1.11,5.85,5.8,2.75,14.4,3.49,22.17,2.21,4.41,1.77,8,4.64,9.38,9.14,3.18,10.56-.41,23.18.61,34.1.37,4.05,5.55,3.87,6.47.27,2.12-8.28,1.62-17.83,1.24-26.37a52.5,52.5,0,0,0-.53-5.74C493,272.13,500.85,268.5,507.7,267Zm-20.06,7.3a14.15,14.15,0,0,0-2.83-4.68,18.52,18.52,0,0,0-6.1-4.37,25.87,25.87,0,0,0,4.23-2c3.07-1.88,4.53-5.23,5.1-9.13a25.53,25.53,0,0,0,5,7.69,15.19,15.19,0,0,0,6.75,4A29.06,29.06,0,0,0,487.64,274.32Z"/><path class="cls-1" d="M3657.5,874.78c.55-.12,1.1-.18,1.64-.29h1.16c3.08,0,6.17.08,9.25.12l22.31.29c3.71,0,4-6.63.28-6.9-2.69-.2-5.91-.33-9.44-.34l-11.58-.43c-7.2-.26-16.08.93-22.95-1.79-15.06-6-11.28-26.58-14.76-40.66-.46-1.86-2.71-2.15-3.27-.14a51.17,51.17,0,0,0-.9,20.65c.06,4.31-.26,8.72-1.64,11.84a10.79,10.79,0,0,1-5.43,5.61h0c-2.8,1.34-6,1.68-8.92,2.15-9.09,1.47-17.8-.25-26.84,0-3.4-.75-4.86,5.63-1.39,7.27,7.21,3.42,17.9,4.34,27.55,2.75,5.48,2.19,10,5.76,11.66,11.36,3.95,13.12-.51,28.8.76,42.37.46,5,6.89,4.81,8.05.33,2.62-10.29,2-22.15,1.53-32.77a67,67,0,0,0-.65-7.12C3639.27,881.13,3649,876.62,3657.5,874.78Zm-24.93,9.07a17.84,17.84,0,0,0-3.51-5.82,23.29,23.29,0,0,0-7.59-5.43,32.38,32.38,0,0,0,5.26-2.52,12,12,0,0,0,4.49-5.06,21.06,21.06,0,0,0,1.84-6.28,34.12,34.12,0,0,0,4.86,8c.46.55.92,1.09,1.41,1.59a18.84,18.84,0,0,0,8.38,5C3641.65,875.68,3636.33,879.1,3632.57,883.85Z"/><path class="cls-1" d="M3675.1,207.71c.42-.09.84-.14,1.26-.22h.89q12.11.18,24.23.31c2.85,0,3.05-5.09.22-5.29-2.07-.16-4.54-.26-7.25-.27l-8.89-.33c-5.53-.2-12.35.72-17.62-1.37-11.57-4.58-8.67-20.41-11.34-31.22-.35-1.43-2.08-1.65-2.51-.11a39.39,39.39,0,0,0-.69,15.85c0,3.32-.2,6.7-1.26,9.1-2.21,5-7,5.32-11,6-7,1.13-13.67-.19-20.61,0-2.61-.57-3.73,4.33-1.06,5.59,5.53,2.62,13.74,3.33,21.15,2.11,4.21,1.68,7.66,4.42,9,8.72,3,10.08-.39,22.12.58,32.53.36,3.87,5.3,3.7,6.18.26,2-7.9,1.54-17,1.18-25.16a52.65,52.65,0,0,0-.5-5.47C3661.1,212.59,3668.56,209.13,3675.1,207.71Zm-19.15,7a13.55,13.55,0,0,0-2.69-4.47,18,18,0,0,0-5.82-4.17,24.62,24.62,0,0,0,4-1.93c2.93-1.8,4.32-5,4.87-8.71a24.36,24.36,0,0,0,4.81,7.33,14.4,14.4,0,0,0,6.43,3.8A27.78,27.78,0,0,0,3656,214.68Z"/></svg>