<svg id="Layer_1" data-name="Layer 1" xmlns="http://www.w3.org/2000/svg" viewBox="0 0 2705.46 1980.19"><defs><style>.cls-1{fill:#f6f3e1;}</style></defs><path class="cls-1" d="M420.11,1603.18a42.82,42.82,0,0,0,7.34,1.92q4.92,1,10.94,1.69a93.66,93.66,0,0,0,11.07.72l-29.35,2.65Zm163.34,4.33v12H420.11v-12Zm-129.9,11.31v.72q-14.67.24-22.85,8.54t-8.18,22.73v1.69l-2.41.24v-33.92Zm24.3,139.77v17.56H458.6v-2.41h3.13a14.58,14.58,0,0,0,10.7-4.45,15.44,15.44,0,0,0,4.69-10.7Zm48.59-150.12v167.68H477.12V1608.47Zm-.72,150.12h.72a15.44,15.44,0,0,0,4.69,10.7,14.58,14.58,0,0,0,10.71,4.45H545v2.41H525.72Zm57.73-139.77v33.92l-2.4-.24v-1.69q0-14.43-8.18-22.73T550,1619.54v-.72Zm0-15.64v7l-29.34-2.65a92.43,92.43,0,0,0,11.18-.72q5.9-.72,11-1.69A35.47,35.47,0,0,0,583.45,1603.18Z"/><path class="cls-1" d="M660.2,1625.31h-.73a15.46,15.46,0,0,0-4.69-10.7,14.58,14.58,0,0,0-10.7-4.45H641v-2.41H660.2Zm0,133.28v17.56H641v-2.41h3.13a14.58,14.58,0,0,0,10.7-4.45,15.44,15.44,0,0,0,4.69-10.7Zm48.59-150.84v168.4H659.47v-168.4Zm67.36,0V1620H708.07v-12.27Zm-12.75,79.39v12H708.07v-12Zm7.94,76.74,9.62,12.27H708.07v-12.27Zm19.48-43.54-9.14,55.81h-52l8.66-12.27a46.1,46.1,0,0,0,21.53-5.17,52.11,52.11,0,0,0,17.44-14.92,65.6,65.6,0,0,0,11.07-23.45Zm-27.42-60.63v27.91H735v-.48a26.31,26.31,0,0,0,18.77-7.7q7.44-7.45,7.21-18.76v-1Zm0,39v27.9H761v-1.2q0-11.31-7.33-18.65T735,1699.17v-.48Zm12.75-79.39V1653h-2.41v-1.93q0-14.43-8.18-22.73t-22.85-8.54v-.48Zm0-15.88v7l-29.35-2.65A92.59,92.59,0,0,0,758,1607q5.88-.72,10.94-1.68A36.35,36.35,0,0,0,776.15,1603.42Z"/><path class="cls-1" d="M875,1758.59c-1.44,3.21-1.77,5.93-1,8.18a9.62,9.62,0,0,0,4.21,5.17,11.43,11.43,0,0,0,5.89,1.8h2.17v2.41H832.68v-2.41h2.16a22.37,22.37,0,0,0,11.43-3.49q5.9-3.48,9.74-11.66ZM926.74,1602v37.53l-59.18,135.92H848.08l62.78-137.61c.8-1.44,1.89-3.73,3.25-6.85s2.81-6.54,4.33-10.23,2.89-7.22,4.09-10.58a34.1,34.1,0,0,0,2.05-8.18Zm19.73,122.21v12H878.39v-12ZM926.74,1602,1010,1774.7H952.24l-46.43-111.14Zm18.53,156.61H1002q4.08,8.17,9.86,11.66a21.78,21.78,0,0,0,11.31,3.49h1.92v2.41H934v-2.41h2.16a11.4,11.4,0,0,0,8.54-4Q948.4,1765.81,945.27,1758.59Z"/><path class="cls-1" d="M1198.34,1625.31h-.72a15.52,15.52,0,0,0-4.7-10.7,14.58,14.58,0,0,0-10.7-4.45h-3.13v-2.41h19.25Zm0,133.28v17.56h-19.25v-2.41h3.13a14.58,14.58,0,0,0,10.7-4.45,15.5,15.5,0,0,0,4.7-10.7Zm48.59-150.84v168.4h-49.31v-168.4Zm66.88,78.19v12h-69.28v-12Zm-67.6-60.63v-17.56h19.24v2.41h-3.12a14.6,14.6,0,0,0-10.71,4.45,15.46,15.46,0,0,0-4.69,10.7Zm0,133.28h.72a15.44,15.44,0,0,0,4.69,10.7,14.6,14.6,0,0,0,10.71,4.45h3.12v2.41h-19.24Zm66.16-133.28h-.73a14.39,14.39,0,0,0-4.57-10.7,15,15,0,0,0-10.82-4.45h-3.13v-2.41h19.25Zm0,133.28v17.56h-19.25v-2.41h3.13a15,15,0,0,0,10.82-4.45,14.37,14.37,0,0,0,4.57-10.7ZM1361,1607.75v168.4h-49.32v-168.4Zm-.72,17.56v-17.56h19.24v2.41h-3.12a14.58,14.58,0,0,0-10.71,4.45,15.46,15.46,0,0,0-4.69,10.7Zm0,133.28h.72a15.44,15.44,0,0,0,4.69,10.7,14.58,14.58,0,0,0,10.71,4.45h3.12v2.41h-19.24Z"/><path class="cls-1" d="M1538.26,1604.38q31,0,53.52,10.47t34.53,30q12,19.48,12,47.15,0,27.42-12,47t-34.53,30.07q-22.48,10.47-53.52,10.47t-53.41-10.47q-22.36-10.47-34.4-30t-12-47.15q0-27.42,12-47t34.4-30.07Q1507.23,1604.38,1538.26,1604.38Zm0,163.11q14.91,0,25.38-9t16-25.87q5.52-16.83,5.53-40.65t-5.53-40.66q-5.55-16.83-16-25.86t-25.38-9q-14.68,0-25.14,9t-16,25.86q-5.53,16.85-5.53,40.66t5.53,40.65q5.54,16.85,16,25.87T1538.26,1767.49Z"/><path class="cls-1" d="M1716.76,1607.75v14.44H1716a11.19,11.19,0,0,0-3.73-8.67,13,13,0,0,0-9-3.36h-3.85v-2.41Zm48.59,0V1713.6q0,16.85,5.3,28.87t15,18.4q9.75,6.38,23.46,6.38,14,0,23.69-6a39.27,39.27,0,0,0,15-17.32q5.28-11.29,5.29-27.18v-109h20.93v106.57q0,20.21-8.42,34.88a55.32,55.32,0,0,1-24.54,22.5q-16.12,7.82-39.21,7.82-29.36,0-48.47-7.82t-28.27-22.38q-9.15-14.55-9.14-34.76V1607.75Zm16.6,0v2.41h-3.85a13,13,0,0,0-9,3.36,11.15,11.15,0,0,0-3.73,8.67h-.48v-14.44Zm71.93,0v14.44h-.72a11.19,11.19,0,0,0-3.73-8.67,13,13,0,0,0-9-3.36h-3.85v-2.41Zm36.81,0v2.41h-3.85a13,13,0,0,0-9,3.36,11.15,11.15,0,0,0-3.73,8.67h-.48v-14.44Z"/><path class="cls-1" d="M2014.34,1604.38c3.52,0,8.25.17,14.19.48s12.11.77,18.52,1.33,12,1.12,16.84,1.68,7.94,1.17,9.38,1.81l-4.81,36.32h-2.4a26.11,26.11,0,0,0-10.23-21.41q-10.23-8.17-28-8.18-14.68,0-23.34,5.65t-9.38,14.56q-.72,8.66,5.89,13.47a90.36,90.36,0,0,0,15.52,8.9l45,20.93a48.63,48.63,0,0,1,21.17,17.56q7.7,11.55,6.49,29.11-1.68,25.74-21.53,39.33t-54,13.6a135.13,135.13,0,0,1-25.26-2.17,93.17,93.17,0,0,1-19.36-5.65q-8.07-3.5-12.39-7.82-2.65-6-2.17-14.68a68.07,68.07,0,0,1,3.25-17.2,45.52,45.52,0,0,1,6.62-13.59h2.16a44.32,44.32,0,0,0,5.3,23.82,45.85,45.85,0,0,0,18,18.28q12,7,28.87,7,17.31,0,25.62-7.22t8.3-16.36a19.88,19.88,0,0,0-5.9-14q-5.89-6.26-19.6-12.51l-39.22-18.28q-16.59-7.7-24.17-21.17t-5.42-30.56q1.68-13.95,8.9-23.57a44.87,44.87,0,0,1,19.13-14.56Q1998.22,1604.39,2014.34,1604.38Zm59.42,2.41-.73,5h-34.88v-5Z"/><path class="cls-1" d="M2170.94,1625.31h-.72a15.46,15.46,0,0,0-4.69-10.7,14.59,14.59,0,0,0-10.7-4.45h-3.13v-2.41h19.24Zm0,133.28v17.56H2151.7v-2.41h3.13a14.59,14.59,0,0,0,10.7-4.45,15.44,15.44,0,0,0,4.69-10.7Zm48.6-150.84v168.4h-49.32v-168.4Zm67.36,0V1620h-68.08v-12.27Zm-12.75,79.39v12h-55.33v-12Zm7.93,76.74,9.63,12.27h-72.89v-12.27Zm19.49-43.54-9.14,55.81h-52l8.66-12.27a46.1,46.1,0,0,0,21.53-5.17,52.11,52.11,0,0,0,17.44-14.92,65.42,65.42,0,0,0,11.06-23.45Zm-27.42-60.63v27.91h-28.39v-.48a26.27,26.27,0,0,0,18.76-7.7q7.45-7.45,7.22-18.76v-1Zm0,39v27.9h-2.41v-1.2q0-11.31-7.34-18.65t-18.64-7.57v-.48Zm12.75-79.39V1653h-2.41v-1.93q0-14.43-8.18-22.73t-22.85-8.54v-.48Zm0-15.88v7l-29.35-2.65a92.43,92.43,0,0,0,11.18-.72q5.89-.72,10.95-1.68A36.35,36.35,0,0,0,2286.9,1603.42Z"/><path class="cls-1" d="M103.17,1452.17v35H50v-4.79h7.67a36.19,36.19,0,0,0,23-7.91q10.06-7.89,12-22.27Zm25.39-307.08h4.79l9.58,28.26-28.26,313.79H88.8Zm-11.5,314.74v2.4a21.35,21.35,0,0,0,5.51,14.13q5.5,6.47,13.18,6.47h7.18v4.31H113.71v-27.31Zm16.29-314.74,138,298.46-11,50.3-136-295.11Zm264.44,0,3.84,32.1L281.38,1445q-7.19,16.29-11,27.55a118.17,118.17,0,0,0-5.27,21.32H260.3l-6.7-30.18Zm5.75,314.74h3.36v27.31H377.67v-4.31h7.19a16.57,16.57,0,0,0,13.41-6.47,21.9,21.9,0,0,0,5.27-14.13v-2.4Zm-1.43-314.74,41.19,342.05H405.94l-26.35-290.31,18.2-51.74Zm26.82,307.08H439q2.4,14.37,12.46,22.27a35.54,35.54,0,0,0,22.51,7.91h7.67v4.79h-52.7Z"/><path class="cls-1" d="M663.19,1145.09q51.27,0,90.07,21.8a154.86,154.86,0,0,1,60.6,61.08q21.79,39.29,21.8,91.5t-21.8,91.5a154.86,154.86,0,0,1-60.6,61.08q-38.81,21.81-90.07,21.8-50.78,0-89.58-21.8A154.79,154.79,0,0,1,513,1411q-21.81-39.27-21.8-91.5T513,1228a154.79,154.79,0,0,1,60.6-61.08Q612.42,1145.09,663.19,1145.09Zm0,334.39q40.72,0,71.15-20.13t47.42-56q17-35.92,17-83.83t-17-83.84q-17-35.93-47.42-56.05t-71.15-20.12q-40.23,0-70.66,20.12t-47.42,56.05q-17,35.94-17,83.84t17,83.83q17,35.94,47.42,56T663.19,1479.48Z"/><path class="cls-1" d="M886.44,1151.8v28.74H885a22.24,22.24,0,0,0-7.42-17.25,25.9,25.9,0,0,0-18-6.7H852v-4.79Zm29.7,0v210.78q0,34.5,12.69,60.84t35.7,41q23,14.63,53.17,14.62,32.08,0,56-13.9a97.57,97.57,0,0,0,37.37-38.56q13.41-24.68,13.41-57.73v-217h22.52v217q0,37.37-16,65.39a113,113,0,0,1-45.27,43.84q-29.24,15.81-68,15.81-39.76,0-69.7-15.57t-46.47-43.6q-16.53-28-16.53-65.39V1151.8Zm33.06,0v4.79h-7.67a25.82,25.82,0,0,0-18,6.7,22.19,22.19,0,0,0-7.43,17.25h-1V1151.8Zm176.77,0v28.74h-1.44a22.24,22.24,0,0,0-7.42-17.25,25.9,25.9,0,0,0-18-6.7h-7.66v-4.79Zm54.13,0v4.79h-7.66a25.86,25.86,0,0,0-18,6.7,22.21,22.21,0,0,0-7.42,17.25h-1V1151.8Z"/><path class="cls-1" d="M1235.2,1453.13v34h-39.77v-4.79h9.11a29.43,29.43,0,0,0,29.22-29.22Zm-1-308.52,21.08,26.83.48,315.7h-22V1204.49q0-24.43-4.31-59.88Zm0,0,278.33,297,4.32,52.22-278.34-296.54Zm21.56,308.52a29.43,29.43,0,0,0,29.22,29.22h9.1v4.79h-39.76v-34Zm200.72-301.33h39.77v34h-1a30.07,30.07,0,0,0-8.86-20.84,28.35,28.35,0,0,0-20.84-8.38h-9.11Zm60.37,0v280.73q0,15.33.95,29.46t3.36,31.86h-4.31l-21.56-25.39V1151.8Zm38.32,0v4.79h-8.62A28.55,28.55,0,0,0,1526,1165a29.53,29.53,0,0,0-9.1,20.84h-1.44v-34Z"/><path class="cls-1" d="M1562.39,1142.69a86.91,86.91,0,0,0,14.61,3.84q9.81,1.92,21.8,3.35a185.59,185.59,0,0,0,22,1.44l-58.45,5.27Zm277.38,8.63v14.37H1562.39v-14.37Zm-244.32,12.93v1.44a29.08,29.08,0,0,0-20.12,8.62,27.32,27.32,0,0,0-8.15,20.12v8.15l-4.79.48v-38.81Zm91.5,287.92v35h-38.33v-4.79h6.23a29.08,29.08,0,0,0,21.32-8.86,30.87,30.87,0,0,0,9.34-21.32Zm29.7-298.94v333.91h-31.14V1153.23Zm-1.44,298.94h1.44a30.78,30.78,0,0,0,9.34,21.32,29.05,29.05,0,0,0,21.32,8.86h6.23v4.79h-38.33Zm124.56-309.48v13.9l-58.45-5.27a183.46,183.46,0,0,0,22.28-1.44q11.73-1.44,21.8-3.35T1839.77,1142.69Zm0,21.56v38.81l-4.79-.48v-8.15a27,27,0,0,0-8.39-20.12,29.45,29.45,0,0,0-19.88-8.62v-1.44Z"/><path class="cls-1" d="M1860.37,1452.17q-3.36,9.58-1,16.29a19.85,19.85,0,0,0,7.91,10.3,20.37,20.37,0,0,0,11.25,3.59h4.32v4.79h-96.3v-4.79h4.32q11,0,22.75-6.95t19.4-23.23Zm103-307.08,4.31,33.53L1847.44,1485.7h-28.75l122.64-291.27q5.26-12,8.86-20.6t6.23-16.76c1.75-5.43,2.64-9.42,2.64-12Zm67.55,211.27v14.37H1881v-14.37Zm-67.55-211.27,141.8,339.18h-40.72L1953.79,1190.6Zm89.1,307.08h39.29q7.18,16.29,19.16,23.23t23,6.95h3.84v4.79H2030v-4.79h4.31q9.09,0,16.29-7.91T2052.47,1452.17Z"/><path class="cls-1" d="M2175.59,1186.77h-1.44a30.85,30.85,0,0,0-9.34-21.32,29.07,29.07,0,0,0-21.32-8.86h-6.23v-4.79h38.33Zm0,265.4v35h-38.33v-4.79h6.23a29.07,29.07,0,0,0,21.32-8.86,30.83,30.83,0,0,0,9.34-21.32Zm29.7-300.37v335.34h-31.14V1151.8Zm-1.44,35v-35h38.33v4.79H2236a29.05,29.05,0,0,0-21.32,8.86,30.85,30.85,0,0,0-9.34,21.32Zm0,265.4h1.44a30.83,30.83,0,0,0,9.34,21.32,29.05,29.05,0,0,0,21.32,8.86h6.23v4.79h-38.33Z"/><path class="cls-1" d="M2307.81,1453.13v34h-39.76v-4.79h9.1a29.43,29.43,0,0,0,29.22-29.22Zm-1-308.52,21.08,26.83.48,315.7h-22V1204.49q0-24.43-4.31-59.88Zm0,0,278.34,297,4.31,52.22-278.34-296.54Zm21.56,308.52a29.43,29.43,0,0,0,29.22,29.22h9.1v4.79H2327v-34Zm200.73-301.33h39.76v34h-1a30.07,30.07,0,0,0-8.86-20.84,28.33,28.33,0,0,0-20.84-8.38h-9.1Zm60.36,0v280.73q0,15.33,1,29.46t3.35,31.86h-4.31l-21.56-25.39V1151.8Zm38.32,0v4.79h-8.62a28.55,28.55,0,0,0-20.6,8.38,29.53,29.53,0,0,0-9.1,20.84h-1.44v-34Z"/><path class="cls-1" d="M1412.65,142.21c-32,79.49-49,217.06-49,381.3,0,158.84,8.71,299,22,382.29-.59-63.09-.93-140.44-.93-224,0-136.48.92-256.35,2.3-324.59,1.38,68.24,2.29,188.11,2.29,324.59,0,83.61-.34,161-.93,224,13.26-83.33,22-223.45,22-382.29C1410.3,359.27,1396.83,223.56,1412.65,142.21Z"/><path class="cls-1" d="M1557.11,986.12c-20.86-225.47-19.93-456.51,0-692.41-25.19,76.38-41.66,203-41.66,346.2,0,111.32,10,212.55,26.2,288H1236.87c16.25-75.45,26.21-176.68,26.21-288,0-149.92-18-281.59-45.24-356.55a3589.54,3589.54,0,0,1,0,713.11c4.45-12.28,8.66-26.1,12.58-41.25H1548.1Q1552.38,971.78,1557.11,986.12Z"/></svg>