<svg id="Layer_1" data-name="Layer 1" xmlns="http://www.w3.org/2000/svg" viewBox="0 0 1176.02 1323.62"><defs><style>.cls-1{fill:#84806e;}</style></defs><path class="cls-1" d="M829.62,469.07c-39.54,0-78.19.09-116.85-.05-14.17,0-22.72-8.52-22-21.14.59-10.56,8.3-18.49,19.57-18.55q69.9-.36,139.81,0c13.82.08,20.27,8.31,20.27,24.13V748.11q0,206.61,0,413.26c0,20.94-5.81,26.86-26.37,26.86H178.62c-21.52,0-27.23-5.82-27.23-27.29V456.78c0-22.25,5.46-27.58,28.15-27.59H306.87c15.93,0,24.41,7.25,24.17,20.28-.23,12.45-8.56,19.5-23.68,19.54-38.2.09-76.4,0-115.36,0v678.68H829.62Z"/><path class="cls-1" d="M670.65,409.84c0,36.6-.27,73.21.32,109.81.08,5.23,3.13,11.63,6.9,15.39,16.28,16.22,17.22,42.19,1.24,58.25-15.47,15.55-42,15.33-57.22-.48-15.41-16-15.08-41.94,1.72-56.87,5.62-5,7.36-9.77,7.33-16.91-.24-69,.13-138.11-.23-207.15-.3-56.82-34.66-103-86.51-117.59-76.39-21.44-151.12,32.64-152.72,112.42-1.49,71.93-.45,143.92-.16,215.88,0,3.82,2.46,8.55,5.29,11.29,17.86,17.2,19.5,42,3.38,58.85-15.59,16.31-42.42,16.17-58-.31-15.93-16.81-13.93-41.44,4-58.87,3.19-3.11,5-9.12,5-13.8.33-69.46.05-138.93.31-208.4.31-84.83,57.56-149.81,141.59-161.22,81.91-11.12,165.3,49.6,174.58,131.5,4.78,42.23.84,85.44.84,128.22Z"/><path class="cls-1" d="M438.75,694.16c58.66.87,86.86,72.53,86.86,72.53s13.51-66.37,93.58-69.47c51.39-2,85.59,38.39,98.68,87.8,13.38,50.49-.75,94.49-31.85,134.13-41.62,53-95.77,90.62-154.52,122-5.56,3-15.43,3-21,.06-58.78-31.32-113-68.86-154.63-121.87C318.67,872,306,819.77,332.46,763.27,353.07,719.34,388.36,695.71,438.75,694.16Z"/><path class="cls-1" d="M510.07,469.07c-25.33,0-50.65.08-76,0-14.77-.07-23.14-7.55-23-20.12s8.5-19.66,23.44-19.69q76.61-.13,153.2,0c14.64,0,23,7.57,23,20.2-.1,12.45-8.48,19.6-23.42,19.65C561.55,469.13,535.81,469.07,510.07,469.07Z"/></svg>