<svg id="Layer_1" data-name="Layer 1" xmlns="http://www.w3.org/2000/svg" viewBox="0 0 4173.44 684.81"><defs><style>.cls-1{fill:#84806e;}.cls-2{fill:none;stroke:#87826e;stroke-miterlimit:10;stroke-width:4px;}</style></defs><path class="cls-1" d="M2150.05,363c.21-2.4.19-4.92,1.57-7a12.59,12.59,0,0,1,1.86-2.16c.85-.47,1.71-.93,2.57-1.36a12.87,12.87,0,0,0,4.93-3.52c1.56-1.93,4-2.24,6.32-2.94a14.88,14.88,0,0,0,5.51-2.75c3.65-3.13,2.06-7.84,4.56-11.56,1.81-2.7,4.36-4.83,5.51-7.79.87-.79,1.7-1.57,2.46-2.35a23.28,23.28,0,0,0,3.69-4.82,14.59,14.59,0,0,0,1.27-2.95,19.27,19.27,0,0,0,.62-4.47,6.15,6.15,0,0,1,.5-1.92,10.64,10.64,0,0,0,.65-1.83,56,56,0,0,0,5.41-2.91c3.35-2,4.72-4.95,6.53-8.3a54.15,54.15,0,0,1,7.1-9.8c9.4-10.7,19.28-21.21,31.64-28.48,5.18-3,10.64-6,14.77-10.43,4.65-5,6.25-12.07,11.21-16.8,4.55-4.34,10.49-6.9,15.27-11a63.68,63.68,0,0,0,11-13c5.35-7.88,10.15-16.74,17.79-22.56l.15-.12a31.76,31.76,0,0,1,3.93-2.53c1.76-1,1.16-3.33-.48-4-7.38-2.84-14.82.06-20.66,4.83a50.16,50.16,0,0,0-12.1,8.44c-3.3,3.32-5.43,7.47-8.07,11.29a42.14,42.14,0,0,1-10.37,10.35c-7,5-15.41,8-21.34,14.4-3.31,3.57-5.25,8-7.83,12a38.36,38.36,0,0,1-8.86,9.47c-.59.47-1.19.91-1.81,1.35a74.7,74.7,0,0,0-7.24,4.63,120.54,120.54,0,0,0-12.78,8.13,1.84,1.84,0,0,0-.61.79,32.79,32.79,0,0,1-10.61,3.1A16.34,16.34,0,0,1,2192,264a21.51,21.51,0,0,1-2.14-1.6,14.21,14.21,0,0,0-6.31-2.33c-2.08-1.33-4.31-2.83-6.67-2.89a8.51,8.51,0,0,0-3.3.76,14,14,0,0,1-5.51,1.13c-3.07,0-6.24-1-9.29-.28-5.5,1.3-10.13,6.79-12.81,11.46a1.66,1.66,0,0,0-.15,1.3,13.18,13.18,0,0,0-3.62,7.15,6.13,6.13,0,0,0,2.35,7,37.7,37.7,0,0,0,12.64,6.65,25.79,25.79,0,0,0,7.1.64c6,1.19,12.57,1.91,16.54-3a17.09,17.09,0,0,0,2.45-4.27c.8-1.93,1.11-4.25,2.86-5.57,2.77-2.11,6.81-2.26,10.19-3.23a181.9,181.9,0,0,1-14.74,14.78,76.42,76.42,0,0,1-7.46,6.11c-2.18.68-4.4,1.26-6.55,2.05a29.23,29.23,0,0,0-2.79,1.19,24.72,24.72,0,0,0-4.28,1,11.63,11.63,0,0,0-4.4,2.72c-1.15,1.2-1.92,2.91-3.21,4-1.67,1.35-3.93.93-5.93.79a36.81,36.81,0,0,0-18.89,3.54,10,10,0,0,1-6.71.78c-2.12-.48-4.17-1.21-6.23-1.87-6.78-2.16-15.24-2.8-20.74,2.54l-.21.25a19.44,19.44,0,0,1-5.49-3.1,29.72,29.72,0,0,1-6.38-5.82c-3.79-5.25-5.76-11.89-7.25-18.08a2.51,2.51,0,0,0-.47-1,17.52,17.52,0,0,0,6.57-5.4c2.39-3.41,3.43-8,3.84-12.44a24.75,24.75,0,0,0-.29-11.69c-.94-3.49-2.68-7.46-5.36-10a5.34,5.34,0,0,0-3.05-1.48c-.19-5.33-2.48-10.54-7.71-12.75-7.19-3-14.7,1-21.48,3.12-2.61.81-6.77.65-8.83,2.82-3.63-2.91-8.55-2.36-12.11.47a18.63,18.63,0,0,0-4.53,5.78c-1.34,2.43-2.29,5.19-4.55,6.93s-5.15,2.4-7.68,3.56a18.22,18.22,0,0,0-10.82,15.74,17.65,17.65,0,0,0,3.81,11.62c-4.39,3.14-6.5,9.75-6.77,14.78-.39,6.93,2.33,12.64,4.69,18.79v0a22.29,22.29,0,0,0-.41,3.69,15.74,15.74,0,0,0,.92,6.11c2.75,7.54,10.24,9.64,17.49,9.58a21.08,21.08,0,0,0,9.59-.65,8.13,8.13,0,0,0,1.37-.61l1.26-.17c.49,0,1-.07,1.47-.12a12.17,12.17,0,0,1-.9,1.14.4.4,0,0,0-.41-.11c-3.54.92-6.66,3-10.22,4-3.84,1.05-7.8,1.12-11.38-.81-3.17-1.72-6-4.24-8.9-6.4s-5.69-4.38-8.53-6.58q-5.6-4.35-10.89-9-3-2.62-5.87-5.38c-2.41-2.31-6.66-5.37-7.11-8.79-.12-1-.29-1.94-.5-2.89A19.09,19.09,0,0,0,1967,294a1.1,1.1,0,0,0,0-1.31,74.07,74.07,0,0,0-13.92-14c-3.65-2.87-9.37-6.34-14.1-3.77-2.36,1.28-3,3.9-3.43,6.35a37.55,37.55,0,0,0-.42,9.82c.33,3.81,1.11,8.43,4.07,11.08a1.17,1.17,0,0,0,0,.88,16.18,16.18,0,0,0,5.61,7.41,16.65,16.65,0,0,0,4.28,2.19c1.46.48,3.19.61,4.49,1.45a5.54,5.54,0,0,0,1,2.6,21.81,21.81,0,0,0,3.83,3.94,39.76,39.76,0,0,0,7.78,5.18c6.69,3.5,13.93,5.92,19.72,10.93a38.7,38.7,0,0,1,7.22,8.36l.48.78a15.46,15.46,0,0,0,1.1,4.35,11.23,11.23,0,0,0,.7,1.23c-4.79,0-9.6.59-14.37-.64-7-1.81-13.95-4-21.2-4.76-7.41-.74-14.43,1-21.77,1.62a19.43,19.43,0,0,1-11.3-2.08,55.09,55.09,0,0,1-4-4.22,107.35,107.35,0,0,0-8.61-8.72c-3.83-3.5-5.1-8.39-7-13.05-.4-1-.82-1.95-1.24-2.92q-2.58-6-5.51-11.78c-2.06-4.06-4.18-8.09-7.48-11.29a33.59,33.59,0,0,1-1.73-3,38.45,38.45,0,0,0-3.54-6.29c-2.33-3.14-5.57-5.63-9.56-5.75a23.34,23.34,0,0,0-8.34-.87,35,35,0,0,0-10.13,1.25,14.62,14.62,0,0,0-6.93,4.55c-1.77,2.22-1.86,4.23-.86,6.82a31,31,0,0,0,11.94,14.59,1.59,1.59,0,0,0,.54.79,32.27,32.27,0,0,0,19.38,6.81c1.62.41,3.31.63,5,.94a12.71,12.71,0,0,1,4.22,3.25c2.7,3.08,4.35,7.32,5.74,11.21,2.37,6.61,5.54,12.08,10.78,16.84a67,67,0,0,0,12.18,8.95,4.93,4.93,0,0,1,.72.89c1.15,1.73,0,2.49-1.14,3.71-1.82,1.94-3.73,3.78-5.73,5.54-3.6,3.17-7.61,5.79-11.34,8.8-3.35,2.71-6.18,6-7.35,10.2a48.62,48.62,0,0,0-1.12,8.19c-.43,2.19-.85,4.39-1.49,6.51-2,4.63-6.21,8.41-9.68,11.91q-4.54,4.57-9.44,8.78c0-.32.09-.64.13-1,.71-5.78.72-11.78-1.54-17.24-3.49-8.44-11.85-13.38-20.14-16.24-9.52-3.29-20.7-5.17-30.26-1.09a22.55,22.55,0,0,0-7.16,4.82h0a27.48,27.48,0,0,0-3.11,1.68,46.85,46.85,0,0,0-10.57-9.84c-5.41-3.77-11.52-6.16-18.17-4.91-12.32,2.29-19.67,14.09-28.86,21.42-4.64,3.69-9,7.37-12,12.52a31.76,31.76,0,0,0-4.56,15.29,27.24,27.24,0,0,0,11.51,23.2,82.79,82.79,0,0,0-8.91,17.13c-2.3,6-3.36,12.46-2,18.83l0,.06a23.71,23.71,0,0,0,.55,5.62c2.25,10,11.28,17.66,18.77,23.89a60,60,0,0,0,13.84,9c3.83,1.71,8.67,2.84,12.4.28a10.15,10.15,0,0,0,3.35-4.44,18.76,18.76,0,0,0,1.58,7.13c2.23,5,6.78,7.86,12,9,5.52,1.23,11.24.92,16.72,2.43,5.74,1.58,10.94,3.27,17,2.1,10.49-2,21.8-10.4,24-21.29a22.44,22.44,0,0,0,.11-9.11,6.75,6.75,0,0,0,1.64-.44c2.4-1,4.12-3.35,5.68-5.29a30.15,30.15,0,0,0,4.69-7.71c1.06-2.63,1.92-5.22,3.73-7.46a31.66,31.66,0,0,1,2.63-2.8,45.07,45.07,0,0,0,2.74,4.95c2.26,3.53,5.68,7.14,10.21,7.05a10.23,10.23,0,0,0,5.24-1.87,18.43,18.43,0,0,0-2.6,6.82c-.89,5.42,1.34,10.31,5.07,14.16,3.94,4.06,8.89,6.94,12.63,11.22,3.93,4.47,7.35,8.74,13,11.07,9.88,4.06,23.93,3.29,31.73-4.61a22.1,22.1,0,0,0,5.1-7.55,7.36,7.36,0,0,0,1.62.55c2.53.5,5.28-.54,7.66-1.31a30.57,30.57,0,0,0,8.14-3.86c2.34-1.62,4.47-3.31,7.23-4.19a48.37,48.37,0,0,1,6.56-1.38c4.39-.72,8.87-1.52,12.59-4.14,4.38-3.07,8.13-8.21,10.93-12.72s4.43-9.31,3.88-14.53a21.78,21.78,0,0,0-6.22-12.83c3.26-3.39,7.15-5.95,10.43-9.43a33,33,0,0,0,7.88-14.37,32.2,32.2,0,0,0-6-27.28,34.21,34.21,0,0,0-5.12-5.29,49.6,49.6,0,0,0-10.93-9.42c-.33-2.08-1.83-4.42-2.4-6a7.56,7.56,0,0,1-.43-2.59l0,0a21.75,21.75,0,0,0,2.74-3.29,24.23,24.23,0,0,0,1.65-4.1c1-3.08,1.73-7,4.64-8.93a7.38,7.38,0,0,1,3.63-1.09,28.47,28.47,0,0,0,3.33,0l.85,0,.06.39c1.1,5.81,7.45,7.76,12.87,8.71a61.59,61.59,0,0,0-2.77,12.23,24.44,24.44,0,0,0,1.9,13.64l0,0a17,17,0,0,0,1.38,3.86c3.34,6.62,11.07,10.46,17.45,13.53a43.75,43.75,0,0,0,11.36,3.94c3,.52,6.62.47,8.79-2a5.66,5.66,0,0,0,1.07-1.81c.21-.17.42-.37.62-.56a9.88,9.88,0,0,0,5.56,6.88c4.79,2.33,11.22,2.1,16.37,1.36a49.17,49.17,0,0,0,7.81-1.79,17.73,17.73,0,0,0,7.14-1.56,24.8,24.8,0,0,0,9.59-8.17,27,27,0,0,0,1.86-2.15c2.46-3.22,3.72-7.53,2.45-11.49a9.68,9.68,0,0,0-.53-1.31,14.07,14.07,0,0,0,5.54-6c1.95-3.94.25-7.67.28-11.74a3.12,3.12,0,0,0,0-.55l.15-.2c1.43-1.67,3.31-2.82,4.62-4.62a14.72,14.72,0,0,0,2.41-5.55,18.62,18.62,0,0,0,.23-6.08A17.79,17.79,0,0,0,2150.05,363Zm-6.06-84a21.73,21.73,0,0,1,1.37-3.14c.52-1,1.09-2.07,1.68-3.11l.27,0c2,0,4.25.17,6.49.21-1.43,2.73-1.39,5.74,2.66,6.5a8.65,8.65,0,0,0,1.54.13c-1.33.59-2.64,1.19-4,1.7-2.19.83-4.9,2.21-7.23,1.32C2144.71,281.79,2144,280.46,2144,278.91Zm13.78,10.73-.22.31a42.12,42.12,0,0,1-8.3-3.86c-.55-.3-1.19-.62-1.83-1a14.27,14.27,0,0,0,5.64-1.09c2.25-.81,7.56-1.78,8.28-4.55v-.35l.3-.07a17,17,0,0,0-.82,1.66c-.51,1.13-1.43,2.51-.52,3.68a2.84,2.84,0,0,0,1.81,1C2160.66,286.82,2159.22,288.23,2157.77,289.64Zm29.14-13.09c-3.67,1.44-4.71,3.8-6,7.29-1.66,4.4-4.35,7.41-9.34,7.24l-1.47-.09a9.24,9.24,0,0,0-4.19-.5c-1.25-.19-2.49-.4-3.72-.61,1.61-1.44,3.07-3.19,4.5-4.72a64.76,64.76,0,0,0,5.39-6.54c.13-.18-.12-.44-.29-.31l-.41.31,0-.07c.21-.29-.19-.72-.49-.52-1.36.93-2.65,1.93-3.9,3a6,6,0,0,0-2.09.6,14,14,0,0,1-1.91.79c.24-.75.65-1.57.8-2.22s.23-1.16.31-1.73l.15,0c2.43-.63,5.49-1,7.11-3a1.08,1.08,0,0,0-.61-1.6c-1.68-.35-2.78.26-4.41.78s-3.45,1-5.21,1.45c-1.14.27-4.41,1.22-5.4.18-.66-.7-.4-2,0-3.28,3.57-.07,7.09-.62,9.9-2.68,1.46-1.07-.4-3.6-1.85-2.56-2.18,1.56-4.67,1.76-7.29,1.78l-6.25,0a24.93,24.93,0,0,1,4.87-5.34,10.51,10.51,0,0,1,5.81-2.75,30.66,30.66,0,0,1,4.49.26,17.86,17.86,0,0,0,8.33-.95c2.44-1,3.63-1.14,6.14.15.19.09.36.19.55.29l.26.33c1.12.87,1.59,2.49,2.33,3.68,1,1.57,2,3.12,2,5a.26.26,0,0,0,.51.08c.72-2.22-.13-3.92-1.08-5.91-.2-.43-.37-.89-.55-1.36l.86.45c.73.36,1.46.69,2.19,1,.24,2.27,2.36,4.25,3.07,6.33.24.71,1.46.66,1.39-.17a15.5,15.5,0,0,0-.89-3.61c-.16-.46-.3-.94-.44-1.42a17.24,17.24,0,0,0,11.77-.31h0a18.83,18.83,0,0,1-3.81,3.41c-1.07.64.24,1.76.84,1.25a15.09,15.09,0,0,0,3.46-1.88c-1.24,1.69-2.4,3.42-3.54,5.17C2195,275.07,2190.75,275.05,2186.91,276.55Zm-110-24.28c3.78,3.31,4.34,8.65,4,13.53a40.43,40.43,0,0,1-1.51,10,24.49,24.49,0,0,1-2.91,3.66,27.45,27.45,0,0,0-.63-9.6c-.11-.47-.79-.27-.71.19a28.67,28.67,0,0,1-.36,11c-.18.16-.38.31-.56.46a17.32,17.32,0,0,0,.32-4.54c-.05-1.24-2-1.25-1.92,0a26.49,26.49,0,0,1-.7,6.46v0a13.89,13.89,0,0,0-1.1,1.07c-1,.52-2.07,1-3.1,1.52a16.8,16.8,0,0,0,1.47-4.7.77.77,0,1,0-1.52-.22,19.48,19.48,0,0,1-2.13,6.08l-.41.22c-4,2.41-7.58,6.41-12.24,7.11a16.63,16.63,0,0,1-.42-1.65,4,4,0,0,1,2.19-1.21,1.38,1.38,0,0,0,.69-1.81,13.28,13.28,0,0,0-2.57-3.56,10.39,10.39,0,0,0,6.56-1.85c2.42-1.57,6.06-4.11,5.21-7.45a1.32,1.32,0,0,0-1.08-1.05l-.3,0a23.1,23.1,0,0,0,5.24-6.13C2071.78,264.18,2072.88,257.42,2076.9,252.27ZM2068.22,316c-2.74-2.12-7.22-5.46-10.44-5.16-.09-.5-.19-1-.31-1.49a6.2,6.2,0,0,0,1.07-3.6,29,29,0,0,0,4.11,2,52.86,52.86,0,0,1,11,5.35,42.6,42.6,0,0,1,4.5,3.64c.79.73,1.57,1.47,2.32,2.25l-2-.47c-2.36-.58-4.7-1.2-7.07-1.7l-.3-.08C2070.15,316.42,2069.2,316.17,2068.22,316Zm-13.57-.15c-.11.3-.24.59-.38.88a12.29,12.29,0,0,1-3,4,49.3,49.3,0,0,1-12.65,8.58c-1.45.12-2.89.22-4.31.36a53.44,53.44,0,0,0,5.3-12.9l.09-.3a28.18,28.18,0,0,0,2-9.45c0-1.06,0-2.14,0-3.22l0-.22,0-.07c3.2,3.29,6.85-1.89,8.94-6.34a16.09,16.09,0,0,0,2.21,3.8c.41,1,.8,2.07,1.15,3.13A39.93,39.93,0,0,1,2054.65,315.81Zm-3.51,8.68a11.73,11.73,0,0,1-2.82,2.33C2049.29,326.08,2050.24,325.3,2051.14,324.49ZM2043.08,300a5,5,0,0,1,.41-2.58c.8-2.09,2.45-3.88,3.7-5.71.94-1.4,1.87-2.79,2.79-4.2l.06.07a21.89,21.89,0,0,1,2.09,2.13,5.29,5.29,0,0,0-1.8,1.43,1.38,1.38,0,0,0-.78,1.05,14.47,14.47,0,0,1-2.74,6.71c-.47.61-1.23,1.8-2,2.06Q2043.71,302.39,2043.08,300Zm9.33-16.24a9.06,9.06,0,0,1,1.19-1.78,10,10,0,0,1,8.53-3.74c-.32,1.73-2.67,3.23-3.92,4.08C2056.47,283.54,2054.41,284.39,2052.41,283.79Zm-10.84-42.05c.44-.51,2.41-.52,3-.63,4.28-.84,8.21-2.78,12.36-4.05,3.53-1.09,7.79-1.67,11.23.05,3.93,2,5.1,6.57,4.81,10.65v0l0,0c-.82,1.77-1.1,3.89-1.74,5.74a56.73,56.73,0,0,1-2.34,5.64,50.06,50.06,0,0,1-3.42,6c-1.17,1.64-2.39,3.25-3.58,4.81-1,.75-1.94,1.45-2.95,2.14a26.94,26.94,0,0,1-3.14,1.7,79.22,79.22,0,0,1,4-8.16c.36-.65-.51-1.35-1-.7A84.84,84.84,0,0,0,2054,273c-.45.83-1,1.74-1.45,2.7l-.07.05c.32-1.41.64-2.83.93-4.26.88-4.17,1.39-8.43,1.93-12.66.05-.37-.54-.53-.64-.17-1,3.89-2.17,7.73-3.17,11.62-.5,2-1,3.92-1.52,5.87-.29-1-.61-2-1-2.93a29.6,29.6,0,0,0-1.87-13c-.31-2-.71-4-1.21-5.91-1-3.85-2.31-8.34-4.67-11.86A1.12,1.12,0,0,1,2041.57,241.74Zm-39.15,28.68a14.75,14.75,0,0,1,6.59-10.33c3.61-2.27,8.12-2.83,11.28-5.88s4-7.38,6.74-10.58c1.77-2.06,4.61-3.72,7.36-2.8a6.41,6.41,0,0,1,2.65,1.85c0,2.57,1.24,5.47,2,7.52,1.5,4.17,3.62,8.31,5,12.57.53,4.14.76,8.32,1,12.43-3.21-4.19-7.55-7.75-9.44-12.61-.14-.39-.8-.2-.7.2.91,3.61,3.19,6.36,5.2,9.41,1.31,2,2.47,4.1,3.61,6.2.5.91.92,1.87,1.37,2.8-.49-.28-1-.53-1.44-.75a56.08,56.08,0,0,0-8.79-3.83.19.19,0,0,0-.18.33,60,60,0,0,0,7.06,4.79c-7.35.23-14.45,3.49-22,4.46-4.92.64-9.7-.51-13.26-4.1A13.91,13.91,0,0,1,2002.42,270.42Zm-2.37,40.14a36.41,36.41,0,0,1-1.84-10.59,21,21,0,0,1,2-9.3,23.09,23.09,0,0,1,4.18-5.39,17.72,17.72,0,0,0,10.66,4.8,24.67,24.67,0,0,0,4.71-.08,44.39,44.39,0,0,0-10.24,8.65,17.25,17.25,0,0,1-1.43-1.53c-.27-.33-.79.1-.58.45a16.55,16.55,0,0,0,1.31,1.91c-.82,1-1.62,2-2.35,3.08-1.81-1.59-3.37-3.08-4.15-5.5a.48.48,0,0,0-.93.24,9.81,9.81,0,0,0,4.31,6.4c-.72,1.13-1.4,2.29-2,3.49a38.16,38.16,0,0,0-2.64,6.5C2000.73,312.66,2000.38,311.62,2000.05,310.56Zm30.14,19.65c-3.63.69-7.21,1.64-10.89,2a19.7,19.7,0,0,1-3.08.07c-3.58-.84-7.48-2.34-10-4.65a7.42,7.42,0,0,1-.62-.64,11.77,11.77,0,0,1-1-8.74c.13-.53.28-1.05.46-1.56,1.29-3.75,3.77-7.05,6.23-10.11a69.25,69.25,0,0,1,8-8.46A72.71,72.71,0,0,1,2040,285.53l.07,0c.31,0,.63-.09,1-.12q.84-.08,1.71-.09a15.9,15.9,0,0,1,1.81.13,23.12,23.12,0,0,0-3.41,2.55,53.34,53.34,0,0,0-6.53,6.31c-.26.29.19.68.47.45,2.11-1.66,4.37-3.16,6.58-4.69a50.28,50.28,0,0,1,5.3-2.84,77,77,0,0,0-5.11,7.42,9.85,9.85,0,0,0-1.44,5.71,21.15,21.15,0,0,0-.63,3.58,49.17,49.17,0,0,1-1,6c-.47.92-.94,1.84-1.35,2.79l-.19,0c-2.58.72-4.92,1.93-7.59,2.39a16.93,16.93,0,0,1-9.27-.78c-.43-.17-.73.55-.32.74a18.37,18.37,0,0,0,16.78-.89c-.12.35-.24.7-.34,1.07s-.28,1-.42,1.46c-.06.19-.11.39-.17.57l-.38-.05c-4.84,3.12-9.78,4.68-15.53,3.18a.44.44,0,0,0-.24.85c5.32,1.37,11.76.5,16-3.3a55.16,55.16,0,0,1-2.94,7.65.63.63,0,0,0,0,.46C2032,327.47,2031.1,328.86,2030.19,330.21Zm-86.8-52.72c4.47.49,8.38,4.12,11.64,6.95,2.2,1.92,4.24,4,6.24,6.07a3.83,3.83,0,0,0-1.54,1.14c-.29.35-.68,1.49-1,1.67s-.24-.08-.61-.74a4.62,4.62,0,0,0-1.89-2,1.68,1.68,0,0,0-2.5,1.41,42.43,42.43,0,0,1-.52,6c-.07.42-.1,1.07-.21,1.62a9.18,9.18,0,0,1-3.54-3.68c-1-1.84-1.61-3.84-2.4-5.76-1.71-4.16-4.16-8.1-4.6-12.67A6.48,6.48,0,0,1,1943.39,277.49Zm-2.71,23.62a1.28,1.28,0,0,0-.58.11c-2.26-3.1-2.29-8.09-2.24-11.61a37.42,37.42,0,0,1,.87-7.45,8.62,8.62,0,0,1,1.34-3.62c.88,5.09,3.7,9.52,5.65,14.27,1.2,2.89,3.32,7.11,6.69,7.92-.71.73-1.46.3-2.41.35a4,4,0,0,0-3,1.45A21.94,21.94,0,0,0,1940.68,301.11Zm-61.14-19.44c4,1,6.2,5,8.29,8.37.74,1.2,1.63,2.83,2.71,4.26a5.75,5.75,0,0,0-.15,4.07,20.68,20.68,0,0,0,1.09,2.51,8.42,8.42,0,0,1,.8,2.11c.12,1.44-.29,2.08-1.2,1.95.33-2.4-2.55-6.56-3.39-7.94a37.76,37.76,0,0,0-8.21-9.77,9.91,9.91,0,0,0,0-5.48Zm-.76,7.08a66.67,66.67,0,0,1,6.29,7.13,44,44,0,0,1,2.7,4.24,17.35,17.35,0,0,1,2.09,4.36,69.19,69.19,0,0,1-9.18-1.17,72.26,72.26,0,0,1-7.11-2.21,7.13,7.13,0,0,0-1.56-2.75c3.75-.47,8.25-1.65,6.24-6-.2-.45-.92-1.2-1.27-1.81.1-.07.25-.2.53-.39A4.47,4.47,0,0,0,1878.78,288.75ZM1855.63,285a13.61,13.61,0,0,1,6.6-3.3,33.75,33.75,0,0,1,14.19-.25c.65,1.89,1.23,4.09.16,5.84-.6,1-2,1.31-2.27,2.49s.73,1.76,1.16,2.66a20.85,20.85,0,0,0-9.53-6.41,21.14,21.14,0,0,0-8-.51c-.88.07-1.9.06-2.86.22A4.35,4.35,0,0,1,1855.63,285Zm9.32,18.12a29.27,29.27,0,0,1-8.9-10.49,11.7,11.7,0,0,1-1.61-4.78c1.12.1,2.34-.09,3.44-.07a28.28,28.28,0,0,1,7.34.78,33.35,33.35,0,0,1,10.3,5.63c-.9,1.75-5,1.68-6.38,1.82-1,.1-1.88,1.4-.94,2.21,1.27,1.08,4.26,4,1.07,4.6C1867.8,303.16,1866.42,302.73,1865,303.16Zm16.13,5.62a1.23,1.23,0,0,0-1.11.64,30.07,30.07,0,0,1-11.27-4c1.82-.05,3.61-.2,4.6-2a2.82,2.82,0,0,0,.31-.85,38.55,38.55,0,0,0,15.06,2.57l-.13.33C1887.85,308.91,1883.9,308.87,1881.08,308.78Zm-62.66,124a44.07,44.07,0,0,0-.57-9.58c-.83-5.51-2.87-10.76-3.41-16.34-.44-4.51-.13-9.26,2.31-13.2a18.15,18.15,0,0,1,9.66-7.31c8.94-3.09,19.45-.71,28,2.69,7.89,3.15,14.73,8.7,16.51,17.36,1.58,7.68-.2,15.59-.82,23.39-3.16.22-6.35,1.61-9.29,2.87s-5.9,2.59-8.72,4.12a54.73,54.73,0,0,1-7.87,4c-5.47,1.89-11.43,1.17-17,3l-.38.14a19.48,19.48,0,0,0-2.17.69l-1,.07c-4.08.44-7,3.5-10.44,5.09.7-1.16,1.54-2.23,2.18-3.42A25.28,25.28,0,0,0,1818.42,432.82Zm-74.77-13a29,29,0,0,1,6.55-13.33c3.48-4,8-6.87,12-10.43,7.35-6.67,14.55-17.1,25.49-17.43,8.77-.25,16.14,6.71,21.9,13.27l0,0c-4.48,4.56-4.67,10.53-3,16.43,1.88,6.79,4.68,13.29,5.76,20.31a41.31,41.31,0,0,1-1.51,18.38l-.27.44a14.28,14.28,0,0,0-1,1.85c-4.58-2.34-10.62-1.65-15.42-.75l-5.61,1c-11.33.95-23.27,1.52-33.4-4.38A24.08,24.08,0,0,1,1743.65,419.8Zm42.72,92c-.84,2.15-1.52,5.07-3.35,6.61-3.69,3.1-10.11-.7-13.42-2.66a78.88,78.88,0,0,1-11.76-8.91c-7.25-6.37-15.47-13.41-15.62-23.86-.08-5.43,1.35-10.85,2.85-16,1.15-4,2.93-7.87,4.08-11.86,1.32-2.13,2.68-4.25,3.95-6.43.68.37,1.38.73,2.11,1.05A38.28,38.28,0,0,0,1771,452.8l.23.12c6.83,0,13.64-.14,20.44-.7a87.46,87.46,0,0,1,10-.48,20.12,20.12,0,0,1,6.76,1.62l-.07.44a5.91,5.91,0,0,0-.41.95,7.91,7.91,0,0,0-.26,3.51,9.54,9.54,0,0,0-.43,4.65c-1.79,5.14-.75,10.7-3.33,15.7-2.26,4.37-5.62,8-8.26,12.17s-4.48,9-6.32,13.69C1788.31,506.92,1787.34,509.38,1786.37,511.83Zm48.48,22.07c-5.7,1.27-10.67-.75-16.11-2.1-4.73-1.18-9.58-1.13-14.4-1.63-5-.52-9.72-2.43-12.27-7.06a21.09,21.09,0,0,1-2.33-9.59c.7-1.75,1.38-3.5,2.08-5.25C1794,502.73,1796,497,1799.3,492c2.79-4.18,6.23-8,8.36-12.55,1.66-3.55,1.95-7.28,2.37-11h0a7.17,7.17,0,0,0,1.51-5.95c-.06-.54-.22-1.23-.39-2,.21-1.43.42-2.86.54-4.27,0-.42.07-.84.1-1.27a2.35,2.35,0,0,1,.62-.52l.28-.14.17,0a5,5,0,0,1,2.12.2h0c-2.39.65.56,4.44,1.19,5.3a17.78,17.78,0,0,1,3.32,6.63c.49,2.32-.19,4.14-.71,6.24a2.16,2.16,0,0,0-2.37,1.59,2,2,0,0,0,.09,1.16,2.22,2.22,0,0,0,.37,1,2.7,2.7,0,0,0,.78.72,2,2,0,0,0,1.07.41,2.3,2.3,0,0,0,2.11-.59,2.49,2.49,0,0,0-.3-3.54c1.62-2.11,1.52-5.55.89-7.95a13.2,13.2,0,0,0-2.34-4.75c-.84-1.08-5.1-4.54-4-6v-.21a26.11,26.11,0,0,1,5.77,2.89,16.42,16.42,0,0,1,3.81,5.32c.21,1.56,0,3,.75,4.39a16,16,0,0,0,4.8,10.47c2.07,2,4.69,3.32,6.87,5.19a16.17,16.17,0,0,1,4.51,7.43c1.48,4.27,2.63,8.73,5.73,12.17a11.92,11.92,0,0,0,4.05,2.8,20.44,20.44,0,0,0,2.5,1.38c1.5,1.3,1.63,3.4,1.65,5.46C1855.64,523.16,1845,531.62,1834.85,533.9Zm40.84-54.81c-2.89,2.72-5.56,5.58-7.17,9.25l-1.17,2.7v-.27a11.91,11.91,0,0,0-2.82-4.7,22.88,22.88,0,0,0-4.29-3.93c-.66-.48-1.26.6-.64,1.09a20.77,20.77,0,0,1,4,4c1,1.32,1.59,2.89,2.61,4.18a.64.64,0,0,0,1.06-.14,42,42,0,0,1-5.91,10.44,4.68,4.68,0,0,1-3.75,1.93,5.68,5.68,0,0,0-.85-.77c-2.14-1.59-4.64-1.78-6.44-4s-2.69-4.91-3.54-7.53c-1.72-5.3-3.61-9.83-8.22-13.23-2.42-1.79-5.06-3.24-6.73-5.83s-1.82-5.23-2.09-8.1a2.06,2.06,0,0,0-.25-.83c.1-5.74-8.23-10.07-12.84-11.71,3.64-1.21,7.09-3.15,10.68-4.4.5-.11,1-.2,1.51-.28,1.5.1,3,.23,4.5.31a21.94,21.94,0,0,0,12.55.8c5-1.15,9-4,13.23-6.7,3.57-2.29,7.22-3.87,11.54-3.42a15.85,15.85,0,0,1,3.32.71,23.56,23.56,0,0,0-2.41,4.65c-3.58,9.55-.28,21,2.55,30.28.54,1.77,1.13,3.54,1.78,5.27Zm20.08,10.73a20.85,20.85,0,0,1-2.28-.35c-6.38-2.92-10.68-8.28-14.89-13.88-.79-2.29-1.47-4.62-2.11-7-2.55-9.31-5.55-19.71.06-28.52,2.92-4.58,7.09-8.32,11.19-11.82,3.13-2.67,6.78-5,9.92-7.67,1.69-.78,3.38-1.54,5.06-2.34a29.85,29.85,0,0,0,9.54,12.35c5.35,4.06,11.39,5,17.69,6.83l.6.19c.35.22.69.44,1,.64a47.36,47.36,0,0,0,6.21,2.9l2,.81c2.17,1.28,4.3,2.63,6.52,3.86,1.24,1.29,2.26,2.78,3.82,3.73l.07,0a23.24,23.24,0,0,0-2.34,2.81,56.08,56.08,0,0,0-7,7.44c-3.68,3.3-5.89,7.9-10.4,10.44-4.29,2.41-9.11,3.63-13.59,5.63s-8.7,5.07-12.8,8l-6.46,4.55C1897,488.85,1896.41,489.34,1895.77,489.82ZM1941,378.4c9.81-1.54,21.55-6.29,30.87-.55,8.36,5.15,10.29,16.92,11.39,26.16a24.72,24.72,0,0,0-7.5,8.07,64.34,64.34,0,0,0-5.22,12.62l-2.72,4.33c-1.15,1.84-2.39,3.59-3.69,5.3a8.16,8.16,0,0,0-1.42-3,.41.41,0,0,0-.71.4,8.31,8.31,0,0,1,1,4.11c-.72.91-1.44,1.82-2.17,2.72a10.89,10.89,0,0,0-.6-2.16.37.37,0,0,0-.71.19,14.81,14.81,0,0,1,.16,3.4l-1,1.28a2,2,0,0,0,0,2.58c-.12.28-.23.55-.32.83l-1.32,1a25.48,25.48,0,0,0-4.68,2.23,2.76,2.76,0,0,0-.67-.86,1,1,0,0,0-.29-1.14,28.92,28.92,0,0,0-2.94-2.33l.05-.15,0-.42c.52-4.34-.08-8.91-3.35-12.1-2.07-2-4.49-3.54-6.35-5.8a52.07,52.07,0,0,1-3.4-5.49,2.51,2.51,0,0,0,.42-2.16,2.61,2.61,0,0,0-2-2.05,1.47,1.47,0,0,0-.62.1,2.55,2.55,0,0,0-2.06,1,2.61,2.61,0,0,0,1.34,4.12,3.37,3.37,0,0,0,.71.09c1.05,3.63,4.41,7.1,7.12,9.34,2.34,1.94,4.87,3.49,6,6.47a30,30,0,0,1,1.18,6.33l0,0a18.45,18.45,0,0,0-3.44-2.16c-.53-.32-1.05-.65-1.57-1-3-1.88-5.76-4.1-8.81-5.81s-6.17-2.21-9.5-3.05a26.23,26.23,0,0,1-3.42-1.1c-5.15-3.77-9.66-8.26-12.58-14.13a23.83,23.83,0,0,1-1.79-16.22l0-.07c2.36-7.56,8.49-13.32,15.42-17.46a29.42,29.42,0,0,1,3.62-1.29C1930.41,379.08,1935.77,379.22,1941,378.4Zm-8-6.57.54-.48a27.73,27.73,0,0,1,8.63-4.92c7.35-2.64,15.21-2.32,22.78-.93,8,1.46,15.65,4.12,23.5,6.07q6,1.47,12,2.49,3.06.51,6.15.91l.87.13c-.47.35-1,.68-1.28,1-.83.76-1.62,1.55-2.4,2.36a54.36,54.36,0,0,0-4.06,4.77c-.46.61-.91,1.23-1.34,1.86a17.82,17.82,0,0,0-2.35,3.78q-1,1.69-1.8,3.48a18.5,18.5,0,0,0-7.84.93,31.1,31.1,0,0,0-1.35-3c-.39-1.26-.84-2.5-1.32-3.71-2.45-6.12-6.24-11.47-12.48-14.09l-.33-.12a22.14,22.14,0,0,0-6.32-2.19A62.92,62.92,0,0,0,1933,371.83Zm22.3,154.78c-6.07,9.38-19.58,10.6-29.34,6.91-5.46-2.07-8.51-6.49-12.31-10.61-3.3-3.58-7.39-6.2-11.13-9.26-3.93-3.22-6.78-7.38-6.37-12.65a21,21,0,0,1,3.33-9.29l4.61-3.25c4.87-3.42,9.65-7.1,15.17-9.44,4.63-2,9.58-3.23,13.89-5.89s7-7,10.47-10.7c3.5-2.64,5.5-7.07,8.64-10.23l.25-.24.9-.64a9.75,9.75,0,0,0,.49,1.47c.88,3,3.14,5.66,4.78,8.3.09.24.17.48.24.73.81,2.91-.41,5.54-1.9,8.13-3.82,3.24-5,9.21-3.94,14,.62,2.83,2.09,5.35,2.89,8.12a16.25,16.25,0,0,1-.32,8.69c-1.11,4.37-2.6,8.73-1.91,13.31a12.09,12.09,0,0,0,1.85,4.57,18.35,18.35,0,0,0,1.34,2.52C1957.47,523,1956.43,524.87,1955.31,526.61Zm59-44.12c1,4.51-.38,8.85-2.77,12.71-2.51,4.07-6,9.17-10,11.78-3.34,2.13-7.48,2.54-11.29,3.2s-7.71,1.61-11.08,3.79c-4.39,2.85-8.3,5.67-13.38,7.24a4.67,4.67,0,0,1-4.19-.44,5.6,5.6,0,0,0-.29-1.12c-.91-2.5-2.9-4-3.21-6.85a22.63,22.63,0,0,1,1.18-8.23c1.48-5.38,2.39-10.19.41-15.57-1-2.82-2.44-5.49-2.42-8.57a12.45,12.45,0,0,1,1.3-5.15c2.78-2.83,5-6.26,4.2-10.43a10.68,10.68,0,0,0-.87-2.61,15.94,15.94,0,0,0-2.49-6c-.88-1.43-1.69-2.85-2.49-4.29a25.19,25.19,0,0,0,7.51,4c2.08.68,4.25.93,6.26,1.83a1.48,1.48,0,0,0,.23.62,22.61,22.61,0,0,0,11.4,9.5c4.82,1.8,9.7,1.61,14.75,1.68,4.23.05,8.15.73,11.51,3.48A16.9,16.9,0,0,1,2014.3,482.49Zm8.49-56A26.17,26.17,0,0,1,2024.6,437a50,50,0,0,0-6.14-9.74,45,45,0,0,0-18.36-13.53c-.78-.32-1.34,1-.58,1.35a44.22,44.22,0,0,1,24.43,28,48.9,48.9,0,0,1-1.62,6.19c-.45-5.45-3.9-10.82-7.67-14.52a.44.44,0,0,0-.63.62,26.29,26.29,0,0,1,4.76,7.08c1.19,2.66,1.59,5.38,2.28,8.18a.61.61,0,0,0,.61.47,42.16,42.16,0,0,1-5.92,9.93,51.91,51.91,0,0,0-4.76,7l-.22.31a19,19,0,0,0-6.83-3.15c-5-1.18-10.16-.23-15.24-.85a27.5,27.5,0,0,1-14.36-6.84,12.79,12.79,0,0,0-5.94-3.76c-1.81-.63-3.69-1-5.53-1.56a37,37,0,0,1-5.59-3.12c1.07-.46,2.16-.92,3.23-1.5a10.25,10.25,0,0,0,3.56-3.55,33.19,33.19,0,0,0,7.69-10.62c2.52-4.2,4.47-8.86,6.47-12.95s4-8.28,7.51-11.19c4.6-3.79,10.27-2.21,15.25-.2C2009.43,412.51,2019.16,417.62,2022.79,426.5Zm2.75-65.85a23.71,23.71,0,0,0-.9,9.14,43.45,43.45,0,0,0-1,6.06c-2.6,0-5.21-.49-7.65.31a6.4,6.4,0,0,0-2.46.91,11.22,11.22,0,0,0-2.52,2.14,32.44,32.44,0,0,0-3.94,6.15c-1.46,2.67-3.3,5.54-4,8.58a9.62,9.62,0,0,0-.13,3.67,20.38,20.38,0,0,0,1.6,4.72,27.51,27.51,0,0,0-5.32-1.53,21.88,21.88,0,0,0-11.55.92,16.15,16.15,0,0,0-.23-4.6l4.37-1.26c.47,0,.94,0,1.42.06,0,.49.12,1,.22,1.48a1.89,1.89,0,0,0,2.76,1.15c1.73-1.1,2-2.62,2.23-4.36h.07c.92-.05,1.84-.2,2.75-.31a.36.36,0,0,0,.3-.28.44.44,0,0,0-.29-.58c-.87-.13-1.73-.28-2.61-.35.57-2.92,2.47-5.33,4.54-7.39,2.33-2.32,5.21-4.38,7.52-6.85a15.8,15.8,0,0,0,3.32-5c.56-1.43-.77-2.29-2-2.13a5.77,5.77,0,0,0-3.8-2.14c-4.82-.69-9.68-.82-14.49-1.68a119.94,119.94,0,0,1-13.74-3.3c-4.39-1.33-8.66-3.42-13.17-4.3-8.46-1.66-17.88,0-26.16,2-7,1.73-10.81,6.35-13.75,12.2h0a64.24,64.24,0,0,0-7.17,3.62c-.48.2-1,.41-1.43.64a31.93,31.93,0,0,0-12.22,10.27,28,28,0,0,0-3.74,7.57,26.4,26.4,0,0,0-1.11,3.43,29.56,29.56,0,0,0,.22,15.35,83.1,83.1,0,0,0-15.35,8.76,37.59,37.59,0,0,0-8.92,8.83,2.22,2.22,0,0,0-.83-1.06,9.36,9.36,0,0,0-3.67-1.52c.21-.82.41-1.65.59-2.48.74-.72,1.43-1.52,2.15-2.21,1.54-1.46,3-2.94,4.64-4.35,1.14-1,2.29-2,3.43-3a14,14,0,0,0,2.15.23,29.29,29.29,0,0,0,3.63.11.41.41,0,0,0,.12-.8,32.34,32.34,0,0,0-3.54-.78l-.81-.15c.73-.66,1.46-1.34,2.17-2,.86,0,1.73-.06,2.56-.1,1.6-.09,3.21-.26,4.82-.39a.45.45,0,0,0,0-.89c-1.61-.15-3.21-.35-4.82-.47l-.71-.06a42.08,42.08,0,0,0,6.57-9,39.91,39.91,0,0,0,3.48-11.13c.82-4.15,1.65-8.24,3.91-11.86s5.41-5.67,9-7.82a41.41,41.41,0,0,0,14.17-14.2c2.71,1.65,6.78,1.79,9.51,1.47a35.38,35.38,0,0,0,8.86-2.07c2.59-1,5.38-1.68,7.92-2.78a.45.45,0,0,0,0-.77c-3.46-2.29-9.14,0-12.84.67a38.89,38.89,0,0,1-4.45.54,35.82,35.82,0,0,1-11.78-4.5l-1.26-.75c-.79-.74-1.59-1.44-2.25-2.11-6.81-6.81-14.6-13.77-18.28-22.87q-.33-.94-.69-1.89c-.1-.32-.2-.63-.29-.95a32,32,0,0,0-2.11-5.91,9.17,9.17,0,0,0-4.51-4.36l-1-.39a12.34,12.34,0,0,0-4.49-2,5.5,5.5,0,0,0,2-2.25,3.76,3.76,0,0,0,3.8-1.87c1.77-2.88-1.05-5.58-1.61-8.23a52.64,52.64,0,0,1,5.6,9.66q2.29,4.69,4.36,9.48c.58,1.34,1.14,2.68,1.69,4,1.41,3.48,2.43,7.36,4.47,10.54,1.83,2.86,4.69,4.77,7,7.17,2,2,3.78,4.26,5.71,6.38a11.64,11.64,0,0,0,4.12,4,21,21,0,0,0,3.79,2.48c6.88,3.4,14,.7,21-.72.52-.11,1-.19,1.54-.27l1.41-.08c1.59.37,3.17.81,4.74,1.27,1.33.38,2.65.77,4,1.14a88,88,0,0,0,19.83,5.36,39.59,39.59,0,0,0,5.23.31c.59,1.32,2.1,2.41,3.17,3.29a30.94,30.94,0,0,0,4.3,3,.52.52,0,0,0,.53-.89,30.15,30.15,0,0,1-4-3.22c-.64-.63-1.24-1.49-1.91-2.2,1.08-.06,2.15-.15,3.21-.28,1.27,1.06,2.77,1.95,4.06,2.89l6.25,4.57,0-.06-5.78-5.15c-.89-.79-1.77-1.69-2.7-2.53l1.32-.24,1.37-.29c1.46.09,2.93.19,4.38.3a1.59,1.59,0,0,0,1.6-.82c2.57.87,5.27,1.54,7.85,2.28,3.45,1,6.84,2.12,10.28,3.14a.71.71,0,0,0,.56-1.28,61.48,61.48,0,0,0-17.08-8.26c-3.14-1-5.51-2.57-6.89-5.68-.91-2.07-1.41-4.36-3.26-5.82a.91.91,0,0,0-.42-.2,39.51,39.51,0,0,0-5.57-6.06c-5.4-4.72-11.91-7.27-18.35-10.24a48.77,48.77,0,0,1-8.48-4.79,24.67,24.67,0,0,1-3.38-3l-.54-.58c-.6-.71-1-1.49-1.61-2.16a10.14,10.14,0,0,0,2.69-.42,22.59,22.59,0,0,0,3.48-1.17l-.05-.14a21.81,21.81,0,0,1-3.76.68,13,13,0,0,0-3,.23l-.14.09-.42-.29a1,1,0,0,0-.83-.07,16.14,16.14,0,0,0-4.12-2.1,23.84,23.84,0,0,0,6.28-1.31,11.35,11.35,0,0,0,5.12-2.85c.29-.29-.1-.84-.44-.58a15.14,15.14,0,0,1-5.78,2.25c-1.07.24-2.15.46-3.22.71s-2.06.89-3.13,1.19a15.28,15.28,0,0,1-5.62-5.53,18.86,18.86,0,0,1,3.82,1.45c1,.49,2.61,0,2.45-1.37a18.86,18.86,0,0,0,4.51-.81,4.33,4.33,0,0,0,1.67-2.29,20.8,20.8,0,0,0,1-5.17l.2.17a2.94,2.94,0,0,0,3.33-.15c.94-.7,1.74-3.15,2.74-2.6,0,2.08,0,4.1-.25,6.18a13.73,13.73,0,0,0,.3,5.67,12.68,12.68,0,0,0,2.18,3.76,8.12,8.12,0,0,0,1.56,1.76c1.25,1.33,2.6,2.58,3.68,3.72.56.58,1.13,1.16,1.7,1.73a157.26,157.26,0,0,0,17.08,14.81c3.34,2.53,6.8,4.93,10.26,7.31,3.06,2.11,6.35,4.16,10,5a66.57,66.57,0,0,0,1.64,7.1c.18.57,1.15.51,1.1-.14a27,27,0,0,0-1.72-6.68,26.17,26.17,0,0,0,9,1.79c-.49,2.85-1.07,6-.6,8.8a.6.6,0,0,0,1.15,0c.51-2.86.21-5.94.24-8.85l.56-.06a12.11,12.11,0,0,0,3.86-1.2,39.71,39.71,0,0,0-.19,8.07.59.59,0,0,0,1.18,0,42.29,42.29,0,0,0-.09-8.56,41.44,41.44,0,0,0,4.75-3.26,15.89,15.89,0,0,0,5.42-6.65c1.47-.06,2.93-.11,4.39-.22.81-.07,1.61-.17,2.41-.31a30.24,30.24,0,0,0-2.63,3.2c-1,1.1-1.86,2.2-2.7,3.29a60.18,60.18,0,0,0-6.88,11.34A29.92,29.92,0,0,0,2025.54,360.65Zm2.9,11.67c0-.28.1-.56.15-.82a74.68,74.68,0,0,1,5.36-17.73c.71-1.55,1.48-3.08,2.32-4.57.14-.2.29-.4.42-.6.8-1.21,1.57-2.52,2.36-3.86a49,49,0,0,1,5-6.2c2.39-2.48,5.07-5,8.31-6.3a12.2,12.2,0,0,1,3.56-.83c5.48.44,10.91,4,15.24,7.18a18,18,0,0,0,.63,8c1.82,6.05,6.07,11.32,8.2,17.24-.7,2.45.15,4.88.4,7.36.26,2.66-1,4.44-1.38,6.91l0,.14-.32.16c-3.07.34-6.29-1-9.41-.61a23.86,23.86,0,0,0-8.89,3.36c-6.82,3.9-13.85,4.46-21.44,2.94A17.49,17.49,0,0,1,2028.44,372.32Zm64.29-38.95c.15.45.94.41.88-.11a4.63,4.63,0,0,1,.52-2.81,8.78,8.78,0,0,1,.87-1.16l1.36,0c.9,0,1.79.1,2.68.22a3.19,3.19,0,0,0-.9,3.5.26.26,0,0,0,.51-.07,2.65,2.65,0,0,1,.43-1.3,6.55,6.55,0,0,1,1-.86.82.82,0,0,0,0-1.11,17,17,0,0,1,6.39,2.44,33.9,33.9,0,0,1,7.05,6.9,50.37,50.37,0,0,1,3.95,5.19c.53,3,.8,6.06,1.29,9.06-5.91,1.16-9.2,5.76-13.18,10.15a20.85,20.85,0,0,1-8.09,5.21c-.62.26-1.25.51-1.87.81a8.3,8.3,0,0,0-2.68.46,10,10,0,0,0-3.82,2.81c-1.37,1.51-2.43,3.16-4.12,4.33a7.27,7.27,0,0,1-1,.56,14.52,14.52,0,0,0-2.13.2c.18-.61.48-1.17.7-1.79a14.92,14.92,0,0,0,.53-6.53,1.23,1.23,0,0,0,.1-.42,25.06,25.06,0,0,0-2.39-11.12c-1.56-3.74-3.93-7.08-5.29-10.92-1.11-3.1-1.73-6.51-.7-9.72a11.47,11.47,0,0,1,1.94-3.59c.49-.42,1-.85,1.52-1.27,2.65-2.09,6.13-2.43,9.38-2.73,1.76-.16,3.53-.31,5.3-.39a5.87,5.87,0,0,0-.19,4ZM2075,420.27q-.37,2.85-.74,5.7a20.5,20.5,0,0,1-.66,4.19,10.81,10.81,0,0,1-5.16,2.68,23.84,23.84,0,0,1-5.31-1.12,57.52,57.52,0,0,1-9.86-4.2c-6.24-3.22-13.28-6.74-15.23-14.08a39.94,39.94,0,0,1-.82-11.8c.11-3,.67-6.07.78-9.08.45-1.4.9-2.79,1.33-4.19l.35.05a48.12,48.12,0,0,0,5.2.41l0,0c-3.06,6.72-3.55,14.66-3,21.92.06.76,1.21.78,1.18,0-.29-7.44,1.16-14.35,2.62-21.58l-.08-.36a39.46,39.46,0,0,0,16-3.19c3.4-1.47,6.38-3.35,10.19-3.39,2.51,0,5.06,0,7.35-.84l.18,1.36a1.34,1.34,0,0,0-.37,1.12c.36,2.4,1.2,4.68,1.43,7.12a49.36,49.36,0,0,1,.32,7,23.78,23.78,0,0,1-.23,2.4c-.88,3.12-2.39,6-3.42,9.11A57.07,57.07,0,0,0,2075,420.27Zm46.63,2.87c-2.94,4.39-8.09,7.36-13.44,9.22a.67.67,0,0,0-.13-.61c-1.24-1.43-2.57-2.49-3.31-4.32a16.94,16.94,0,0,1-.82-5.42l-.21-.05c-2,3.3.08,9.11,3.51,10.72a47.89,47.89,0,0,1-6.85,1.66,38.12,38.12,0,0,0-6.21.72c-6.46.37-13.79-.59-15.43-7,2.2-4.09,1.74-9.25,3.42-13.59,2.13-5.49,4-10.45,3.81-16.46-.12-4.32-1.08-9.4-3.51-13.25a9.79,9.79,0,0,0,.07-1.08h.31c.82-.11,1.67-.24,2.52-.33.3.27.58.5.73.62a12.74,12.74,0,0,1,3.5,4.09,9.54,9.54,0,0,1,.61,4.52,1.58,1.58,0,0,0-1.4,1.54,1.4,1.4,0,0,0,.27.8,1.64,1.64,0,0,0,.44.64,1.83,1.83,0,0,0,.67.37,1.37,1.37,0,0,0,.83.1,1.67,1.67,0,0,0,1.39-.79,1.81,1.81,0,0,0-.84-2.44c.77-1.77.09-4.18-.78-5.76a9.49,9.49,0,0,0-2.48-2.94c-.26-.19-.81-.51-1.43-.88a10.39,10.39,0,0,1,4.39.58c.21.09.41.18.6.28a15,15,0,0,0,2.07,3.49,11.64,11.64,0,0,0,5.21,6.47c1.82,1.06,3.9,1.51,5.77,2.45a8.76,8.76,0,0,1,1.75,1.17c.52,1.33.79,2.85,1.18,4.21.81,2.84,2,5.67,4.56,7.34,2.78,1.82,7.11,1.58,9.37,4.08C2124.17,416,2123.44,420.36,2121.58,423.14Zm13.15-41.8a31.84,31.84,0,0,1-3.32,5.78,27.88,27.88,0,0,0-2.62,4.94c-.16.21-.32.43-.46.65a2.45,2.45,0,0,0-1.1,2.12v.33l0,.07a85.06,85.06,0,0,0-1.51,9.39c-.13.34-.28.68-.43,1a3.43,3.43,0,0,1-2.3,2,4.78,4.78,0,0,0-.74-.4c-1.79-.74-3.59-.43-5.25-1.65a16.33,16.33,0,0,1-3.82-4.68c-.33-.53-.65-1-1-1.53-.14-.66-.28-1.32-.46-2-1.14-4-3.38-6.72-7.44-7.89a12,12,0,0,1-3.33-1.07,5.22,5.22,0,0,1-1.68-2.71,10.72,10.72,0,0,0-3.79-5,10.29,10.29,0,0,0-4.76-1.77h0a13,13,0,0,0-3.05-1c.33-.29.63-.58.89-.85,1.1-1.17,2-2.56,3.06-3.75a.78.78,0,0,0,1.34.5,6.54,6.54,0,0,1,2.6-1.66,16,16,0,0,0,9.38-1.61c3.33-1.69,5.63-4.39,8.15-7.06,2.11-2.24,4.4-4,7.52-4.45a12.35,12.35,0,0,1,7.87,1.54c.18.11.34.23.51.35a1.56,1.56,0,0,0-.43,2.33,30.65,30.65,0,0,1,6.39,11.61A33.07,33.07,0,0,1,2134.73,381.34Zm-15.23-41.25c2.51,1.5,6.44,0,8.88-1.5,1.22-.74,2.52-1.63,4-1.61s3.16,1,4.61,1.61a19.78,19.78,0,0,0,4.56,1.49c-1.85,2.13-2.23,4.88-2.29,8a24.24,24.24,0,0,1-.7,5.63,4.6,4.6,0,0,1-1.32,1.35c-1.69,1.08-3.83.8-5.77,1.39a14,14,0,0,0-8.61-3.46,23.45,23.45,0,0,0-1.25-7.81,22.67,22.67,0,0,0-1.9-3.94C2119.65,340.88,2119.59,340.48,2119.5,340.09Zm19.85,34.51c-.21-.77-.45-1.54-.73-2.3-.19-1.09-.42-2.18-.67-3.22-.09-.44-.18-.88-.28-1.32a13,13,0,0,0,4.21-3.34,13.41,13.41,0,0,0,3-5.72l-.14-.06a27.64,27.64,0,0,1-4.19,4.83,32.62,32.62,0,0,1-3.42,2.37,25.76,25.76,0,0,0-1.21-3.18l.38-.25a5.14,5.14,0,0,0,1.47-1.84,14.43,14.43,0,0,0,3.65-5.43,21.41,21.41,0,0,0,1.44-7.46,8.79,8.79,0,0,1,.64-4.1,13.63,13.63,0,0,1,2.65-2.66,1.65,1.65,0,0,0,.41-.6,19,19,0,0,0,2.45-.38c-.72,1.69-1.55,3.32-2.17,5.05-.2.58.65.88.95.41a19.19,19.19,0,0,0,2.14-5.68c8.24-2.2,14.24-9.53,19.35-16.26.65-.85-.74-1.88-1.44-1.13-6.17,6.52-14.08,14.82-24,13.88-4.34-.41-7.85-3.88-12.33-3.48-4.11.38-7.29,5.35-11.45,3.13h0l-.19-.1a15.69,15.69,0,0,0,3.6-5.59.29.29,0,0,0-.49-.29,49.16,49.16,0,0,1-3.63,3.87c-.45.4-.92.75-1.4,1.1l-.23,0c-.13-.27-.26-.54-.41-.81a30.36,30.36,0,0,0,2-3.14,46.64,46.64,0,0,0,3.15-5.31.33.33,0,0,0-.52-.41,45.2,45.2,0,0,0-4,4.65c-.57.71-1.28,1.45-1.88,2.24l-.18-.27c-3.95-5.33-10.72-7.34-17.07-7.89a45.23,45.23,0,0,0-10.26.18,24.65,24.65,0,0,0-10.75,4,13.9,13.9,0,0,0-2.22,1.45c-.76.62-1.63,1.78-2.58,2.12-1.19.42-2.41-.33-3.44-.79l-1.76-.77.54.14a5.08,5.08,0,0,0,1.72.28.6.6,0,0,0,.31-1.1,4.56,4.56,0,0,0-1.66-.45l-1.82-.31a.63.63,0,0,0-.72.77c-.49-.2-1-.38-1.48-.56a21.68,21.68,0,0,0-10.84-1.2,18.91,18.91,0,0,0,1.64-2.33l.22,0c2.48,0,4.95-.33,7.44-.21a41.23,41.23,0,0,1,8,1.47.45.45,0,0,0,.35-.81c-4.23-2.47-10.19-3.72-15.06-2.35a18.53,18.53,0,0,0,1.29-4.2,18.21,18.21,0,0,1,4-.56c1.06.08,2.12.2,3.17.34a61.27,61.27,0,0,0,6.49,3.48,16.75,16.75,0,0,0,13.18.55,16.1,16.1,0,0,0,3.86,0,7.16,7.16,0,0,0,2.65-.84,1.35,1.35,0,0,0-.3-2.44c-2-.38-4.09,0-6.15-.16-.83-.07-1.64-.19-2.46-.34a31.79,31.79,0,0,0-2-2.62,39.29,39.29,0,0,0-11.54-9.34c-3.5-1.9-7.62-2.9-10.79-5.36a14.71,14.71,0,0,1-4.51-5.92,13.43,13.43,0,0,0,3-.46,13.27,13.27,0,0,0,2.74,3.1q1.66,1.64,3.45,3.12c.54.45,1.31-.27.79-.78q-1.65-1.62-3.18-3.38c-.69-.82-1.33-1.81-2.1-2.6.48-.18,1-.37,1.42-.58l0,.06a40.25,40.25,0,0,0,4.78,4.63c1.47,1.37,3,2.64,4.62,3.88l.16-.15c-1.29-1.54-2.49-3.16-3.82-4.67a50.66,50.66,0,0,0-4.12-4.54c2-1,3.86-2.18,5.72-3.18.2-.1.41-.2.6-.31.78,3.58,2.88,7.26,4.74,10.2a45,45,0,0,0,3.14,4.39,21.62,21.62,0,0,0,4.42,6.06,26.83,26.83,0,0,0,9.59,5.48l.72.35a37.45,37.45,0,0,0,10.26,3.25,20.84,20.84,0,0,0,3.34,2,20.41,20.41,0,0,0,11.46,1.85c.9-.13.62-1.6-.24-1.52a21,21,0,0,1-8.89-2.61,25.52,25.52,0,0,1-3.77-2.6l-.38-.38a8.51,8.51,0,0,0-.83-.77l-.24,0,0-.06h0a7.11,7.11,0,0,1,1.22-.13l1.2,0a18.85,18.85,0,0,1,4.14,1c5.67,1.94,11.14,5.78,17.36,4.54a17.32,17.32,0,0,0,5.28-2.17,7.5,7.5,0,0,0,2.24,1.79,15.5,15.5,0,0,0,3.75,1.65.26.26,0,0,0,.2-.47,14.85,14.85,0,0,1-3.28-2.34c-.47-.45-.91-1-1.4-1.49.79-.34,1.57-.67,2.36-1a25.45,25.45,0,0,0,6.51,1.58c.82.13,1.22-1.1.36-1.28-1.06-.22-2.12-.5-3.16-.82-.23-.07-.45-.12-.67-.2l-.43-.15a47,47,0,0,1,11.14-1.17,21.42,21.42,0,0,0,4.67-.17c4.81-.79,6.61-4.15,9.68-7.41l.45-.45a39.37,39.37,0,0,1,6.12-1.43,26.83,26.83,0,0,0,11.38-5.95,28.13,28.13,0,0,0,5.11-2.89,43,43,0,0,0,8.35-8.42c5.46-7,9.55-14.94,15.52-21.55a70.45,70.45,0,0,1,8.5-7.93,91.39,91.39,0,0,0,13.4-8.81l1.42-.77c4-2.16,8.07-4.51,11.13-7.95,3.32-3.73,5.43-8.28,8.36-12.28,5.41-7.41,13.9-11.69,21.18-16.95a53.79,53.79,0,0,0,9.67-8.59c3.24-3.81,5.9-8,8.83-12.08.29-.39.58-.78.89-1.18a43.69,43.69,0,0,1,5.62-3.26,30.68,30.68,0,0,0-4.17,5.05c-1.53,2.09-3.16,4.11-4.74,6.17-.12.17.16.4.29.23a75.48,75.48,0,0,1,5.22-5.8,37.36,37.36,0,0,0,5-5.18.63.63,0,0,0-.44-1c1.61-.73,3.26-1.37,4.94-1.94-5.15,5.83-9.12,12.83-13.53,19.21-3.23,4.66-6.84,9.15-11.44,12.53-5,3.69-10.86,6.39-15,11.21s-5.83,11.56-10.59,16.16-10.78,7.31-16.25,10.78c-11.6,7.36-21.37,18-30.18,28.45a52.65,52.65,0,0,0-6.06,8.49c-1.81,3.27-2.8,6.31-6.2,8.26-6.82,3.9-14.58,6.52-22.11,8.62-2.43.68-1.42,4.5,1,3.8,4.37-1.26,8.93-2.69,13.34-4.44-.08.52-.14,1-.19,1.53a6.06,6.06,0,0,0-1.94.51,29.18,29.18,0,0,0-2.47,1.83c-2.2,1.34-4.93,1.66-7.1,3.07-.37.25-.27.93.24.9a31.34,31.34,0,0,0,6.78-1.58,23.4,23.4,0,0,0,4-1.93,14.68,14.68,0,0,1-2,4,14.17,14.17,0,0,0-2.4.63h0c-.81.28-1.61.58-2.39.82a37.05,37.05,0,0,0-5.33,1.55.3.3,0,0,0,.06.54,14.46,14.46,0,0,0,5.78-.17c.57-.09,1.17-.2,1.78-.33-.4.42-.81.84-1.23,1.25-3.4,3.35-7.31,7.18-8.39,11.68a10.55,10.55,0,0,0-.93,2.61l-.18-.09a36,36,0,0,0-3.71-1.5c-.63-.23-1.07.79-.47,1.07a33.87,33.87,0,0,1,3.55,1.94l.5.33a9.78,9.78,0,0,1-.22,1,9,9,0,0,0-3.52-1,.26.26,0,0,0-.08.51,7.9,7.9,0,0,1,2.49,1.17,6.14,6.14,0,0,1,.6.53,4.33,4.33,0,0,1-1.49,1.54c-3.49,2.26-8.53,1.91-11.1,5.61l-.3.45a6.45,6.45,0,0,0-.93.57,46.36,46.36,0,0,0-5.88,5.42c-3.75,3.95-2.93,8.25-4.05,13.14A14.19,14.19,0,0,1,2139.35,374.6Z"/><path class="cls-1" d="M1944.93,525.15c-2.86-.55-5.76-.46-8.62-1.17a33.18,33.18,0,0,1-21.21-15.89c-.08-.14-.33,0-.27.12a29.56,29.56,0,0,0,11.85,14.14c4.9,3.15,12.36,6.12,18.24,4.51C1945.71,526.65,1945.82,525.32,1944.93,525.15Z"/><path class="cls-1" d="M1852.53,514.2c-1.09,2.61-3,4.3-5,6.12-.52.47.14,1.24.71.94,2.56-1.34,4.17-4.17,5-6.88C1853.29,514,1852.69,513.82,1852.53,514.2Z"/><path class="cls-1" d="M1809.19,484.85c-5.06,7.93-9.33,18.07-9.42,27.63,0,.61,1,.78,1.08.15,1-4.64,1.47-9.25,2.9-13.8a76.56,76.56,0,0,1,5.89-13.72A.26.26,0,0,0,1809.19,484.85Z"/><path class="cls-1" d="M1807,504.91c0,1.76-.07,3.51-.11,5.27,0,.87,1.26.85,1.33,0,.17-1.76.32-3.51.49-5.26C1808.81,503.85,1807,503.81,1807,504.91Z"/><path class="cls-1" d="M1775.37,508c-2.47-.49-4.93-.51-7.34-1.36a20.62,20.62,0,0,1-7.44-4.64.48.48,0,0,0-.68.68c3.65,3.94,9.84,7.71,15.44,6.81A.78.78,0,0,0,1775.37,508Z"/><path class="cls-1" d="M1770.29,499.6a11,11,0,0,0,4.24,1.68c.65.1,1.18-.78.5-1.14a41.43,41.43,0,0,1-3.79-2.14C1770.25,497.35,1769.29,499,1770.29,499.6Z"/><path class="cls-1" d="M2007.15,488.35a30.71,30.71,0,0,1-8,10.82c-.47.42.21,1.08.67.69a24.46,24.46,0,0,0,7.58-11.43C2007.49,488.24,2007.22,488.18,2007.15,488.35Z"/><path class="cls-1" d="M2003.81,488.31a.52.52,0,0,0-1,0c-.08,1.86-3.1,3.78-4.39,4.88s-3,2.3-4.32,3.62a.6.6,0,0,0,.71.94,36.19,36.19,0,0,0,5.71-4.78C2001.85,491.68,2003.78,490.35,2003.81,488.31Z"/><path class="cls-1" d="M1971.69,486.85l-.13-.06a20.22,20.22,0,0,0-.13-8.86c-.67-2.69-2.25-6.78-4.79-8.23a.82.82,0,0,0-1.19,1c.56,1.43,1.71,2.55,2.45,3.9a21.47,21.47,0,0,1,1.66,4.07,19.61,19.61,0,0,1,.69,7.72,2.31,2.31,0,0,0-.92.34,1.87,1.87,0,0,0-.85,1.27,1.9,1.9,0,0,0,.42,1.67l.36.32.2.16a1.94,1.94,0,0,0,1.93.13,1.32,1.32,0,0,0,1-.57,1.37,1.37,0,0,0,.17-1.09A2.11,2.11,0,0,0,1971.69,486.85Z"/><path class="cls-1" d="M1894.4,455.91c-3.62,3.89-4.48,9.33-5.19,14.41-.41,2.95-1.06,6.22-.22,9.14a40.86,40.86,0,0,0,2.89,6.61c.65,1.32,2.33.53,2.49-.65.25-2-1.06-3.62-1.92-5.3-1.36-2.63-1-5.48-.76-8.32.46-4.94.8-10.86,3.92-14.94C1896.15,456.15,1895,455.27,1894.4,455.91Z"/><path class="cls-1" d="M1987.43,481.35a1.8,1.8,0,0,0-.66-.76,1.93,1.93,0,0,0-1.93-.14l-.18.1c-1.06-3.85-4.61-6.66-7.63-9-4.38-3.41-8.79-6.85-9.78-12.65a.41.41,0,0,0-.81.05c-.14,4.45,2.52,7.94,5.68,10.81,2.13,1.93,4.49,3.6,6.57,5.59a28.29,28.29,0,0,1,4.84,6.5l.07.09a2.31,2.31,0,0,0,.16,1.48,2.13,2.13,0,0,0,1.77,1.19,2.15,2.15,0,0,0,1.89-.93,2.06,2.06,0,0,0,.14-2.1Z"/><path class="cls-1" d="M1756.87,474.57a17.79,17.79,0,0,0-2.48,6.45.86.86,0,0,0,1.58.45c1-1.94,1.49-4,2.49-6C1759,474.47,1757.45,473.53,1756.87,474.57Z"/><path class="cls-1" d="M1900.36,481.5c.62-3.4.05-7.31,0-10.77a.78.78,0,0,0-1.56,0c-.13,3.46-.77,7.35-.21,10.78A.94.94,0,0,0,1900.36,481.5Z"/><path class="cls-1" d="M1756.12,462.84c-3.92,4.12-7.93,10.16-8.06,16,0,1.22,1.83,1.86,2.41.67,1.25-2.55,1.92-5.33,3.16-7.88a48,48,0,0,1,4.46-7.28C1759,463.22,1757.09,461.84,1756.12,462.84Z"/><path class="cls-1" d="M1953.05,463.69c-.11-1.37-1.76-6.6,0-7.17l0-.29c-2.35-.77-2,4-1.92,5.09a17.65,17.65,0,0,1-.87,7.36c-.87,2.2-2.43,3.35-4,4.82a2.15,2.15,0,0,0-2.85,0,1.9,1.9,0,0,0-.57,1,2.4,2.4,0,0,0-.24,1,2.53,2.53,0,0,0,.26,1,1.87,1.87,0,0,0,.67.94,2.35,2.35,0,0,0,2.09.67,2.49,2.49,0,0,0,1.69-3.13c2.52-.87,4.32-3.8,5.11-6.15A13.22,13.22,0,0,0,1953.05,463.69Z"/><path class="cls-1" d="M1797.12,476.28a3.27,3.27,0,0,0,.87.32,2,2,0,0,0,2.47-2,2.88,2.88,0,0,0-1.92-2.55c0-4-1.09-10.78,3.43-12.23v-.07c-5.22-1.28-5.59,8.34-5.12,12.32a2.31,2.31,0,0,0-1.42,1.44,2.18,2.18,0,0,0,.18,1.73A1.84,1.84,0,0,0,1797.12,476.28Z"/><path class="cls-1" d="M1866.92,472.16c-.2-.31-.43-.6-.65-.89a10.86,10.86,0,0,1-.77-.92l.07-.22V470l-.2-.36a.57.57,0,0,0-.55-.07l-.31.3c-.14.82.58,1.74,1,2.42a15.7,15.7,0,0,0,2,3c.48.55,1.18-.14.94-.71A16,16,0,0,0,1866.92,472.16Z"/><path class="cls-1" d="M1847.4,469.78l-.14,0a20.41,20.41,0,0,0-5-7.33c-2-1.88-5.61-4.43-8.53-4.24a.82.82,0,0,0-.43,1.51c1.26.88,2.84,1.19,4.2,1.92a20.72,20.72,0,0,1,3.62,2.48,19.56,19.56,0,0,1,4.82,6.07,2.07,2.07,0,0,0-.58.79,2,2,0,0,0,1.26,2.69,2.32,2.32,0,0,0,.46.07l.26,0a1.94,1.94,0,0,0,1.69-.95,1.32,1.32,0,0,0,.07-2A2.12,2.12,0,0,0,1847.4,469.78Z"/><path class="cls-1" d="M1803,454.31c-4.21-1.1-7.38,1.41-10.64,3.78a48.86,48.86,0,0,1-5.73,3.83,41.51,41.51,0,0,1-6.08,2.35,2.53,2.53,0,0,0-2-.52,2.66,2.66,0,0,0-1.41.75,2.1,2.1,0,0,0-1.15,1.88,2.43,2.43,0,0,0,.61,1.68,3.31,3.31,0,0,0,2.19,1.63,2.54,2.54,0,0,0,3.28-2.38,2.48,2.48,0,0,0-.24-1c3.26-.29,6.43-2.13,9-3.92,3.89-2.67,7-7.16,12.07-7.54A.26.26,0,0,0,1803,454.31Z"/><path class="cls-1" d="M1927.9,460.79a2.25,2.25,0,0,0-2,.42,2.17,2.17,0,0,0-.8,1.54,1.81,1.81,0,0,0,.71,1.66,3,3,0,0,0,.55.75,2,2,0,0,0,3.14-.27,2.9,2.9,0,0,0-.21-3.2c2.26-3.32,5-9.59,9.59-8.32l0-.06C1935.3,449.37,1929.71,457.21,1927.9,460.79Z"/><path class="cls-1" d="M1857.75,456.63l-.23-.1a1.84,1.84,0,0,0-1-.27,1.92,1.92,0,0,0-1,.25,2,2,0,0,0-.7.69l-.09.18c-3-2.63-7.51-3-11.33-3.33-5.53-.44-11.11-.9-15.12-5.19a.41.41,0,0,0-.64.49c2.32,3.79,6.45,5.24,10.68,5.9,2.84.45,5.73.55,8.56,1.06a28.9,28.9,0,0,1,7.62,2.77l.11,0a2.33,2.33,0,0,0,.93,1.15,2.13,2.13,0,0,0,2.14,0,2.11,2.11,0,0,0,1.06-1.82A2.08,2.08,0,0,0,1857.75,456.63Z"/><path class="cls-1" d="M1886.35,446.81c-2.89,2.18-5.71,5.74-5.86,9.52a.71.71,0,0,0,1.38.2,26.94,26.94,0,0,1,1.81-4.85,14.52,14.52,0,0,1,3.38-3.94C1887.58,447.32,1886.89,446.41,1886.35,446.81Z"/><path class="cls-1" d="M1994.37,445l-.25-.32a1.83,1.83,0,0,0-2.06-.52,2.4,2.4,0,0,0-.53.27c-3.88-2.4-9.61-1.8-13.61-.25-5,1.92-9.17,5.19-14.64,5.72a.49.49,0,0,0-.06.93c4.33.9,8.15-1.06,12-2.78a26.35,26.35,0,0,1,7.22-2.36c2.8-.35,5.23.43,7.83,1.05a2.36,2.36,0,0,0,.45,1.24l0,.05a2.53,2.53,0,0,0,.94.77,1.56,1.56,0,0,0,.85.46,1.59,1.59,0,0,0,1.64-.66v0a2.33,2.33,0,0,0,.91-2.56A1.61,1.61,0,0,0,1994.37,445Z"/><path class="cls-1" d="M1918.42,448.85a2.55,2.55,0,0,0,.37-1c2.88,1.55,6.54,1.76,9.71,1.7,4.72-.09,9.8-2.12,14.23.33.25.14.55-.15.34-.38-2.91-3.23-6.94-2.89-11-2.69a49.51,49.51,0,0,1-6.89,0,40.35,40.35,0,0,1-6.37-1.37,2.59,2.59,0,0,0-1.4-1.55,2.67,2.67,0,0,0-1.6-.14,2.07,2.07,0,0,0-2,.94,2.45,2.45,0,0,0-.41,1.73,3.36,3.36,0,0,0,.93,2.57A2.54,2.54,0,0,0,1918.42,448.85Z"/><path class="cls-1" d="M1776.43,430.91a1.65,1.65,0,0,0-.48.43,2.53,2.53,0,0,0-1.15,2,2.6,2.6,0,0,0,3.38,2.7,2.91,2.91,0,0,0,.64-.31c2.88,2.45,7.58,3.51,11.09,3.89,3,.33,6,.24,8.53,2.13a36.17,36.17,0,0,1,4.87,5.1c.4.43,1-.11.77-.58-2-4.05-5-7.75-9.64-8.64-2.84-.54-5.7-.5-8.5-1.36a50.91,50.91,0,0,1-5.85-2.71,2.5,2.5,0,0,0-.84-2A2.62,2.62,0,0,0,1776.43,430.91Z"/><path class="cls-1" d="M1820.5,444.3c4.11-1.62,6.23-5.37,8.52-8.93a26.13,26.13,0,0,1,4.75-5.93c2.14-1.84,4.59-2.52,7.11-3.44a2.41,2.41,0,0,0,1,.8l.07,0a2.67,2.67,0,0,0,1.2.13,1.76,1.76,0,0,0,1-.09,1.56,1.56,0,0,0,1-1.45v0a2.33,2.33,0,0,0-.64-2.65,1.72,1.72,0,0,0-1.19-.42l-.39-.13a1.84,1.84,0,0,0-2,.7,2.31,2.31,0,0,0-.31.52c-4.56.13-9,3.78-11.5,7.27-3.09,4.34-4.81,9.38-9.09,12.82C1819.68,443.79,1820.06,444.48,1820.5,444.3Z"/><path class="cls-1" d="M1795.75,417.56a136.54,136.54,0,0,0,2.91,12.3,15.87,15.87,0,0,0,3.39,5.09,19.28,19.28,0,0,1,4,7.06.26.26,0,0,0,.51-.07,9.68,9.68,0,0,0-1.18-6.35c-1.06-2-2.82-3.47-3.77-5.49-2.07-4.4-1.54-9.67-3.3-14.19a3.85,3.85,0,0,0,.54-1.85,2.14,2.14,0,0,0-1.53-2.17,2.77,2.77,0,0,0-1.36-.47,2.91,2.91,0,0,0-2.8,2,3.27,3.27,0,0,0,.65,3.35A2.5,2.5,0,0,0,1795.75,417.56Z"/><path class="cls-1" d="M1952.84,441.13a9.55,9.55,0,0,0,2.51-5.95c.19-2.22-.45-4.44-.13-6.65.69-4.83,4-8.94,5-13.68a3.82,3.82,0,0,0,1.48-1.25,2.15,2.15,0,0,0-.09-2.64,2.83,2.83,0,0,0-.89-1.15,2.93,2.93,0,0,0-3.45.15,3.3,3.3,0,0,0-1.3,3.16,2.5,2.5,0,0,0,1.23,1.72,49.45,49.45,0,0,0-1.93,4.88,51.62,51.62,0,0,0-2.4,7,16.1,16.1,0,0,0,0,6.11,19.21,19.21,0,0,1-.57,8.08A.26.26,0,0,0,1952.84,441.13Z"/><path class="cls-1" d="M2092.13,429.13c-2,.19-3.9.31-5.83.65-.72.13-.53,1.23.15,1.24,1.9,0,3.78-.19,5.67-.33C2093.11,430.61,2093.12,429,2092.13,429.13Z"/><path class="cls-1" d="M2112.6,426.76a8.4,8.4,0,0,1-2-2.43c-.12-.21-.5-.07-.4.17a9,9,0,0,0,1.63,2.75,5.3,5.3,0,0,0,2.68,1.9c.45.08,1-.49.51-.86C2114.28,427.68,2113.35,427.37,2112.6,426.76Z"/><path class="cls-1" d="M2094.07,425.35H2094l-.16,0a79.53,79.53,0,0,1-10.51,1.78.56.56,0,0,0,0,1.11,22.53,22.53,0,0,0,7.07-.73c1-.23,3.72-.55,4.06-1.69A.4.4,0,0,0,2094.07,425.35Z"/><path class="cls-1" d="M1752.31,423.82c1.66-3,2.65-6.25,4.38-9.21A47.59,47.59,0,0,1,1779,394.88c.57-.25.16-1.25-.43-1a49.25,49.25,0,0,0-17.08,11.55,48.66,48.66,0,0,0-6.39,8.25c-1.76,2.84-3.75,6.18-4.26,9.52C1750.7,424,1751.82,424.69,1752.31,423.82Z"/><path class="cls-1" d="M1762.86,413.74c-1.57,1.71-3.64,4.11-3.79,6.52a.56.56,0,0,0,1,.29,23.3,23.3,0,0,0,1.42-3.33,20.2,20.2,0,0,1,1.8-3.12C1763.52,413.82,1763.09,413.5,1762.86,413.74Z"/><path class="cls-1" d="M2119.85,422.35a10.76,10.76,0,0,1-1.89-.52,3.57,3.57,0,0,1-1.5-1.43c-.19-.31-.75-.1-.62.26.59,1.54,2.23,3.1,4,2.75A.56.56,0,0,0,2119.85,422.35Z"/><path class="cls-1" d="M2068,394.29a15.88,15.88,0,0,1-2,9.63c-1.48,2.31-3.65,3.21-6,4.25v0a2.39,2.39,0,0,0-2.8-.35,1.92,1.92,0,0,0-1,1.68,2.57,2.57,0,0,0,.49,1.51l.25.28a2,2,0,0,0,3.68,1.32,4.06,4.06,0,0,0,.42-2.23c2.78-.34,5.23-2.69,6.61-5,2.07-3.46,2.11-7.36,1.15-11.17C2068.71,393.71,2067.93,393.79,2068,394.29Z"/><path class="cls-1" d="M1851.2,400.8c-.31-.1-.54.4-.23.54,2,.92,3.41,2.39,5.11,3.74.39.31,1.07-.08.76-.58C1855.65,402.54,1853.34,401.44,1851.2,400.8Z"/><path class="cls-1" d="M1828.05,391.37c6.32.46,13-.56,19.14,1.41s9.17,7,14,10.7c.63.49,1.47-.43,1.08-1.06a27.93,27.93,0,0,0-13.71-10.91c-6.57-2.2-13.68-.88-20.45-1.18C1827.39,390.31,1827.39,391.32,1828.05,391.37Z"/><path class="cls-1" d="M1911.76,401.51a.73.73,0,0,0-.72.7,4.41,4.41,0,0,0-.1,1,.9.9,0,0,0,.79.77.91.91,0,0,0,.82-.86,7.19,7.19,0,0,0-.1-.92A.72.72,0,0,0,1911.76,401.51Z"/><path class="cls-1" d="M2048,393.09c-1.71,3.19-1.59,7.12-1,10.6.07.45.84.36.8-.1-.31-3.53.53-6.68,1.09-10.13C2048.91,393,2048.23,392.57,2048,393.09Z"/><path class="cls-1" d="M1970.14,392.9c.32-1.44,2.58.68,3,1.18a2.7,2.7,0,0,1,.38,2.81,1.5,1.5,0,0,0,2.16,1.69c3.19-1.67,1.21-5.74-1.09-7.16a5.68,5.68,0,0,0-3.94-1.11,2.46,2.46,0,0,0-1.8,2.4C1968.86,393.43,1970,393.66,1970.14,392.9Z"/><path class="cls-1" d="M2075.51,395.83c-.67-2.84-2.66-7.4.27-9.23l0,0c-3.9,0-2.46,6.87-1.44,9.59a1.68,1.68,0,0,0-.74,1.26,1.57,1.57,0,0,0,.44,1.19,1.29,1.29,0,0,0,1.23.43,2,2,0,0,0,.67.07,1.46,1.46,0,0,0,1.4-1.81A2.11,2.11,0,0,0,2075.51,395.83Z"/><path class="cls-1" d="M2051.16,391.59c-1.06,1.64-1.15,4.19-1.26,6.09-.08,1.34,2,1.35,2.08,0a21.43,21.43,0,0,1,.35-3,14.46,14.46,0,0,0,.49-2.66A.9.9,0,0,0,2051.16,391.59Z"/><path class="cls-1" d="M2075.75,382.49c-3.16,0-5,2.29-6.83,4.54a35.92,35.92,0,0,1-3.37,3.71,29.68,29.68,0,0,1-3.87,2.73,1.91,1.91,0,0,0-1.52,0,2,2,0,0,0-.86.78,1.48,1.48,0,0,0-.47,1.53,1.71,1.71,0,0,0,.72,1.07,2.38,2.38,0,0,0,1.83.77,1.85,1.85,0,0,0,1.89-2.26,1.69,1.69,0,0,0-.35-.68,14.62,14.62,0,0,0,5.69-4.37c2.27-2.57,3.69-6.29,7.18-7.44A.19.19,0,0,0,2075.75,382.49Z"/><path class="cls-1" d="M1914.89,394.91A.83.83,0,0,0,1916,396c2.5-1.6,4.58-3.79,7.1-5.39a36.62,36.62,0,0,1,7.86-3.76,37.09,37.09,0,0,1,18.16-1.48c.6.11.88-.8.26-.92a38.43,38.43,0,0,0-18.84.79C1925.1,386.9,1918.08,390,1914.89,394.91Z"/><path class="cls-1" d="M2111.21,386a1.49,1.49,0,0,0-1.4-.41l-.09,0a14.78,14.78,0,0,0-4.81-4.29c-1.77-1-4.73-2.14-6.76-1.48a.6.6,0,0,0,0,1.14,32,32,0,0,0,3.3.61,15,15,0,0,1,3,1.11,14.21,14.21,0,0,1,4.48,3.43,1.59,1.59,0,0,0-.28.66,1.46,1.46,0,0,0,1.37,1.67l.34,0,.19,0a1.43,1.43,0,0,0,1-1,1,1,0,0,0-.31-1.44Z"/><path class="cls-1" d="M1965.59,386.39l.35,0a1.47,1.47,0,0,0,1.4-1.05A1.53,1.53,0,0,0,1967,384a1.45,1.45,0,0,0-2.47,1v.36A1.11,1.11,0,0,0,1965.59,386.39Z"/><path class="cls-1" d="M1924.21,367.71c-3.46,3.36-6.93,6.42-11.56,8-4,1.36-6.23,3.9-9.23,6.88-.81.81.45,2.09,1.25,1.27,1.77-1.82,3.53-4.22,5.72-5.55,1.57-1,3.51-1.22,5.16-2.06,3.64-1.84,6.39-5.18,9-8.22C1924.7,367.82,1924.42,367.51,1924.21,367.71Z"/><path class="cls-1" d="M2127.07,380.07a2.07,2.07,0,0,0-1.14.29,1.54,1.54,0,0,0-.71,1.22,34.51,34.51,0,0,1-8.73-.52c-3.22-.58-6-2.18-9.06-3-.75-.21-1.43.8-.8,1.35,4.71,4.22,12.62,4.4,18.62,2.92l0,.14a2.65,2.65,0,0,0,.27.62l-.09-.2a2.54,2.54,0,0,0,.4.64,1.82,1.82,0,0,0,.84.49,1.94,1.94,0,0,0,1.4-.18,1.79,1.79,0,0,0,.77-.88,2.18,2.18,0,0,0,.11-1.21A2,2,0,0,0,2127.07,380.07Z"/><path class="cls-1" d="M2055,370.6a1.89,1.89,0,0,0-2.1.07l-.26.39a1.91,1.91,0,0,0,2.4,2.91l.4-.33c2.46,1.22,6,1.13,8.5.79,2.18-.3,4.26-.9,6.39,0a26.14,26.14,0,0,1,4.34,2.73c.35.23.68-.25.44-.54-2.1-2.51-4.91-4.58-8.32-4.39-2.1.12-4.11.66-6.23.55a39.1,39.1,0,0,1-4.61-.89A1.81,1.81,0,0,0,2055,370.6Z"/><path class="cls-1" d="M2100.88,376.9c2.08-.18,4.13-.62,6.22-.76a20.65,20.65,0,0,1,5.86.61h.09a1.69,1.69,0,0,0,.86.64,1.54,1.54,0,0,0,1.94-1.83,1.5,1.5,0,0,0-1-1.11l-.18,0a1.43,1.43,0,0,0-.74,0,1.47,1.47,0,0,0-.65.35,1.45,1.45,0,0,0-.37.62l0,.14c-2.59-1.33-5.84-.81-8.58-.35-4,.66-8,1.33-11.58-1-.28-.19-.6.22-.37.46C2094.61,376.89,2097.79,377.18,2100.88,376.9Z"/><path class="cls-1" d="M2062.65,357.65a1.83,1.83,0,0,0,1.53.2,36.1,36.1,0,0,0,1.66,3.43,38.52,38.52,0,0,0,2.56,4.73,11.55,11.55,0,0,0,3.29,3,14,14,0,0,1,4,4.28.19.19,0,0,0,.35-.14,7,7,0,0,0-1.95-4.27c-1.09-1.19-2.6-1.94-3.62-3.2-2.25-2.74-2.81-6.55-4.84-9.43a2.77,2.77,0,0,0,.06-1.4,1.57,1.57,0,0,0-1.46-1.26,2.19,2.19,0,0,0-1.05-.09,2.13,2.13,0,0,0-1.62,1.93A2.38,2.38,0,0,0,2062.65,357.65Z"/><path class="cls-1" d="M2090,361.2c-1.42,3.6-1.74,7.46-4.14,10.64-.21.27.19.69.47.49,2.61-1.87,3.44-4.88,4.42-7.79a19.11,19.11,0,0,1,2.3-5,15.36,15.36,0,0,1,4.41-3.68,1.77,1.77,0,0,0,.89.38h0a1.92,1.92,0,0,0,.88-.12,1.34,1.34,0,0,0,.66-.23,1.15,1.15,0,0,0,.45-1.21v0a1.69,1.69,0,0,0-.92-1.75,1.19,1.19,0,0,0-.92-.08l-.29,0a1.32,1.32,0,0,0-1.29.84l-.12.42C2093.66,354.94,2091.17,358.3,2090,361.2Z"/><path class="cls-1" d="M2021.89,369.25a4.32,4.32,0,0,1-.63-1.95c0-.27-.45-.39-.51-.08-.28,1.47,0,3.56,1.34,4.4a.67.67,0,0,0,.92-.9C2022.69,370.18,2022.22,369.79,2021.89,369.25Z"/><path class="cls-1" d="M2143.11,366l-2.21,1.68a8.84,8.84,0,0,0-2,1.69c-.29.43.26.84.66.66a8.66,8.66,0,0,0,2-1.63l2-1.87C2144,366.21,2143.48,365.73,2143.11,366Z"/><path class="cls-1" d="M2090.8,343.42v0c-5.76,2.55-6.29,11.6-5.42,16.9a.37.37,0,0,0,.71,0c.5-2.88.55-5.85,1.51-8.64.89-2.59,2.52-4.3,4.2-6.32a2.65,2.65,0,0,0,1.46.54,2.55,2.55,0,0,0,1.76-.71,2.48,2.48,0,0,0-1.72-4.25,2.54,2.54,0,0,0-1.76.71A2.6,2.6,0,0,0,2090.8,343.42Z"/><path class="cls-1" d="M2041.21,348.86a5.22,5.22,0,0,0,2,0,.63.63,0,0,0,0-1.26,5,5,0,0,0-2,0A.63.63,0,0,0,2041.21,348.86Z"/><path class="cls-1" d="M2043.63,344.57a14.19,14.19,0,0,0,3.84-.28.74.74,0,1,0-.18-1.46,14.47,14.47,0,0,0-3.78.73A.56.56,0,0,0,2043.63,344.57Z"/><path class="cls-1" d="M2045.64,340.89c1.67.09,3.32-.15,5,.05a16,16,0,0,1,5.77,1.9.48.48,0,0,0,.5-.83c-3.15-1.95-7.73-3.56-11.4-2.28A.59.59,0,0,0,2045.64,340.89Z"/><path class="cls-1" d="M2161.09,320.58c-3,2.32-5.77,4.93-9.06,6.77-3.1,1.74-6.45,2.16-9.64,3.52a1,1,0,0,0,.21,1.76c7.61,1.26,14.78-6.21,19-11.52A.37.37,0,0,0,2161.09,320.58Z"/><path class="cls-1" d="M2152.07,321.49l-.14-.18a48.12,48.12,0,0,1-5,2.85c-1.75.87-3.68,1.29-5.39,2.2-.62.33-.39,1.45.36,1.38C2145.8,327.38,2149.57,324.38,2152.07,321.49Z"/><path class="cls-1" d="M2032.82,322.42a16.38,16.38,0,0,1-10.71,2.58c-.79-.09-.82,1.2,0,1.26a15,15,0,0,0,11.07-3.37A.3.3,0,0,0,2032.82,322.42Z"/><path class="cls-1" d="M2025,304.05c4.06,1.12,8.59,2.32,12.48.05.55-.32.08-1.07-.48-.84-4,1.68-7.77,1.11-11.84.22C2024.8,303.4,2024.63,304,2025,304.05Z"/><path class="cls-1" d="M2195.79,295.8a6.71,6.71,0,0,0-1.35.65,3.79,3.79,0,0,0-.67.46,2.33,2.33,0,0,0-.39.75c-.22.52.48,1,.91.72a2.54,2.54,0,0,0,.63-.44l.38-.46a7.18,7.18,0,0,1,.95-.88C2196.63,296.31,2196.23,295.63,2195.79,295.8Z"/><path class="cls-1" d="M2190.41,297.72c3.58-2,6.37-5.43,9.08-8.42a92.33,92.33,0,0,0,7.47-9.41c5.21-7.54,9.86-14.73,18-19.45l-.11-.19c-8,3.81-13.18,10-18.56,16.77-2.79,3.52-5.7,7-8.71,10.32-2.74,3-6.12,5.73-8.37,9.16C2188.7,297.26,2189.66,298.13,2190.41,297.72Z"/><path class="cls-1" d="M1950.67,288.32a23.11,23.11,0,0,0-2.78-5.47l-.21.08a23,23,0,0,0,2.18,5.72A.44.44,0,0,0,1950.67,288.32Z"/><path class="cls-1" d="M2017.24,268.12c-1.55-.23-3.56-.14-4.8.92-.36.31,0,1,.46.81.68-.24,1.27-.65,2-.88a6.9,6.9,0,0,1,2.3-.34C2017.45,268.62,2017.54,268.16,2017.24,268.12Z"/><path class="cls-1" d="M2009.44,266.77a.6.6,0,0,0,.93.73,9.5,9.5,0,0,1,3.79-2.55,12.71,12.71,0,0,1,4.8-.2c.54.05.67-.87.14-.94C2016,263.34,2011,263.35,2009.44,266.77Z"/><path class="cls-1" d="M2010,264.6a11.54,11.54,0,0,1,7.59-3.37.23.23,0,0,0,.07-.44,8.12,8.12,0,0,0-8.69,3C2008.51,264.44,2009.46,265.08,2010,264.6Z"/><path class="cls-1" d="M2247.41,246.56c2.39-.64,4.28-3.32,5.66-5.26a20.62,20.62,0,0,0,3.46-7.91c.07-.35-.44-.62-.6-.26a30,30,0,0,1-4.4,7c-1.59,1.82-4,3-5.28,4.94A1,1,0,0,0,2247.41,246.56Z"/><line class="cls-2" x1="148.46" y1="351.67" x2="1563.54" y2="351.67"/><line class="cls-2" x1="2502.44" y1="351.67" x2="3917.52" y2="351.67"/><path class="cls-1" d="M1676.23,260.78c.22-.11.44-.19.66-.29l.49-.12,3.87-.92,9.35-2.21c1.55-.38,1-3.19-.6-2.91-1.15.19-2.51.48-4,.84l-4.88,1c-3,.65-6.62,2.08-9.77,1.66-6.92-.92-7.5-9.92-10.42-15.44-.39-.73-1.36-.61-1.38.29a22,22,0,0,0,1.78,8.71,12.94,12.94,0,0,1,.56,5.12,4.67,4.67,0,0,1-1.69,2.91h0a13.93,13.93,0,0,1-3.5,1.83c-3.64,1.57-7.46,1.76-11.2,2.82-1.5,0-1.44,2.86.18,3.18,3.37.67,7.93-.06,11.79-1.73a7.88,7.88,0,0,1,6.06,3.52c3,5.07,2.8,12.08,4.75,17.61a1.74,1.74,0,0,0,3.39-.7c0-4.57-1.48-9.46-2.79-13.84a26.86,26.86,0,0,0-1-2.91C1669.29,265.34,1672.88,262.43,1676.23,260.78Zm-9.46,6.39a7.52,7.52,0,0,0-2.07-2.06,10,10,0,0,0-3.74-1.47,14.13,14.13,0,0,0,1.94-1.6,5.18,5.18,0,0,0,1.34-2.59,9.08,9.08,0,0,0,.11-2.82,14.37,14.37,0,0,0,2.86,2.82c.25.18.5.36.76.52a8.19,8.19,0,0,0,4,1.19A15.58,15.58,0,0,0,1666.77,267.17Z"/><path class="cls-1" d="M2390.15,409.25c.26-.05.5-.07.75-.11l.53,0,14.27.7c1.67.07,1.9-2.94.24-3.12-1.22-.13-2.67-.25-4.27-.31l-5.23-.38c-3.25-.24-7.29.16-10.35-1.18-6.72-2.95-4.67-12.21-6-18.64-.18-.85-1.2-1-1.48-.12a23.13,23.13,0,0,0-.75,9.33,13.7,13.7,0,0,1-.93,5.33c-1.41,2.89-4.27,3-6.62,3.28-4.14.51-8.05-.41-12.14-.43-1.53-.4-2.29,2.47-.75,3.27,3.21,1.66,8,2.25,12.42,1.69,2.44,1.08,4.42,2.76,5.09,5.33,1.57,6-.7,13-.35,19.17a1.83,1.83,0,0,0,3.63.29c1.36-4.61,1.27-10,1.23-14.8a28.09,28.09,0,0,0-.18-3.23C2381.81,411.82,2386.28,409.94,2390.15,409.25Zm-11.42,3.69a8.2,8.2,0,0,0-1.49-2.69,10.73,10.73,0,0,0-3.35-2.58,14,14,0,0,0,2.42-1.05c1.77-1,2.66-2.85,3.05-5A14.34,14.34,0,0,0,2382,406a8.6,8.6,0,0,0,3.71,2.38A16.44,16.44,0,0,0,2378.73,412.94Z"/><path class="cls-1" d="M2218.52,469.88c.25-.05.5-.07.75-.11l.53,0c4.75.24,9.51.46,14.26.69,1.68.08,1.91-2.93.25-3.11-1.22-.13-2.67-.25-4.27-.31l-5.23-.38c-3.26-.24-7.29.16-10.35-1.18-6.72-2.95-4.68-12.21-6-18.64-.17-.85-1.19-1-1.47-.12a23.13,23.13,0,0,0-.75,9.33,13.7,13.7,0,0,1-.93,5.33c-1.41,2.89-4.27,3-6.62,3.28-4.14.51-8.05-.41-12.14-.43-1.53-.4-2.29,2.47-.75,3.27,3.2,1.66,8,2.25,12.42,1.69,2.44,1.08,4.42,2.76,5.08,5.33,1.58,6-.69,13-.34,19.17a1.83,1.83,0,0,0,3.63.29c1.36-4.61,1.27-10,1.23-14.8a28.09,28.09,0,0,0-.18-3.23C2210.17,472.45,2214.65,470.57,2218.52,469.88Zm-11.42,3.69a8.2,8.2,0,0,0-1.49-2.69,10.73,10.73,0,0,0-3.35-2.58,14.36,14.36,0,0,0,2.42-1.05c1.77-1,2.65-2.85,3.05-5a14.34,14.34,0,0,0,2.68,4.42,8.6,8.6,0,0,0,3.71,2.38A16.44,16.44,0,0,0,2207.1,473.57Z"/></svg>