<svg id="Layer_1" data-name="Layer 1" xmlns="http://www.w3.org/2000/svg" viewBox="0 0 2693.64 960.55"><defs><style>.cls-1{fill:#87826e;}</style></defs><path class="cls-1" d="M509.86,627.45a35.59,35.59,0,0,0,6,1.56q4,.78,8.89,1.37a76,76,0,0,0,9,.59l-23.84,2.15ZM642.52,631v9.76H509.86V631ZM537,640.15v.58q-11.92.21-18.56,6.94t-6.65,18.47v1.36l-1.95.2V640.15Zm19.73,113.52v14.26H541.12V766h2.54a11.88,11.88,0,0,0,8.7-3.62,12.64,12.64,0,0,0,3.81-8.69Zm39.47-121.92V767.93H556.17V631.75Zm-.59,121.92h.59a12.56,12.56,0,0,0,3.81,8.69,11.86,11.86,0,0,0,8.69,3.62h2.54v1.95H595.63Zm46.89-113.52V667.7l-1.95-.2v-1.36q0-11.73-6.64-18.47t-18.56-6.94v-.58Zm0-12.7v5.67L618.69,631a75,75,0,0,0,9.08-.59c3.19-.39,6.16-.85,8.89-1.37A29.36,29.36,0,0,0,642.52,627.45Z"/><path class="cls-1" d="M704.85,645.42h-.58a12.66,12.66,0,0,0-3.81-8.69,11.87,11.87,0,0,0-8.7-3.61h-2.54v-2h15.63Zm0,108.25v14.26H689.22V766h2.54a11.88,11.88,0,0,0,8.7-3.62,12.64,12.64,0,0,0,3.81-8.69Zm39.47-122.51V767.93H704.27V631.16Zm54.71,0v10h-55.3v-10Zm-10.36,64.48v9.77H743.73v-9.77ZM795.12,758l7.81,10h-59.2V758ZM811,722.6l-7.43,45.33h-42.2l7-10a37.5,37.5,0,0,0,17.49-4.2A42.33,42.33,0,0,0,800,741.65a53.05,53.05,0,0,0,9-19Zm-22.28-49.24V696h-23v-.39a21.38,21.38,0,0,0,15.24-6.25,20.06,20.06,0,0,0,5.86-15.24v-.79Zm0,31.66v22.66h-1.95v-1a20.54,20.54,0,0,0-6-15.14,21.21,21.21,0,0,0-15.14-6.15V705ZM799,640.54v27.35h-2v-1.56q0-11.72-6.64-18.46t-18.56-6.94v-.39Zm0-12.9v5.67l-23.84-2.15a75.24,75.24,0,0,0,9.09-.58c3.19-.4,6.15-.85,8.89-1.37A28.93,28.93,0,0,0,799,627.64Z"/><path class="cls-1" d="M879.33,753.67c-1.17,2.6-1.44,4.82-.78,6.64a7.78,7.78,0,0,0,3.42,4.2,9.22,9.22,0,0,0,4.78,1.47h1.76v1.95H844.94V766h1.76a18.2,18.2,0,0,0,9.28-2.84q4.78-2.82,7.91-9.47Zm42-127.2V657L873.27,767.34H857.45l51-111.76q1-1.76,2.64-5.56c1.1-2.54,2.28-5.31,3.51-8.31s2.35-5.86,3.33-8.59a27.43,27.43,0,0,0,1.66-6.65Zm16,99.26v9.77h-55.3v-9.77Zm-16-99.26,67.6,140.29H942.05l-37.71-90.27Zm15,127.2h46.11c2.21,4.43,4.89,7.59,8,9.47a17.73,17.73,0,0,0,9.18,2.84h1.57v1.95h-74V766H929a9.28,9.28,0,0,0,6.93-3.23Q938.92,759.53,936.38,753.67Z"/><path class="cls-1" d="M1141.92,645.42h-.58a12.66,12.66,0,0,0-3.81-8.69,11.87,11.87,0,0,0-8.7-3.61h-2.54v-2h15.63Zm0,108.25v14.26h-15.63V766h2.54a11.88,11.88,0,0,0,8.7-3.62,12.64,12.64,0,0,0,3.81-8.69Zm39.47-122.51V767.93h-40.05V631.16Zm54.32,63.5v9.77h-56.27v-9.77Zm-54.91-49.24V631.16h15.63v2h-2.54a11.83,11.83,0,0,0-8.69,3.61,12.58,12.58,0,0,0-3.81,8.69Zm0,108.25h.59a12.56,12.56,0,0,0,3.81,8.69,11.84,11.84,0,0,0,8.69,3.62h2.54v1.95H1180.8Zm53.73-108.25H1234a11.72,11.72,0,0,0-3.71-8.69,12.19,12.19,0,0,0-8.8-3.61h-2.54v-2h15.63Zm0,108.25v14.26H1218.9V766h2.54a12.2,12.2,0,0,0,8.8-3.62,11.7,11.7,0,0,0,3.71-8.69ZM1274,631.16V767.93h-40V631.16Zm-.58,14.26V631.16h15.63v2h-2.54a11.86,11.86,0,0,0-8.7,3.61,12.58,12.58,0,0,0-3.81,8.69Zm0,108.25h.58a12.56,12.56,0,0,0,3.81,8.69,11.86,11.86,0,0,0,8.7,3.62h2.54v1.95h-15.63Z"/><path class="cls-1" d="M1418,628.43q25.2,0,43.47,8.5t28,24.32q9.77,15.82,9.77,38.3,0,22.28-9.77,38.19t-28,24.43q-18.27,8.49-43.47,8.5t-43.38-8.5q-18.16-8.5-27.94-24.33t-9.76-38.29q0-22.27,9.76-38.2t27.94-24.42Q1392.8,628.42,1418,628.43Zm0,132.47a30.51,30.51,0,0,0,20.61-7.33q8.51-7.32,13-21t4.49-33q0-19.35-4.49-33t-13-21a32.37,32.37,0,0,0-41,0q-8.49,7.34-13,21t-4.5,33q0,19.34,4.5,33t13,21A30.25,30.25,0,0,0,1418,760.9Z"/><path class="cls-1" d="M1563,631.16v11.72h-.58a9.06,9.06,0,0,0-3-7,10.56,10.56,0,0,0-7.33-2.73h-3.12v-2Zm39.47,0v86q0,13.68,4.3,23.45A33.31,33.31,0,0,0,1619,755.52q7.92,5.19,19,5.18,11.32,0,19.25-4.88a32,32,0,0,0,12.21-14.07q4.29-9.18,4.3-22.08V631.16h17v86.56q0,16.41-6.83,28.33A45,45,0,0,1,1664,764.32q-13.1,6.34-31.85,6.35-23.84,0-39.37-6.35t-23-18.17q-7.43-11.82-7.42-28.24V631.16Zm13.48,0v2h-3.12a10.56,10.56,0,0,0-7.33,2.73,9.06,9.06,0,0,0-3,7h-.39V631.16Zm58.42,0v11.72h-.58a9.06,9.06,0,0,0-3-7,10.58,10.58,0,0,0-7.33-2.73h-3.12v-2Zm29.9,0v2h-3.13a10.56,10.56,0,0,0-7.33,2.73,9.06,9.06,0,0,0-3,7h-.39V631.16Z"/><path class="cls-1" d="M1804.66,628.43c2.86,0,6.71.13,11.53.39s9.83.62,15,1.07,9.77.91,13.68,1.37a33.27,33.27,0,0,1,7.62,1.46l-3.91,29.51h-1.95a21.19,21.19,0,0,0-8.31-17.39q-8.29-6.65-22.76-6.65-11.91,0-18.95,4.6T1789,654.61q-.58,7,4.79,10.94a73.65,73.65,0,0,0,12.6,7.23l36.54,17A39.46,39.46,0,0,1,1860.15,704q6.25,9.38,5.27,23.64-1.37,20.91-17.48,32t-43.87,11a109.66,109.66,0,0,1-20.51-1.76,76.07,76.07,0,0,1-15.73-4.59,32.22,32.22,0,0,1-10.06-6.35,25.82,25.82,0,0,1-1.76-11.92,54.94,54.94,0,0,1,2.64-14,37,37,0,0,1,5.37-11h1.76a36,36,0,0,0,4.3,19.34,37.25,37.25,0,0,0,14.65,14.85q9.76,5.67,23.45,5.67,14.07,0,20.81-5.87t6.74-13.28a16.15,16.15,0,0,0-4.79-11.33q-4.79-5.08-15.92-10.16l-31.85-14.85q-13.49-6.25-19.64-17.2t-4.39-24.81a39.06,39.06,0,0,1,7.23-19.15,36.26,36.26,0,0,1,15.53-11.82Q1791.57,628.42,1804.66,628.43Zm48.26,2-.59,4.1H1824v-4.1Z"/><path class="cls-1" d="M1931.85,645.42h-.58a12.58,12.58,0,0,0-3.81-8.69,11.86,11.86,0,0,0-8.7-3.61h-2.54v-2h15.63Zm0,108.25v14.26h-15.63V766h2.54a11.86,11.86,0,0,0,8.7-3.62,12.56,12.56,0,0,0,3.81-8.69Zm39.47-122.51V767.93h-40V631.16Zm54.71,0v10h-55.29v-10Zm-10.36,64.48v9.77h-44.93v-9.77Zm6.45,62.33,7.82,10h-59.2V758ZM2038,722.6l-7.43,45.33h-42.2l7-10a37.47,37.47,0,0,0,17.49-4.2A42.26,42.26,0,0,0,2027,741.65a53.21,53.21,0,0,0,9-19Zm-22.28-49.24V696h-23.05v-.39a21.38,21.38,0,0,0,15.24-6.25,20.06,20.06,0,0,0,5.86-15.24v-.79Zm0,31.66v22.66h-2v-1a20.54,20.54,0,0,0-6-15.14,21.19,21.19,0,0,0-15.14-6.15V705ZM2026,640.54v27.35h-2v-1.56q0-11.72-6.65-18.46t-18.56-6.94v-.39Zm0-12.9v5.67l-23.84-2.15a75,75,0,0,0,9.09-.58c3.19-.4,6.15-.85,8.89-1.37A28.73,28.73,0,0,0,2026,627.64Z"/><path class="cls-1" d="M551.09,504.8v28.41H507.91v-3.89h6.22a29.43,29.43,0,0,0,18.68-6.42q8.16-6.42,9.72-18.1Zm20.63-249.4h3.89l7.78,23-23,254.85h-21ZM562.38,511V513a17.32,17.32,0,0,0,4.47,11.48,13.62,13.62,0,0,0,10.7,5.25h5.84v3.51H559.65V511ZM575.61,255.4l112,242.4-8.95,40.85L568.21,299Zm214.77,0,3.12,26.07L695.83,499q-5.83,13.23-8.94,22.37a95.26,95.26,0,0,0-4.28,17.31h-3.9l-5.44-24.51ZM795.05,511h2.73v22.18H774V529.7h5.84a13.45,13.45,0,0,0,10.89-5.25A17.78,17.78,0,0,0,795.05,513V511ZM793.88,255.4l33.47,277.81H797L775.6,297.42l14.78-42Zm21.79,249.4h8.17q1.95,11.67,10.12,18.1a28.86,28.86,0,0,0,18.29,6.42h6.22v3.89h-42.8Z"/><path class="cls-1" d="M1005.94,255.4q41.63,0,73.15,17.7a125.77,125.77,0,0,1,49.21,49.61Q1146,354.62,1146,397t-17.71,74.31A125.7,125.7,0,0,1,1079.09,521q-31.53,17.71-73.15,17.7-41.25,0-72.76-17.7A125.73,125.73,0,0,1,884,471.34Q866.24,439.45,866.25,397T884,322.71a125.79,125.79,0,0,1,49.22-49.61Q964.7,255.4,1005.94,255.4Zm0,271.58q33.06,0,57.78-16.34t38.52-45.52q13.8-29.19,13.81-68.09t-13.81-68.09q-13.82-29.19-38.52-45.53t-57.78-16.34q-32.69,0-57.39,16.34T910,328.94Q896.22,358.12,896.21,397T910,465.12q13.8,29.17,38.52,45.52T1005.94,527Z"/><path class="cls-1" d="M1187.25,260.85v23.34h-1.17a18,18,0,0,0-6-14,21,21,0,0,0-14.59-5.44h-6.22v-3.89Zm24.12,0V432q0,28,10.31,49.42t29,33.27q18.67,11.87,43.19,11.86,26.06,0,45.52-11.28A79.18,79.18,0,0,0,1369.73,484q10.89-20,10.9-46.89V260.85h18.28V437.1q0,30.34-13,53.11a91.75,91.75,0,0,1-36.77,35.6q-23.73,12.84-55.25,12.84-32.29,0-56.61-12.64a92,92,0,0,1-37.74-35.41q-13.42-22.75-13.43-53.11V260.85Zm26.85,0v3.89H1232a21,21,0,0,0-14.6,5.44,18,18,0,0,0-6,14h-.78V260.85Zm143.57,0v23.34h-1.16a18.06,18.06,0,0,0-6-14,21,21,0,0,0-14.59-5.44h-6.22v-3.89Zm44,0v3.89h-6.23a21,21,0,0,0-14.59,5.44,18,18,0,0,0-6,14h-.78V260.85Z"/><path class="cls-1" d="M1470.51,505.58v27.63h-32.3v-3.89h7.39a23.92,23.92,0,0,0,23.74-23.74ZM1469.73,255l17.12,21.79.39,256.41h-17.9V303.65q0-19.84-3.5-48.64Zm0,0,226.06,241.23,3.5,42.41L1473.23,297.81Zm17.51,250.57A23.92,23.92,0,0,0,1511,529.32h7.39v3.89h-32.29V505.58Zm163-244.73h32.3v27.62h-.78a24.38,24.38,0,0,0-7.2-16.92,23,23,0,0,0-16.92-6.81h-7.4Zm49,0v228q0,12.45.78,23.93t2.72,25.87h-3.5L1681.78,518V260.85Zm31.13,0v3.89h-7a23.17,23.17,0,0,0-16.73,6.81,24,24,0,0,0-7.39,16.92h-1.17V260.85Z"/><path class="cls-1" d="M1736.25,253.45a70.43,70.43,0,0,0,11.86,3.12q8,1.56,17.71,2.72a150.65,150.65,0,0,0,17.9,1.17l-47.47,4.28Zm225.28,7v11.67H1736.25V260.46ZM1763.09,271v1.17a23.66,23.66,0,0,0-16.34,7,22.22,22.22,0,0,0-6.61,16.35v6.61l-3.89.39V271Zm74.32,233.84v28.41h-31.13v-3.89h5.06a23.64,23.64,0,0,0,17.32-7.2,25.08,25.08,0,0,0,7.58-17.32ZM1861.53,262v271.2h-25.29V262Zm-1.16,242.79h1.16a25.05,25.05,0,0,0,7.59,17.32,23.6,23.6,0,0,0,17.31,7.2h5.06v3.89h-31.12Zm101.16-251.35v11.29l-47.47-4.28a148.89,148.89,0,0,0,18.09-1.17q9.54-1.17,17.71-2.72A58.81,58.81,0,0,0,1961.53,253.45Zm0,17.51v31.52l-3.89-.39v-6.61a21.94,21.94,0,0,0-6.81-16.35,23.94,23.94,0,0,0-16.15-7V271Z"/><path class="cls-1" d="M1978.26,504.8q-2.73,7.79-.78,13.23a16.14,16.14,0,0,0,6.42,8.37,16.6,16.6,0,0,0,9.15,2.92h3.5v3.89h-78.21v-3.89h3.5q9,0,18.49-5.65t15.75-18.87Zm83.65-249.4,3.51,27.24L1967.76,532h-23.35L2044,295.48q4.28-9.74,7.19-16.74t5.06-13.61q2.14-6.61,2.14-9.73ZM2116.78,427v11.67H1995V427ZM2061.91,255.4l115.17,275.47H2144l-89.88-238.51Zm72.37,249.4h31.91q5.83,13.23,15.56,18.87t18.68,5.65h3.11v3.89H2116v-3.89h3.5q7.38,0,13.23-6.42T2134.28,504.8Z"/><path class="cls-1" d="M2234.28,289.25h-1.17a25,25,0,0,0-7.59-17.31,23.6,23.6,0,0,0-17.31-7.2h-5.06v-3.89h31.13Zm0,215.55v28.41h-31.13v-3.89h5.06a23.6,23.6,0,0,0,17.31-7.2,25.05,25.05,0,0,0,7.59-17.32Zm24.12-243.95V533.21h-25.29V260.85Zm-1.17,28.4v-28.4h31.13v3.89h-5.06a23.57,23.57,0,0,0-17.31,7.2,25,25,0,0,0-7.59,17.31Zm0,215.55h1.17a25,25,0,0,0,7.59,17.32,23.57,23.57,0,0,0,17.31,7.2h5.06v3.89h-31.13Z"/><path class="cls-1" d="M2341.66,505.58v27.63h-32.29v-3.89h7.39a23.94,23.94,0,0,0,23.74-23.74ZM2340.88,255,2358,276.8l.39,256.41H2340.5V303.65q0-19.84-3.51-48.64Zm0,0,226.06,241.23,3.51,42.41L2344.39,297.81Zm17.51,250.57a23.94,23.94,0,0,0,23.74,23.74h7.39v3.89h-32.29V505.58Zm163-244.73h32.3v27.62h-.78a24.42,24.42,0,0,0-7.2-16.92,23,23,0,0,0-16.93-6.81h-7.39Zm49,0v228q0,12.45.77,23.93t2.73,25.87h-3.5L2552.94,518V260.85Zm31.12,0v3.89h-7a23.15,23.15,0,0,0-16.73,6.81,24,24,0,0,0-7.39,16.92h-1.17V260.85Z"/><path class="cls-1" d="M287.18,107.62c-25.94,64.56-39.81,176.29-39.81,309.68,0,129,7.07,242.81,17.84,310.49-.47-51.24-.75-114.06-.75-182,0-110.86.74-208.21,1.86-263.64,1.12,55.43,1.87,152.78,1.87,263.64,0,67.9-.28,130.72-.76,182,10.77-67.68,17.84-181.48,17.84-310.49C285.27,283.91,274.33,173.69,287.18,107.62Z"/><path class="cls-1" d="M404.51,793c-16.94-183.12-16.19-370.76,0-562.36-20.46,62-33.84,164.84-33.84,281.18,0,90.41,8.09,172.63,21.29,233.91H144.42c13.2-61.28,21.28-143.5,21.28-233.91,0-121.76-14.65-228.7-36.74-289.58a2914.45,2914.45,0,0,1,0,579.17c3.62-10,7-21.2,10.22-33.5h258Q400.67,781.39,404.51,793Z"/></svg>